{
.appVersion = "939";
classes = (
{
automatic = 1;

glyphs = (
{
glyphname = A;
layers = (
{
anchors = (
{
name = bottom;
position = "{326, 0}";
},
{
name = ogonek;
position = "{544, 0}";
},
{
name = top;
position = "{318, 589}";
}
);
background = {
anchors = (
{
name = " ";
position = "{328, 0}";
},
{
name = ogonek;
position = "{586, 10}";
},
{
name = top;
position = "{310, 589}";
}
);
paths = (
{
closed = 1;
nodes = (
"243 0 LINE",
"243 69 LINE",
"179 69 LINE",
"213 160 LINE",
"429 160 LINE",
"461 69 LINE",
"398 69 LINE",
"398 0 LINE",
"641 0 LINE",
"641 69 LINE",
"546 69 LINE",
"365 589 LINE",
"171 589 LINE",
"171 520 LINE",
"272 520 LINE",
"106 69 LINE",
"10 69 LINE",
"10 0 LINE"
);
},
{
closed = 1;
nodes = (
"326 488 LINE",
"405 229 LINE",
"238 229 LINE"
);
}
);
};
layerId = UUID0;
paths = (
{
closed = 1;
nodes = (
"243 0 LINE",
"243 69 LINE",
"179 69 LINE",
"213 160 LINE",
"429 160 LINE",
"461 69 LINE",
"398 69 LINE",
"398 0 LINE",
"641 0 LINE",
"641 69 LINE",
"546 69 LINE",
"365 589 LINE",
"171 589 LINE",
"171 520 LINE",
"272 520 LINE",
"106 69 LINE",
"10 69 LINE",
"10 0 LINE"
);
},
{
closed = 1;
nodes = (
"326 488 LINE",
"405 229 LINE",
"238 229 LINE"
);
}
);
width = 651;
},
{
anchors = (
{
name = bottom;
position = "{341, 0}";
},
{
name = ogonek;
position = "{568, 0}";
},
{
name = top;
position = "{331, 589}";
}
);
background = {
anchors = (
{
name = bottom;
position = "{340, 0}";
},
{
name = ogonek;
position = "{599, 10}";
},
{
name = top;
position = "{310, 589}";
}
);
paths = (
{
closed = 1;
nodes = (
"286 0 LINE",
"286 112 LINE",
"231 112 LINE",
"257 197 LINE",
"419 197 LINE",
"444 112 LINE",
"395 112 LINE",
"395 0 LINE",
"660 0 LINE",
"660 112 LINE",
"572 112 LINE",
"407 589 LINE",
"167 589 LINE",
"167 477 LINE",
"245 477 LINE",
"119 112 LINE",
"20 112 LINE",
"20 0 LINE"
);
},
{
closed = 1;
nodes = (
"339 470 LINE",
"395 279 LINE",
"282 279 LINE"
);
},
{
closed = 1;
nodes = (
"286 0 LINE",
"286 112 LINE",
"231 112 LINE",
"257 197 LINE",
"419 197 LINE",
"444 112 LINE",
"395 112 LINE",
"395 0 LINE",
"660 0 LINE",
"660 112 LINE",
"572 112 LINE",
"407 589 LINE",
"167 589 LINE",
"167 477 LINE",
"245 477 LINE",
"119 112 LINE",
"20 112 LINE",
"20 0 LINE"
);
},
{
closed = 1;
nodes = (
"339 470 LINE",
"395 279 LINE",
"282 279 LINE"
);
}
);
};
layerId = "6E1B38A8-44EA-440A-BD04-FE41D2B0BC62";
paths = (
{
closed = 1;
nodes = (
"286 0 LINE",
"286 112 LINE",
"231 112 LINE",
"257 197 LINE",
"419 197 LINE",
"444 112 LINE",
"395 112 LINE",
"395 0 LINE",
"660 0 LINE",
"660 112 LINE",
"572 112 LINE",
"407 589 LINE",
"167 589 LINE",
"167 477 LINE",
"245 477 LINE",
"119 112 LINE",
"20 112 LINE",
"20 0 LINE"
);
},
{
closed = 1;
nodes = (
"339 470 LINE",
"395 279 LINE",
"282 279 LINE"
);
}
);
width = 662;
}
);
leftKerningGroup = A;
rightKerningGroup = A;
unicode = 0041;
},
{
glyphname = Aacute;
layers = (
{
background = {
paths = (
{
closed = 1;
nodes = (
"272 674 LINE",
"282 638 LINE",
"534 685 LINE",
"516 758 LINE"
);
}
);
};
components = (
{
name = A;
},
{
name = acutecomb.case;
transform = "{1, 0, 0, 1, 195, 0}";
}
);
layerId = UUID0;
width = 651;
},
{
components = (
{
name = A;
},
{
name = acutecomb.case;
transform = "{1, 0, 0, 1, 188, 0}";
}
);
layerId = "6E1B38A8-44EA-440A-BD04-FE41D2B0BC62";
width = 662;
}
);
leftKerningGroup = A;
rightKerningGroup = A;
unicode = 00C1;
},
{
glyphname = Agrave;
layers = (
{
background = {
paths = (
{
closed = 1;
nodes = (
"369 675 LINE",
"359 639 LINE",
"107 686 LINE",
"125 759 LINE"
);
}
);
};
components = (
{
name = A;
},
{
name = gravecomb.case;
transform = "{1, 0, 0, 1, 80, 0}";
}
);
layerId = UUID0;
width = 651;
},
{
components = (
{
name = A;
},
{
name = gravecomb.case;
transform = "{1, 0, 0, 1, 62, 0}";
}
);
layerId = "6E1B38A8-44EA-440A-BD04-FE41D2B0BC62";
width = 662;
}
);
leftKerningGroup = A;
rightKerningGroup = A;
unicode = 00C0;
},
{
glyphname = Aring;
layers = (
{
anchors = (
{
name = top;
position = "{328, 701}";
}
);
background = {
paths = (
{
closed = 1;
nodes = (
"235 672 OFFCURVE",
"274 633 OFFCURVE",
"322 633 CURVE SMOOTH",
"369 633 OFFCURVE",
"408 672 OFFCURVE",
"408 719 CURVE SMOOTH",
"408 766 OFFCURVE",
"369 805 OFFCURVE",
"322 805 CURVE SMOOTH",
"274 805 OFFCURVE",
"235 766 OFFCURVE",
"235 719 CURVE SMOOTH"
);
},
{
closed = 1;
nodes = (
"286 738 OFFCURVE",
"303 755 OFFCURVE",
"322 755 CURVE SMOOTH",
"340 755 OFFCURVE",
"357 738 OFFCURVE",
"357 719 CURVE",
"357 704 LINE",
"336 683 LINE",
"322 683 LINE SMOOTH",
"303 683 OFFCURVE",
"286 700 OFFCURVE",
"286 719 CURVE SMOOTH"
);
}
);
};
components = (
{
name = A;
},
{
alignment = -1;
name = ringcomb;
transform = "{1, 0, 0, 1, 215, 72}";
}
);
layerId = UUID0;
width = 685;
},
{
anchors = (
{
name = top;
position = "{358, 751}";
}
);
components = (
{
name = A;
},
{
alignment = -1;
name = ringcomb;
transform = "{1, 0, 0, 1, 196, 35}";
}
);
layerId = "6E1B38A8-44EA-440A-BD04-FE41D2B0BC62";
width = 698;
}
);
leftKerningGroup = A;
rightKerningGroup = A;
unicode = 00C5;
},
{
glyphname = AE;
layers = (
{
anchors = (
{
name = bottom;
position = "{530, 0}";
},
{
name = top;
position = "{520, 589}";
}
);
layerId = UUID0;
paths = (
{
closed = 1;
nodes = (
"267 0 LINE",
"267 69 LINE",
"209 69 LINE",
"265 160 LINE",
"491 160 LINE",
"491 69 LINE",
"396 69 LINE",
"396 0 LINE",
"834 0 LINE",
"885 154 LINE",
"819 176 LINE",
"779 69 LINE",
"571 69 LINE",
"571 260 LINE",
"732 260 LINE",
"732 329 LINE",
"572 329 LINE",
"572 520 LINE",
"759 520 LINE",
"799 413 LINE",
"865 435 LINE",
"813 589 LINE",
"310 589 LINE",
"310 520 LINE",
"413 520 LINE",
"127 69 LINE",
"27 69 LINE",
"27 0 LINE"
);
},
{
closed = 1;
nodes = (
"492 520 LINE",
"491 229 LINE",
"308 229 LINE"
);
}
);
width = 919;
},
{
anchors = (
{
name = bottom;
position = "{523, 0}";
},
{
name = top;
position = "{533, 589}";
}
);
background = {
paths = (
{
closed = 1;
nodes = (
"398 0 LINE",
"835 0 LINE",
"886 154 LINE",
"820 176 LINE",
"780 69 LINE",
"572 69 LINE",
"572 260 LINE",
"733 260 LINE",
"733 329 LINE",
"573 329 LINE",
"573 520 LINE",
"760 520 LINE",
"800 413 LINE",
"866 435 LINE",
"815 589 LINE",
"311 589 LINE",
"311 520 LINE",
"414 520 LINE",
"129 69 LINE",
"28 69 LINE",
"28 0 LINE",
"268 0 LINE",
"268 69 LINE",
"210 69 LINE",
"266 160 LINE",
"492 160 LINE",
"492 69 LINE",
"398 69 LINE"
);
},
{
closed = 1;
nodes = (
"493 520 LINE",
"492 229 LINE",
"309 229 LINE",
"491 520 LINE"
);
}
);
};
layerId = "6E1B38A8-44EA-440A-BD04-FE41D2B0BC62";
paths = (
{
closed = 1;
nodes = (
"296 0 LINE",
"296 112 LINE",
"245 112 LINE",
"283 177 LINE",
"454 177 LINE",
"454 112 LINE",
"371 112 LINE",
"371 0 LINE",
"856 0 LINE",
"916 173 LINE",
"811 210 LINE",
"775 112 LINE",
"583 112 LINE",
"583 243 LINE",
"745 243 LINE",
"745 354 LINE",
"583 354 LINE",
"583 477 LINE",
"749 477 LINE",
"785 368 LINE",
"892 404 LINE",
"830 589 LINE",
"253 589 LINE",
"253 477 LINE",
"343 477 LINE",
"122 112 LINE",
"29 112 LINE",
"29 0 LINE"
);
},
{
closed = 1;
nodes = (
"454 477 LINE",
"454 288 LINE",
"346 288 LINE"
);
}
);
width = 946;
}
);
leftKerningGroup = A;
rightKerningGroup = E;
unicode = 00C6;
},
{
glyphname = B;
layers = (
{
anchors = (
{
name = bottom;
position = "{290, 0}";
},
{
name = top;
position = "{290, 589}";
}
);
layerId = UUID0;
paths = (
{
closed = 1;
nodes = (
"334 0 LINE SMOOTH",
"469 0 OFFCURVE",
"531 68 OFFCURVE",
"531 161 CURVE SMOOTH",
"531 233 OFFCURVE",
"487 284 OFFCURVE",
"431 304 CURVE",
"481 330 OFFCURVE",
"512 381 OFFCURVE",
"512 435 CURVE SMOOTH",
"512 535 OFFCURVE",
"435 589 OFFCURVE",
"292 589 CURVE SMOOTH",
"37 589 LINE",
"37 520 LINE",
"132 520 LINE",
"132 69 LINE",
"37 69 LINE",
"37 0 LINE"
);
},
{
closed = 1;
nodes = (
"212 268 LINE",
"336 268 LINE",
"407 268 OFFCURVE",
"446 233 OFFCURVE",
"446 172 CURVE SMOOTH",
"446 104 OFFCURVE",
"405 70 OFFCURVE",
"330 70 CURVE SMOOTH",
"211 70 LINE"
);
},
{
closed = 1;
nodes = (
"212 520 LINE",
"303 520 LINE",
"384 520 OFFCURVE",
"427 490 OFFCURVE",
"427 424 CURVE SMOOTH",
"427 365 OFFCURVE",
"395 328 OFFCURVE",
"337 328 CURVE SMOOTH",
"212 328 LINE"
);
}
);
width = 566;
},
{
anchors = (
{
name = bottom;
position = "{309, 0}";
},
{
name = top;
position = "{309, 589}";
}
);
background = {
paths = (
{
closed = 1;
nodes = (
"43 589 LINE",
"43 477 LINE",
"124 477 LINE",
"124 112 LINE",
"43 112 LINE",
"43 0 LINE",
"370 0 LINE SMOOTH",
"507 0 OFFCURVE",
"571 64 OFFCURVE",
"571 165 CURVE SMOOTH",
"571 216 OFFCURVE",
"544 275 OFFCURVE",
"494 299 CURVE",
"538 338 OFFCURVE",
"553 378 OFFCURVE",
"553 416 CURVE SMOOTH",
"553 545 OFFCURVE",
"476 589 OFFCURVE",
"308 589 CURVE SMOOTH"
);
},
{
closed = 1;
nodes = (
"253 112 LINE",
"253 244 LINE",
"353 244 LINE SMOOTH",
"408 244 OFFCURVE",
"438 228 OFFCURVE",
"438 179 CURVE SMOOTH",
"438 120 OFFCURVE",
"405 112 OFFCURVE",
"347 112 CURVE SMOOTH"
);
},
{
closed = 1;
nodes = (
"253 345 LINE",
"253 477 LINE",
"319 477 LINE SMOOTH",
"393 477 OFFCURVE",
"419 458 OFFCURVE",
"419 410 CURVE SMOOTH",
"419 355 OFFCURVE",
"374 345 OFFCURVE",
"354 345 CURVE SMOOTH"
);
}
);
};
layerId = "6E1B38A8-44EA-440A-BD04-FE41D2B0BC62";
paths = (
{
closed = 1;
nodes = (
"370 0 LINE SMOOTH",
"501 0 OFFCURVE",
"571 58 OFFCURVE",
"571 162 CURVE SMOOTH",
"571 234 OFFCURVE",
"537 281 OFFCURVE",
"474 299 CURVE",
"525 324 OFFCURVE",
"553 369 OFFCURVE",
"553 429 CURVE SMOOTH",
"553 532 OFFCURVE",
"467 589 OFFCURVE",
"308 589 CURVE SMOOTH",
"43 589 LINE",
"43 477 LINE",
"124 477 LINE",
"124 112 LINE",
"43 112 LINE",
"43 0 LINE"
);
},
{
closed = 1;
nodes = (
"253 244 LINE",
"353 244 LINE SMOOTH",
"408 244 OFFCURVE",
"438 221 OFFCURVE",
"438 179 CURVE SMOOTH",
"438 135 OFFCURVE",
"406 112 OFFCURVE",
"347 112 CURVE SMOOTH",
"253 112 LINE"
);
},
{
closed = 1;
nodes = (
"253 477 LINE",
"319 477 LINE SMOOTH",
"384 477 OFFCURVE",
"419 454 OFFCURVE",
"419 410 CURVE SMOOTH",
"419 368 OFFCURVE",
"396 345 OFFCURVE",
"354 345 CURVE SMOOTH",
"253 345 LINE"
);
}
);
width = 606;
},
{
associatedMasterId = "6E1B38A8-44EA-440A-BD04-FE41D2B0BC62";
background = {
paths = (
{
closed = 1;
nodes = (
"480 210 LINE",
"445 111 LINE",
"251 111 LINE",
"252 243 LINE",
"415 243 LINE",
"415 354 LINE",
"252 354 LINE",
"252 477 LINE",
"418 477 LINE",
"455 368 LINE",
"561 404 LINE",
"499 589 LINE",
"42 589 LINE",
"42 477 LINE",
"123 477 LINE",
"122 111 LINE",
"41 111 LINE",
"41 0 LINE",
"525 0 LINE",
"585 173 LINE"
);
}
);
};
layerId = "34DD3F09-0246-4E3A-902F-751AF2FC2771";
name = "Nov 1 16, 12:54";
paths = (
{
closed = 1;
nodes = (
"41 589 LINE",
"41 477 LINE",
"122 477 LINE",
"122 112 LINE",
"41 112 LINE",
"41 0 LINE",
"368 0 LINE SMOOTH",
"505 0 OFFCURVE",
"569 64 OFFCURVE",
"569 165 CURVE SMOOTH",
"569 216 OFFCURVE",
"542 275 OFFCURVE",
"492 299 CURVE",
"536 338 OFFCURVE",
"551 378 OFFCURVE",
"551 416 CURVE SMOOTH",
"551 545 OFFCURVE",
"474 589 OFFCURVE",
"306 589 CURVE SMOOTH"
);
},
{
closed = 1;
nodes = (
"251 112 LINE",
"251 244 LINE",
"351 244 LINE SMOOTH",
"406 244 OFFCURVE",
"436 228 OFFCURVE",
"436 179 CURVE SMOOTH",
"436 120 OFFCURVE",
"403 112 OFFCURVE",
"345 112 CURVE SMOOTH"
);
},
{
closed = 1;
nodes = (
"251 345 LINE",
"251 477 LINE",
"317 477 LINE SMOOTH",
"391 477 OFFCURVE",
"417 458 OFFCURVE",
"417 410 CURVE SMOOTH",
"417 355 OFFCURVE",
"372 345 OFFCURVE",
"352 345 CURVE SMOOTH"
);
}
);
width = 587;
},
{
associatedMasterId = UUID0;
layerId = "4ED47EDE-D14B-4714-A4A4-5BA0313D6989";
name = "Nov 1 16, 12:59";
paths = (
{
closed = 1;
nodes = (
"48 589 LINE",
"48 520 LINE",
"143 520 LINE",
"143 69 LINE",
"48 69 LINE",
"48 0 LINE",
"365 0 LINE SMOOTH",
"490 0 OFFCURVE",
"542 76 OFFCURVE",
"542 174 CURVE SMOOTH",
"542 229 OFFCURVE",
"506 283 OFFCURVE",
"452 304 CURVE",
"485 326 OFFCURVE",
"523 379 OFFCURVE",
"523 435 CURVE SMOOTH",
"523 547 OFFCURVE",
"454 589 OFFCURVE",
"303 589 CURVE SMOOTH"
);
},
{
closed = 1;
nodes = (
"222 70 LINE",
"223 268 LINE",
"347 268 LINE",
"419 268 OFFCURVE",
"457 237 OFFCURVE",
"457 174 CURVE SMOOTH",
"457 103 OFFCURVE",
"414 70 OFFCURVE",
"341 70 CURVE SMOOTH"
);
},
{
closed = 1;
nodes = (
"223 328 LINE",
"223 520 LINE",
"314 520 LINE",
"379 520 OFFCURVE",
"438 521 OFFCURVE",
"438 434 CURVE SMOOTH",
"438 345 OFFCURVE",
"376 328 OFFCURVE",
"348 328 CURVE SMOOTH"
);
}
);
width = 601;
}
);
leftKerningGroup = I;
rightKerningGroup = B;
unicode = 0042;
},
{
glyphname = C;
layers = (
{
anchors = (
{
name = bottom;
position = "{307, 0}";
},
{
name = top;
position = "{327, 589}";
}
);
layerId = UUID0;
paths = (
{
closed = 1;
nodes = (
"465 426 LINE",
"533 441 LINE",
"511 557 LINE",
"511 558 OFFCURVE",
"459 603 OFFCURVE",
"327 604 CURVE SMOOTH",
"155 605 OFFCURVE",
"43 483 OFFCURVE",
"44 295 CURVE SMOOTH",
"45 105 OFFCURVE",
"156 -15 OFFCURVE",
"328 -15 CURVE SMOOTH",
"436 -15 OFFCURVE",
"507 22 OFFCURVE",
"507 22 CURVE",
"532 138 LINE",
"464 154 LINE",
"445 74 LINE",
"420 65 OFFCURVE",
"378 53 OFFCURVE",
"328 53 CURVE SMOOTH",
"202 53 OFFCURVE",
"129 143 OFFCURVE",
"129 295 CURVE SMOOTH",
"129 444 OFFCURVE",
"199 536 OFFCURVE",
"328 536 CURVE SMOOTH",
"386 536 OFFCURVE",
"425 523 OFFCURVE",
"445 512 CURVE"
);
}
);
width = 575;
},
{
anchors = (
{
name = bottom;
position = "{306, 0}";
},
{
name = top;
position = "{346, 589}";
}
);
background = {
paths = (
{
closed = 1;
nodes = (
"483 154 LINE",
"464 74 LINE",
"439 65 OFFCURVE",
"397 53 OFFCURVE",
"347 53 CURVE SMOOTH",
"221 53 OFFCURVE",
"148 143 OFFCURVE",
"148 295 CURVE SMOOTH",
"148 444 OFFCURVE",
"219 536 OFFCURVE",
"347 536 CURVE SMOOTH",
"406 536 OFFCURVE",
"444 523 OFFCURVE",
"464 512 CURVE",
"484 426 LINE",
"553 441 LINE",
"531 557 LINE",
"530 558 OFFCURVE",
"478 603 OFFCURVE",
"346 604 CURVE SMOOTH",
"174 605 OFFCURVE",
"62 483 OFFCURVE",
"63 295 CURVE SMOOTH",
"64 105 OFFCURVE",
"175 -15 OFFCURVE",
"347 -15 CURVE SMOOTH",
"455 -15 OFFCURVE",
"526 22 OFFCURVE",
"526 22 CURVE",
"551 138 LINE"
);
}
);
};
layerId = "6E1B38A8-44EA-440A-BD04-FE41D2B0BC62";
paths = (
{
closed = 1;
nodes = (
"468 384 LINE",
"577 408 LINE",
"547 558 LINE",
"547 558 OFFCURVE",
"473 611 OFFCURVE",
"349 611 CURVE SMOOTH",
"164 611 OFFCURVE",
"42 495 OFFCURVE",
"42 296 CURVE SMOOTH",
"42 75 OFFCURVE",
"168 -22 OFFCURVE",
"350 -22 CURVE SMOOTH",
"464 -22 OFFCURVE",
"544 25 OFFCURVE",
"544 25 CURVE",
"576 176 LINE",
"468 201 LINE",
"446 111 LINE",
"446 111 OFFCURVE",
"400 86 OFFCURVE",
"350 86 CURVE SMOOTH",
"240 86 OFFCURVE",
"176 160 OFFCURVE",
"176 296 CURVE SMOOTH",
"176 430 OFFCURVE",
"238 503 OFFCURVE",
"350 503 CURVE SMOOTH",
"394 503 OFFCURVE",
"446 488 OFFCURVE",
"446 487 CURVE"
);
}
);
width = 619;
}
);
leftKerningGroup = O;
rightKerningGroup = C;
unicode = 0043;
},
{
glyphname = Ccedilla;
layers = (
{
background = {
paths = (
{
closed = 1;
nodes = (
"322 10 LINE",
"322 10 OFFCURVE",
"276 25 OFFCURVE",
"273 27 CURVE",
"273 -112 LINE",
"313 -112 LINE SMOOTH",
"369 -112 OFFCURVE",
"376 -125 OFFCURVE",
"376 -144 CURVE SMOOTH",
"376 -162 OFFCURVE",
"361 -177 OFFCURVE",
"324 -177 CURVE SMOOTH",
"279 -177 OFFCURVE",
"240 -149 OFFCURVE",
"240 -149 CURVE",
"216 -185 LINE",
"227 -193 OFFCURVE",
"268 -223 OFFCURVE",
"325 -223 CURVE SMOOTH",
"384 -223 OFFCURVE",
"436 -200 OFFCURVE",
"436 -144 CURVE SMOOTH",
"436 -91 OFFCURVE",
"396 -68 OFFCURVE",
"326 -68 CURVE SMOOTH",
"322 -68 LINE"
);
}
);
};
components = (
{
name = C;
},
{
name = cedillacomb;
transform = "{1, 0, 0, 1, 231, 0}";
}
);
layerId = UUID0;
width = 575;
},
{
components = (
{
name = C;
},
{
name = cedillacomb;
transform = "{1, 0, 0, 1, 168, 0}";
}
);
layerId = "6E1B38A8-44EA-440A-BD04-FE41D2B0BC62";
width = 619;
}
);
leftKerningGroup = O;
rightKerningGroup = C;
unicode = 00C7;
},
{
glyphname = D;
layers = (
{
anchors = (
{
name = bottom;
position = "{305, 0}";
},
{
name = center;
position = "{197, 359}";
},
{
name = top;
position = "{285, 589}";
}
);
background = {
paths = (
{
closed = 1;
nodes = (
"37 589 LINE",
"37 520 LINE",
"132 520 LINE",
"132 69 LINE",
"37 69 LINE",
"37 0 LINE",
"311 0 LINE SMOOTH",
"477 0 OFFCURVE",
"606 109 OFFCURVE",
"606 285 CURVE SMOOTH",
"606 517 OFFCURVE",
"483 589 OFFCURVE",
"303 589 CURVE"
);
},
{
closed = 1;
nodes = (
"303 521 LINE",
"437 521 OFFCURVE",
"521 483 OFFCURVE",
"521 285 CURVE SMOOTH",
"521 144 OFFCURVE",
"443 67 OFFCURVE",
"293 68 CURVE SMOOTH",
"212 69 LINE",
"212 521 LINE"
);
}
);
};
layerId = UUID0;
paths = (
{
closed = 1;
nodes = (
"37 589 LINE",
"37 520 LINE",
"132 520 LINE",
"132 69 LINE",
"37 69 LINE",
"37 0 LINE",
"311 0 LINE SMOOTH",
"496 0 OFFCURVE",
"606 106 OFFCURVE",
"606 285 CURVE SMOOTH",
"606 476 OFFCURVE",
"493 589 OFFCURVE",
"303 589 CURVE SMOOTH"
);
},
{
closed = 1;
nodes = (
"212 69 LINE",
"212 520 LINE",
"303 520 LINE SMOOTH",
"446 520 OFFCURVE",
"521 439 OFFCURVE",
"521 285 CURVE SMOOTH",
"521 143 OFFCURVE",
"443 69 OFFCURVE",
"293 69 CURVE SMOOTH"
);
}
);
width = 649;
},
{
anchors = (
{
name = bottom;
position = "{315, 0}";
},
{
name = center;
position = "{205, 330}";
},
{
name = top;
position = "{305, 589}";
}
);
background = {
paths = (
{
closed = 1;
nodes = (
"50 589 LINE",
"50 520 LINE",
"146 520 LINE",
"146 69 LINE",
"50 69 LINE",
"50 0 LINE",
"324 0 LINE SMOOTH",
"490 0 OFFCURVE",
"619 109 OFFCURVE",
"619 285 CURVE SMOOTH",
"619 517 OFFCURVE",
"497 589 OFFCURVE",
"316 589 CURVE SMOOTH"
);
},
{
closed = 1;
nodes = (
"226 520 LINE",
"316 520 LINE SMOOTH",
"457 520 OFFCURVE",
"534 478 OFFCURVE",
"534 285 CURVE SMOOTH",
"534 144 OFFCURVE",
"457 69 OFFCURVE",
"306 69 CURVE SMOOTH",
"226 69 LINE",
"226 520 LINE"
);
}
);
};
layerId = "6E1B38A8-44EA-440A-BD04-FE41D2B0BC62";
paths = (
{
closed = 1;
nodes = (
"43 589 LINE",
"43 477 LINE",
"124 477 LINE",
"124 112 LINE",
"43 112 LINE",
"43 0 LINE",
"327 0 LINE SMOOTH",
"522 0 OFFCURVE",
"637 105 OFFCURVE",
"637 283 CURVE SMOOTH",
"637 475 OFFCURVE",
"519 589 OFFCURVE",
"319 589 CURVE SMOOTH"
);
},
{
closed = 1;
nodes = (
"253 112 LINE",
"253 477 LINE",
"319 477 LINE SMOOTH",
"440 477 OFFCURVE",
"503 410 OFFCURVE",
"503 282 CURVE SMOOTH",
"503 170 OFFCURVE",
"436 112 OFFCURVE",
"309 112 CURVE SMOOTH"
);
}
);
width = 677;
}
);
leftKerningGroup = I;
rightKerningGroup = D;
unicode = 0044;
},
{
glyphname = Eth;
layers = (
{
background = {
paths = (
{
closed = 1;
nodes = (
"49 589 LINE",
"49 520 LINE",
"144 520 LINE",
"144 69 LINE",
"49 69 LINE",
"49 0 LINE",
"323 0 LINE SMOOTH",
"489 0 OFFCURVE",
"618 109 OFFCURVE",
"618 285 CURVE SMOOTH",
"618 517 OFFCURVE",
"495 589 OFFCURVE",
"315 589 CURVE"
);
},
{
closed = 1;
nodes = (
"315 521 LINE",
"449 521 OFFCURVE",
"533 483 OFFCURVE",
"533 285 CURVE SMOOTH",
"533 144 OFFCURVE",
"455 67 OFFCURVE",
"305 68 CURVE SMOOTH",
"224 69 LINE",
"224 521 LINE"
);
},
{
closed = 1;
nodes = (
"49 272 LINE",
"337 272 LINE",
"337 336 LINE",
"49 336 LINE"
);
}
);
};
layerId = UUID0;
paths = (
{
closed = 1;
nodes = (
"49 589 LINE",
"49 520 LINE",
"144 520 LINE",
"144 336 LINE",
"49 336 LINE",
"49 272 LINE",
"144 272 LINE",
"144 69 LINE",
"49 69 LINE",
"49 0 LINE",
"323 0 LINE SMOOTH",
"489 0 OFFCURVE",
"618 109 OFFCURVE",
"618 285 CURVE SMOOTH",
"618 517 OFFCURVE",
"495 589 OFFCURVE",
"315 589 CURVE SMOOTH"
);
},
{
closed = 1;
nodes = (
"224 69 LINE",
"224 272 LINE",
"337 272 LINE",
"337 336 LINE",
"224 336 LINE",
"224 520 LINE",
"315 520 LINE SMOOTH",
"455 520 OFFCURVE",
"533 478 OFFCURVE",
"533 285 CURVE SMOOTH",
"533 144 OFFCURVE",
"455 69 OFFCURVE",
"305 69 CURVE SMOOTH"
);
}
);
width = 661;
},
{
background = {
paths = (
{
closed = 1;
nodes = (
"68 272 LINE",
"163 272 LINE",
"163 69 LINE",
"68 69 LINE",
"68 0 LINE",
"342 0 LINE SMOOTH",
"508 0 OFFCURVE",
"637 109 OFFCURVE",
"637 285 CURVE SMOOTH",
"637 517 OFFCURVE",
"514 589 OFFCURVE",
"334 589 CURVE SMOOTH",
"68 589 LINE",
"68 520 LINE",
"163 520 LINE",
"163 336 LINE",
"68 336 LINE"
);
},
{
closed = 1;
nodes = (
"243 520 LINE",
"334 520 LINE SMOOTH",
"474 520 OFFCURVE",
"552 478 OFFCURVE",
"552 285 CURVE SMOOTH",
"552 144 OFFCURVE",
"474 69 OFFCURVE",
"324 69 CURVE SMOOTH",
"243 69 LINE",
"243 272 LINE",
"356 272 LINE",
"356 336 LINE",
"243 336 LINE"
);
}
);
};
layerId = "6E1B38A8-44EA-440A-BD04-FE41D2B0BC62";
paths = (
{
closed = 1;
nodes = (
"59 589 LINE",
"59 477 LINE",
"140 477 LINE",
"140 360 LINE",
"59 360 LINE",
"59 249 LINE",
"140 249 LINE",
"140 112 LINE",
"59 112 LINE",
"59 0 LINE",
"343 0 LINE SMOOTH",
"523 0 OFFCURVE",
"653 69 OFFCURVE",
"653 283 CURVE SMOOTH",
"653 506 OFFCURVE",
"530 589 OFFCURVE",
"335 589 CURVE SMOOTH"
);
},
{
closed = 1;
nodes = (
"269 112 LINE",
"269 249 LINE",
"359 249 LINE",
"359 360 LINE",
"269 360 LINE",
"269 477 LINE",
"335 477 LINE SMOOTH",
"460 477 OFFCURVE",
"519 429 OFFCURVE",
"519 282 CURVE SMOOTH",
"519 141 OFFCURVE",
"459 112 OFFCURVE",
"325 112 CURVE SMOOTH"
);
}
);
width = 695;
}
);
leftKerningGroup = I;
rightKerningGroup = D;
unicode = 00D0;
},
{
glyphname = E;
layers = (
{
anchors = (
{
name = bottom;
position = "{293, 0}";
},
{
name = ogonek;
position = "{502, 0}";
},
{
name = top;
position = "{293, 589}";
},
{
name = topleft;
position = "{10, 589}";
}
);
layerId = UUID0;
paths = (
{
closed = 1;
nodes = (
"38 520 LINE",
"134 520 LINE",
"133 69 LINE",
"37 69 LINE",
"37 0 LINE",
"502 0 LINE",
"553 154 LINE",
"488 176 LINE",
"448 69 LINE",
"213 69 LINE",
"214 270 LINE",
"401 270 LINE",
"401 339 LINE",
"214 339 LINE",
"214 520 LINE",
"428 520 LINE",
"468 413 LINE",
"533 435 LINE",
"482 589 LINE",
"38 589 LINE"
);
}
);
width = 587;
},
{
anchors = (
{
name = bottom;
position = "{301, 0}";
},
{
name = ogonek;
position = "{527, 0}";
},
{
name = top;
position = "{301, 589}";
},
{
name = topleft;
position = "{22, 589}";
}
);
background = {
paths = (
{
closed = 1;
nodes = (
"501 176 LINE",
"460 69 LINE",
"226 69 LINE",
"227 270 LINE",
"414 270 LINE",
"414 339 LINE",
"227 339 LINE",
"227 520 LINE",
"440 520 LINE",
"481 413 LINE",
"546 435 LINE",
"495 589 LINE",
"51 589 LINE",
"51 520 LINE",
"147 520 LINE",
"146 69 LINE",
"50 69 LINE",
"50 0 LINE",
"515 0 LINE",
"566 154 LINE"
);
}
);
};
layerId = "6E1B38A8-44EA-440A-BD04-FE41D2B0BC62";
paths = (
{
closed = 1;
nodes = (
"44 477 LINE",
"125 477 LINE",
"124 112 LINE",
"43 112 LINE",
"43 0 LINE",
"527 0 LINE",
"587 173 LINE",
"482 210 LINE",
"447 112 LINE",
"254 112 LINE",
"254 243 LINE",
"417 243 LINE",
"417 354 LINE",
"254 354 LINE",
"254 477 LINE",
"420 477 LINE",
"457 368 LINE",
"563 404 LINE",
"501 589 LINE",
"44 589 LINE"
);
}
);
width = 617;
}
);
leftKerningGroup = I;
rightKerningGroup = E;
unicode = 0045;
},
{
glyphname = Eacute;
layers = (
{
background = {
paths = (
{
closed = 1;
nodes = (
"498 176 LINE",
"458 69 LINE",
"223 69 LINE",
"224 270 LINE",
"411 270 LINE",
"411 339 LINE",
"224 339 LINE",
"224 520 LINE",
"438 520 LINE",
"478 413 LINE",
"543 435 LINE",
"492 589 LINE",
"48 589 LINE",
"48 520 LINE",
"144 520 LINE",
"143 69 LINE",
"47 69 LINE",
"47 0 LINE",
"512 0 LINE",
"563 154 LINE"
);
},
{
closed = 1;
nodes = (
"190 674 LINE",
"200 638 LINE",
"452 685 LINE",
"434 758 LINE"
);
}
);
};
components = (
{
name = E;
},
{
name = acutecomb.case;
transform = "{1, 0, 0, 1, 170, 0}";
}
);
layerId = UUID0;
width = 587;
},
{
components = (
{
name = E;
},
{
name = acutecomb.case;
transform = "{1, 0, 0, 1, 158, 0}";
}
);
layerId = "6E1B38A8-44EA-440A-BD04-FE41D2B0BC62";
width = 617;
}
);
leftKerningGroup = I;
rightKerningGroup = E;
unicode = 00C9;
},
{
glyphname = Egrave;
layers = (
{
background = {
paths = (
{
closed = 1;
nodes = (
"322 678 LINE",
"313 642 LINE",
"61 689 LINE",
"79 762 LINE"
);
}
);
};
components = (
{
name = E;
},
{
name = gravecomb.case;
transform = "{1, 0, 0, 1, 55, 0}";
}
);
layerId = UUID0;
width = 587;
},
{
components = (
{
name = E;
},
{
name = gravecomb.case;
transform = "{1, 0, 0, 1, 32, 0}";
}
);
layerId = "6E1B38A8-44EA-440A-BD04-FE41D2B0BC62";
width = 617;
}
);
leftKerningGroup = I;
rightKerningGroup = E;
unicode = 00C8;
},
{
glyphname = F;
layers = (
{
anchors = (
{
name = bottom;
position = "{269, 0}";
},
{
name = top;
position = "{269, 589}";
}
);
layerId = UUID0;
paths = (
{
closed = 1;
nodes = (
"38 520 LINE",
"134 520 LINE",
"133 69 LINE",
"37 69 LINE",
"37 0 LINE",
"334 0 LINE",
"334 69 LINE",
"212 69 LINE",
"212 264 LINE",
"378 264 LINE",
"378 333 LINE",
"213 333 LINE",
"213 520 LINE",
"427 520 LINE",
"467 413 LINE",
"532 435 LINE",
"481 589 LINE",
"38 589 LINE"
);
}
);
width = 560;
},
{
anchors = (
{
name = bottom;
position = "{290, 0}";
},
{
name = top;
position = "{290, 589}";
}
);
background = {
paths = (
{
closed = 1;
nodes = (
"546 435 LINE",
"494 589 LINE",
"52 589 LINE",
"52 520 LINE",
"147 520 LINE",
"146 69 LINE",
"51 69 LINE",
"51 0 LINE",
"347 0 LINE",
"347 69 LINE",
"225 69 LINE",
"225 264 LINE",
"391 264 LINE",
"391 333 LINE",
"226 333 LINE",
"226 520 LINE",
"440 520 LINE",
"480 413 LINE"
);
}
);
};
layerId = "6E1B38A8-44EA-440A-BD04-FE41D2B0BC62";
paths = (
{
closed = 1;
nodes = (
"43 477 LINE",
"126 477 LINE",
"125 112 LINE",
"43 112 LINE",
"43 0 LINE",
"381 0 LINE",
"381 112 LINE",
"252 112 LINE",
"252 240 LINE",
"403 240 LINE",
"403 352 LINE",
"253 352 LINE",
"253 477 LINE",
"421 477 LINE",
"460 360 LINE",
"566 396 LINE",
"502 589 LINE",
"43 589 LINE"
);
}
);
width = 592;
}
);
leftKerningGroup = I;
rightKerningGroup = F;
unicode = 0046;
},
{
glyphname = G;
layers = (
{
anchors = (
{
name = bottom;
position = "{335, 0}";
},
{
name = top;
position = "{335, 589}";
}
);
layerId = UUID0;
paths = (
{
closed = 1;
nodes = (
"532 290 LINE",
"329 290 LINE",
"329 221 LINE",
"457 221 LINE",
"457 92 LINE",
"417 64 OFFCURVE",
"386 53 OFFCURVE",
"321 53 CURVE SMOOTH",
"220 53 OFFCURVE",
"129 120 OFFCURVE",
"129 295 CURVE SMOOTH",
"129 450 OFFCURVE",
"226 536 OFFCURVE",
"331 536 CURVE SMOOTH",
"393 536 OFFCURVE",
"419 522 OFFCURVE",
"450 503 CURVE",
"468 426 LINE",
"537 441 LINE",
"514 547 LINE",
"464 587 OFFCURVE",
"402 604 OFFCURVE",
"330 604 CURVE SMOOTH",
"157 604 OFFCURVE",
"44 485 OFFCURVE",
"44 295 CURVE SMOOTH",
"44 85 OFFCURVE",
"166 -15 OFFCURVE",
"321 -15 CURVE SMOOTH",
"420 -15 OFFCURVE",
"462 5 OFFCURVE",
"532 54 CURVE"
);
}
);
width = 592;
},
{
anchors = (
{
name = bottom;
position = "{353, 0}";
},
{
name = top;
position = "{353, 589}";
}
);
background = {
paths = (
{
closed = 1;
nodes = (
"347 221 LINE",
"475 221 LINE",
"475 93 LINE",
"475 91 OFFCURVE",
"414 53 OFFCURVE",
"329 53 CURVE SMOOTH",
"228 53 OFFCURVE",
"147 120 OFFCURVE",
"147 295 CURVE SMOOTH",
"147 450 OFFCURVE",
"214 536 OFFCURVE",
"329 536 CURVE SMOOTH",
"401 536 OFFCURVE",
"444 521 OFFCURVE",
"466 511 CURVE",
"486 426 LINE",
"555 441 LINE",
"533 557 LINE",
"533 557 OFFCURVE",
"460 604 OFFCURVE",
"328 604 CURVE SMOOTH",
"176 604 OFFCURVE",
"62 485 OFFCURVE",
"62 295 CURVE SMOOTH",
"62 85 OFFCURVE",
"194 -15 OFFCURVE",
"329 -15 CURVE SMOOTH",
"478 -15 OFFCURVE",
"550 62 OFFCURVE",
"550 63 CURVE",
"550 290 LINE",
"347 290 LINE"
);
}
);
};
layerId = "6E1B38A8-44EA-440A-BD04-FE41D2B0BC62";
paths = (
{
closed = 1;
nodes = (
"577 308 LINE",
"326 308 LINE",
"326 208 LINE",
"454 208 LINE",
"454 113 LINE",
"421 99 OFFCURVE",
"388 89 OFFCURVE",
"347 89 CURVE SMOOTH",
"244 89 OFFCURVE",
"175 171 OFFCURVE",
"175 294 CURVE SMOOTH",
"175 422 OFFCURVE",
"259 505 OFFCURVE",
"354 505 CURVE SMOOTH",
"388 505 OFFCURVE",
"423 500 OFFCURVE",
"456 483 CURVE",
"480 379 LINE",
"585 406 LINE",
"552 550 LINE",
"502 586 OFFCURVE",
"433 610 OFFCURVE",
"351 610 CURVE SMOOTH",
"157 610 OFFCURVE",
"41 484 OFFCURVE",
"41 294 CURVE SMOOTH",
"41 104 OFFCURVE",
"166 -22 OFFCURVE",
"349 -22 CURVE SMOOTH",
"454 -22 OFFCURVE",
"514 15 OFFCURVE",
"577 60 CURVE"
);
}
);
width = 638;
}
);
leftKerningGroup = O;
rightKerningGroup = C;
unicode = 0047;
},
{
glyphname = H;
layers = (
{
anchors = (
{
name = bottom;
position = "{357, 0}";
},
{
name = center;
position = "{357, 295}";
},
{
name = top;
position = "{357, 589}";
},
{
name = topleft;
position = "{10, 589}";
}
);
layerId = UUID0;
paths = (
{
closed = 1;
nodes = (
"38 520 LINE",
"134 520 LINE",
"133 69 LINE",
"37 69 LINE",
"37 0 LINE",
"276 0 LINE",
"276 69 LINE",
"212 69 LINE",
"213 267 LINE",
"501 267 LINE",
"501 69 LINE",
"437 69 LINE",
"437 0 LINE",
"675 0 LINE",
"675 69 LINE",
"579 69 LINE",
"582 520 LINE",
"677 520 LINE",
"677 589 LINE",
"438 589 LINE",
"438 520 LINE",
"502 520 LINE",
"501 336 LINE",
"213 336 LINE",
"214 520 LINE",
"278 520 LINE",
"278 589 LINE",
"38 589 LINE"
);
}
);
width = 714;
},
{
anchors = (
{
name = bottom;
position = "{373, 0}";
},
{
name = center;
position = "{373, 295}";
},
{
name = top;
position = "{373, 589}";
},
{
name = topleft;
position = "{22, 589}";
}
);
background = {
paths = (
{
closed = 1;
nodes = (
"450 0 LINE",
"688 0 LINE",
"688 69 LINE",
"593 69 LINE",
"595 520 LINE",
"690 520 LINE",
"690 589 LINE",
"451 589 LINE",
"451 520 LINE",
"515 520 LINE",
"514 336 LINE",
"226 336 LINE",
"227 520 LINE",
"291 520 LINE",
"291 589 LINE",
"52 589 LINE",
"52 520 LINE",
"147 520 LINE",
"146 69 LINE",
"51 69 LINE",
"51 0 LINE",
"289 0 LINE",
"289 69 LINE",
"225 69 LINE",
"226 267 LINE",
"514 267 LINE",
"514 69 LINE",
"450 69 LINE"
);
}
);
};
layerId = "6E1B38A8-44EA-440A-BD04-FE41D2B0BC62";
paths = (
{
closed = 1;
nodes = (
"43 477 LINE",
"124 477 LINE",
"124 112 LINE",
"43 112 LINE",
"43 0 LINE",
"306 0 LINE",
"306 112 LINE",
"253 112 LINE",
"253 241 LINE",
"492 241 LINE",
"492 112 LINE",
"439 112 LINE",
"439 0 LINE",
"702 0 LINE",
"702 112 LINE",
"621 112 LINE",
"621 477 LINE",
"702 477 LINE",
"702 589 LINE",
"437 589 LINE",
"437 477 LINE",
"492 477 LINE",
"492 353 LINE",
"253 353 LINE",
"253 477 LINE",
"308 477 LINE",
"308 588 LINE",
"43 589 LINE"
);
}
);
width = 745;
}
);
leftKerningGroup = I;
rightKerningGroup = I;
unicode = 0048;
},
{
glyphname = Hbar;
layers = (
{
background = {
anchors = (
{
name = _center;
position = "{204, 232}";
}
);
paths = (
{
closed = 1;
nodes = (
"53 394 LINE",
"660 394 LINE",
"660 456 LINE",
"53 456 LINE"
);
}
);
};
components = (
{
name = H;
}
);
layerId = UUID0;
paths = (
{
closed = 1;
nodes = (
"50 404 LINE",
"657 404 LINE",
"657 456 LINE",
"50 456 LINE"
);
}
);
width = 714;
},
{
components = (
{
name = H;
}
);
layerId = "6E1B38A8-44EA-440A-BD04-FE41D2B0BC62";
paths = (
{
closed = 1;
nodes = (
"52 391 LINE",
"689 391 LINE",
"689 450 LINE",
"52 450 LINE"
);
}
);
width = 745;
}
);
leftKerningGroup = Hbar;
rightKerningGroup = Hbar;
unicode = 0126;
},
{
glyphname = I;
layers = (
{
anchors = (
{
name = bottom;
position = "{183, 0}";
},
{
name = ogonek;
position = "{308, 0}";
},
{
name = top;
position = "{173, 589}";
},
{
name = topleft;
position = "{10, 589}";
}
);
layerId = UUID0;
paths = (
{
closed = 1;
nodes = (
"38 520 LINE",
"134 520 LINE",
"134 69 LINE",
"37 69 LINE",
"37 0 LINE",
"308 0 LINE",
"308 69 LINE",
"213 69 LINE",
"215 520 LINE",
"308 520 LINE",
"308 589 LINE",
"38 589 LINE"
);
}
);
width = 345;
},
{
anchors = (
{
name = bottom;
position = "{203, 0}";
},
{
name = ogonek;
position = "{362, 0}";
},
{
name = top;
position = "{203, 589}";
},
{
name = topleft;
position = "{22, 589}";
}
);
background = {
paths = (
{
closed = 1;
nodes = (
"65 520 LINE",
"160 520 LINE",
"160 69 LINE",
"64 69 LINE",
"64 0 LINE",
"335 0 LINE",
"335 69 LINE",
"239 69 LINE",
"241 520 LINE",
"335 520 LINE",
"335 589 LINE",
"65 589 LINE"
);
}
);
};
layerId = "6E1B38A8-44EA-440A-BD04-FE41D2B0BC62";
paths = (
{
closed = 1;
nodes = (
"44 477 LINE",
"139 477 LINE",
"139 112 LINE",
"43 112 LINE",
"43 0 LINE",
"362 0 LINE",
"362 112 LINE",
"267 112 LINE",
"267 477 LINE",
"362 477 LINE",
"362 589 LINE",
"44 589 LINE"
);
}
);
width = 405;
}
);
leftKerningGroup = I;
rightKerningGroup = I;
unicode = 0049;
},
{
glyphname = Iacute;
layers = (
{
background = {
paths = (
{
closed = 1;
nodes = (
"125 674 LINE",
"134 638 LINE",
"386 685 LINE",
"368 758 LINE"
);
}
);
};
components = (
{
name = I;
},
{
name = acutecomb.case;
transform = "{1, 0, 0, 1, 50, 0}";
}
);
layerId = UUID0;
width = 345;
},
{
components = (
{
name = I;
},
{
name = acutecomb.case;
transform = "{1, 0, 0, 1, 60, 0}";
}
);
layerId = "6E1B38A8-44EA-440A-BD04-FE41D2B0BC62";
width = 405;
}
);
leftKerningGroup = I;
rightKerningGroup = I;
unicode = 00CD;
},
{
glyphname = Igrave;
layers = (
{
background = {
paths = (
{
closed = 1;
nodes = (
"233 661 LINE",
"225 625 LINE",
"-27 672 LINE",
"-9 745 LINE"
);
}
);
};
components = (
{
name = I;
},
{
name = gravecomb.case;
transform = "{1, 0, 0, 1, -65, 0}";
}
);
layerId = UUID0;
width = 345;
},
{
components = (
{
name = I;
},
{
name = gravecomb.case;
transform = "{1, 0, 0, 1, -66, 0}";
}
);
layerId = "6E1B38A8-44EA-440A-BD04-FE41D2B0BC62";
width = 405;
}
);
leftKerningGroup = I;
rightKerningGroup = I;
unicode = 00CC;
},
{
glyphname = J;
layers = (
{
anchors = (
{
name = bottom;
position = "{258, 0}";
},
{
name = top;
position = "{348, 589}";
}
);
layerId = UUID0;
paths = (
{
closed = 1;
nodes = (
"393 520 LINE",
"487 520 LINE",
"487 589 LINE",
"181 589 LINE",
"181 520 LINE",
"313 520 LINE",
"312 228 LINE SMOOTH",
"312 111 OFFCURVE",
"266 51 OFFCURVE",
"191 51 CURVE SMOOTH",
"169 51 OFFCURVE",
"143 56 OFFCURVE",
"114 68 CURVE",
"93 157 LINE",
"25 141 LINE",
"50 15 LINE",
"101 -5 OFFCURVE",
"148 -14 OFFCURVE",
"189 -14 CURVE SMOOTH",
"317 -14 OFFCURVE",
"393 76 OFFCURVE",
"393 236 CURVE SMOOTH"
);
}
);
width = 514;
},
{
anchors = (
{
name = bottom;
position = "{287, 0}";
},
{
name = top;
position = "{347, 589}";
}
);
background = {
paths = (
{
closed = 1;
nodes = (
"201 520 LINE",
"314 520 LINE",
"313 248 LINE SMOOTH",
"313 186 OFFCURVE",
"314 141 OFFCURVE",
"303 110 CURVE SMOOTH",
"289 68 OFFCURVE",
"242 52 OFFCURVE",
"207 53 CURVE SMOOTH",
"173 54 OFFCURVE",
"144 69 OFFCURVE",
"145 68 CURVE",
"124 157 LINE",
"55 141 LINE",
"81 25 LINE",
"82 24 OFFCURVE",
"132 -15 OFFCURVE",
"211 -15 CURVE SMOOTH",
"286 -15 OFFCURVE",
"359 19 OFFCURVE",
"380 92 CURVE SMOOTH",
"390 131 OFFCURVE",
"390 181 OFFCURVE",
"392 246 CURVE SMOOTH",
"394 520 LINE",
"488 520 LINE",
"488 589 LINE",
"201 589 LINE"
);
}
);
};
layerId = "6E1B38A8-44EA-440A-BD04-FE41D2B0BC62";
paths = (
{
closed = 1;
nodes = (
"421 477 LINE",
"504 477 LINE",
"504 589 LINE",
"170 589 LINE",
"170 477 LINE",
"292 477 LINE",
"292 217 LINE SMOOTH",
"292 139 OFFCURVE",
"262 85 OFFCURVE",
"203 85 CURVE SMOOTH",
"188 85 OFFCURVE",
"171 89 OFFCURVE",
"153 96 CURVE",
"132 198 LINE",
"22 172 LINE",
"54 26 LINE",
"96 3 OFFCURVE",
"143 -22 OFFCURVE",
"214 -22 CURVE SMOOTH",
"367 -22 OFFCURVE",
"421 78 OFFCURVE",
"421 240 CURVE SMOOTH"
);
}
);
width = 533;
}
);
leftKerningGroup = J;
rightKerningGroup = U;
unicode = 004A;
},
{
glyphname = K;
layers = (
{
anchors = (
{
name = bottom;
position = "{323, 0}";
},
{
name = top;
position = "{323, 589}";
}
);
layerId = UUID0;
paths = (
{
closed = 1;
nodes = (
"37 520 LINE",
"131 520 LINE",
"131 69 LINE",
"37 69 LINE",
"37 0 LINE",
"274 0 LINE",
"274 69 LINE",
"211 69 LINE",
"210 263 LINE",
"319 263 LINE",
"448 69 LINE",
"367 69 LINE",
"367 0 LINE",
"636 0 LINE",
"636 69 LINE",
"536 69 LINE",
"371 315 LINE",
"522 520 LINE",
"613 520 LINE",
"613 589 LINE",
"367 589 LINE",
"367 520 LINE",
"441 520 LINE",
"303 332 LINE",
"210 332 LINE",
"210 520 LINE",
"274 520 LINE",
"274 589 LINE",
"37 589 LINE"
);
}
);
width = 669;
},
{
anchors = (
{
name = bottom;
position = "{336, 0}";
},
{
name = top;
position = "{336, 589}";
}
);
background = {
paths = (
{
closed = 1;
nodes = (
"381 0 LINE",
"650 0 LINE",
"650 69 LINE",
"550 69 LINE",
"385 315 LINE",
"536 520 LINE",
"627 520 LINE",
"627 589 LINE",
"381 589 LINE",
"381 520 LINE",
"450 520 LINE",
"312 332 LINE",
"224 332 LINE",
"224 520 LINE",
"288 520 LINE",
"288 589 LINE",
"51 589 LINE",
"51 520 LINE",
"145 520 LINE",
"145 69 LINE",
"51 69 LINE",
"51 0 LINE",
"288 0 LINE",
"288 69 LINE",
"225 69 LINE",
"224 263 LINE",
"324 263 LINE",
"453 69 LINE",
"381 69 LINE"
);
}
);
};
layerId = "6E1B38A8-44EA-440A-BD04-FE41D2B0BC62";
paths = (
{
closed = 1;
nodes = (
"43 477 LINE",
"124 477 LINE",
"124 112 LINE",
"43 112 LINE",
"43 0 LINE",
"307 0 LINE",
"307 112 LINE",
"252 112 LINE",
"252 238 LINE",
"332 238 LINE",
"426 112 LINE",
"360 112 LINE",
"360 0 LINE",
"665 0 LINE",
"665 112 LINE",
"564 112 LINE",
"413 312 LINE",
"546 477 LINE",
"640 477 LINE",
"640 589 LINE",
"375 589 LINE",
"375 477 LINE",
"416 477 LINE",
"320 346 LINE",
"252 346 LINE",
"252 477 LINE",
"307 477 LINE",
"307 589 LINE",
"43 589 LINE"
);
}
);
width = 701;
}
);
leftKerningGroup = I;
rightKerningGroup = K;
unicode = 004B;
},
{
glyphname = L;
layers = (
{
anchors = (
{
name = bottom;
position = "{266, 0}";
},
{
name = center;
position = "{356, 295}";
},
{
name = top;
position = "{196, 589}";
},
{
name = topright;
position = "{401, 429}";
}
);
layerId = UUID0;
paths = (
{
closed = 1;
nodes = (
"37 520 LINE",
"152 520 LINE",
"151 69 LINE",
"37 69 LINE",
"37 0 LINE",
"471 0 LINE",
"524 153 LINE",
"458 175 LINE",
"419 69 LINE",
"230 69 LINE",
"232 520 LINE",
"345 520 LINE",
"345 589 LINE",
"37 589 LINE"
);
}
);
width = 552;
},
{
anchors = (
{
name = bottom;
position = "{278, 0}";
},
{
name = center;
position = "{278, 295}";
},
{
name = top;
position = "{218, 589}";
},
{
name = topright;
position = "{413, 454}";
}
);
background = {
paths = (
{
closed = 1;
nodes = (
"460 175 LINE",
"421 69 LINE",
"232 69 LINE",
"234 520 LINE",
"348 520 LINE",
"348 589 LINE",
"40 589 LINE",
"40 520 LINE",
"154 520 LINE",
"153 69 LINE",
"40 69 LINE",
"40 0 LINE",
"474 0 LINE",
"526 153 LINE"
);
}
);
};
layerId = "6E1B38A8-44EA-440A-BD04-FE41D2B0BC62";
paths = (
{
closed = 1;
nodes = (
"43 477 LINE",
"132 477 LINE",
"132 112 LINE",
"43 112 LINE",
"43 0 LINE",
"488 0 LINE",
"548 173 LINE",
"442 210 LINE",
"407 112 LINE",
"259 112 LINE",
"259 477 LINE",
"358 477 LINE",
"358 589 LINE",
"43 589 LINE"
);
}
);
width = 565;
}
);
leftKerningGroup = I;
rightKerningGroup = L;
unicode = 004C;
},
{
glyphname = Lslash;
layers = (
{
background = {
anchors = (
{
name = bottom;
position = "{146, 0}";
},
{
name = center;
position = "{146, 215}";
},
{
name = top;
position = "{133, 625}";
},
{
name = topright;
position = "{274, 429}";
}
);
paths = (
{
closed = 1;
nodes = (
"37 191 LINE",
"260 382 LINE",
"260 454 LINE",
"37 263 LINE"
);
},
{
closed = 1;
nodes = (
"269 0 LINE",
"269 62 LINE",
"185 62 LINE",
"185 615 LINE",
"24 652 LINE",
"7 588 LINE",
"107 566 LINE",
"107 62 LINE",
"23 62 LINE",
"23 0 LINE"
);
}
);
};
components = (
{
name = L;
}
);
layerId = UUID0;
paths = (
{
closed = 1;
nodes = (
"77 161 LINE",
"400 352 LINE",
"400 424 LINE",
"77 233 LINE"
);
}
);
width = 552;
},
{
background = {
anchors = (
{
name = bottom;
position = "{171, 0}";
},
{
name = center;
position = "{171, 227}";
},
{
name = top;
position = "{161, 636}";
},
{
name = topright;
position = "{314, 454}";
}
);
paths = (
{
closed = 1;
nodes = (
"43 172 LINE",
"321 419 LINE",
"321 520 LINE",
"43 273 LINE"
);
},
{
closed = 1;
nodes = (
"326 0 LINE",
"326 101 LINE",
"242 101 LINE",
"242 615 LINE",
"53 679 LINE",
"20 577 LINE",
"115 545 LINE",
"115 101 LINE",
"31 101 LINE",
"31 0 LINE"
);
}
);
};
components = (
{
name = L;
}
);
layerId = "6E1B38A8-44EA-440A-BD04-FE41D2B0BC62";
paths = (
{
closed = 1;
nodes = (
"73 162 LINE",
"461 359 LINE",
"461 450 LINE",
"73 253 LINE"
);
}
);
width = 565;
}
);
leftKerningGroup = Hbar;
leftMetricsKey = L;
rightKerningGroup = L;
rightMetricsKey = L;
unicode = 0141;
},
{
glyphname = M;
layers = (
{
anchors = (
{
name = bottom;
position = "{423, 0}";
},
{
name = top;
position = "{423, 589}";
}
);
background = {
paths = (
{
closed = 1;
nodes = (
"466 71 LINE",
"588 390 LINE",
"634 520 LINE",
"634 69 LINE",
"570 69 LINE",
"570 0 LINE",
"808 0 LINE",
"808 69 LINE",
"714 69 LINE",
"714 520 LINE",
"808 520 LINE",
"808 589 LINE",
"595 589 LINE",
"429 160 LINE",
"280 541 LINE",
"261 589 LINE",
"40 589 LINE",
"40 520 LINE",
"133 520 LINE",
"132 69 LINE",
"36 69 LINE",
"36 0 LINE",
"270 0 LINE",
"270 69 LINE",
"204 69 LINE",
"207 520 LINE",
"253 392 LINE",
"381 71 LINE"
);
},
{
closed = 1;
nodes = (
"466 71 LINE",
"588 390 LINE",
"634 520 LINE",
"634 69 LINE",
"570 69 LINE",
"570 0 LINE",
"808 0 LINE",
"808 69 LINE",
"714 69 LINE",
"714 520 LINE",
"808 520 LINE",
"808 589 LINE",
"595 589 LINE",
"429 160 LINE",
"261 589 LINE",
"40 589 LINE",
"40 520 LINE",
"133 520 LINE",
"132 69 LINE",
"36 69 LINE",
"36 0 LINE",
"270 0 LINE",
"270 69 LINE",
"204 69 LINE",
"207 520 LINE",
"253 392 LINE",
"381 71 LINE"
);
}
);
};
layerId = UUID0;
paths = (
{
closed = 1;
nodes = (
"40 520 LINE",
"133 520 LINE",
"132 69 LINE",
"36 69 LINE",
"36 0 LINE",
"270 0 LINE",
"270 69 LINE",
"204 69 LINE",
"207 520 LINE",
"253 392 LINE",
"381 71 LINE",
"467 71 LINE",
"589 390 LINE",
"634 520 LINE",
"634 69 LINE",
"570 69 LINE",
"570 0 LINE",
"808 0 LINE",
"808 69 LINE",
"714 69 LINE",
"714 520 LINE",
"808 520 LINE",
"808 589 LINE",
"595 589 LINE",
"429 160 LINE",
"261 589 LINE",
"40 589 LINE"
);
}
);
width = 845;
},
{
anchors = (
{
name = bottom;
position = "{441, 0}";
},
{
name = top;
position = "{441, 589}";
}
);
background = {
paths = (
{
closed = 1;
nodes = (
"480 71 LINE",
"602 390 LINE",
"646 520 LINE",
"646 69 LINE",
"582 69 LINE",
"582 0 LINE",
"821 0 LINE",
"821 69 LINE",
"726 69 LINE",
"726 520 LINE",
"821 520 LINE",
"821 589 LINE",
"608 589 LINE",
"442 160 LINE",
"274 589 LINE",
"52 589 LINE",
"52 520 LINE",
"145 520 LINE",
"144 69 LINE",
"49 69 LINE",
"49 0 LINE",
"282 0 LINE",
"282 69 LINE",
"217 69 LINE",
"219 520 LINE",
"265 392 LINE",
"393 71 LINE"
);
}
);
};
layerId = "6E1B38A8-44EA-440A-BD04-FE41D2B0BC62";
paths = (
{
closed = 1;
nodes = (
"43 477 LINE",
"124 477 LINE",
"124 112 LINE",
"43 112 LINE",
"43 0 LINE",
"310 0 LINE",
"310 112 LINE",
"244 112 LINE",
"244 493 LINE",
"282 383 LINE",
"402 71 LINE",
"486 71 LINE",
"586 367 LINE",
"625 502 LINE",
"625 112 LINE",
"561 112 LINE",
"561 0 LINE",
"835 0 LINE",
"835 112 LINE",
"754 112 LINE",
"754 477 LINE",
"835 477 LINE",
"835 589 LINE",
"549 589 LINE",
"444 247 LINE",
"323 589 LINE",
"43 589 LINE"
);
}
);
width = 878;
}
);
leftKerningGroup = I;
rightKerningGroup = I;
unicode = 004D;
},
{
glyphname = N;
layers = (
{
anchors = (
{
name = bottom;
position = "{358, 0}";
},
{
name = top;
position = "{358, 589}";
}
);
layerId = UUID0;
paths = (
{
closed = 1;
nodes = (
"38 520 LINE",
"132 520 LINE",
"133 69 LINE",
"37 69 LINE",
"37 0 LINE",
"298 0 LINE",
"298 69 LINE",
"214 69 LINE",
"212 520 LINE",
"496 0 LINE",
"594 0 LINE",
"594 520 LINE",
"691 520 LINE",
"691 589 LINE",
"430 589 LINE",
"430 520 LINE",
"514 520 LINE",
"514 122 LINE",
"259 589 LINE",
"38 589 LINE"
);
}
);
width = 718;
},
{
anchors = (
{
name = bottom;
position = "{381, 0}";
},
{
name = top;
position = "{381, 589}";
}
);
background = {
paths = (
{
closed = 1;
nodes = (
"445 520 LINE",
"529 520 LINE",
"529 122 LINE",
"273 589 LINE",
"53 589 LINE",
"53 520 LINE",
"146 520 LINE",
"147 69 LINE",
"52 69 LINE",
"52 0 LINE",
"312 0 LINE",
"312 69 LINE",
"228 69 LINE",
"226 520 LINE",
"511 0 LINE",
"609 0 LINE",
"609 520 LINE",
"705 520 LINE",
"705 589 LINE",
"445 589 LINE"
);
}
);
};
layerId = "6E1B38A8-44EA-440A-BD04-FE41D2B0BC62";
paths = (
{
closed = 1;
nodes = (
"44 477 LINE",
"126 477 LINE",
"126 112 LINE",
"43 112 LINE",
"43 0 LINE",
"322 0 LINE",
"322 112 LINE",
"238 112 LINE",
"238 478 LINE",
"479 0 LINE",
"627 0 LINE",
"627 477 LINE",
"719 477 LINE",
"719 589 LINE",
"440 589 LINE",
"440 477 LINE",
"514 477 LINE",
"514 182 LINE",
"316 589 LINE",
"44 589 LINE"
);
}
);
width = 748;
}
);
leftKerningGroup = I;
rightKerningGroup = I;
unicode = 004E;
},
{
glyphname = Eng;
layers = (
{
layerId = UUID0;
paths = (
{
closed = 1;
nodes = (
"527 -223 OFFCURVE",
"588 -143 OFFCURVE",
"594 -1 CURVE",
"594 520 LINE",
"691 520 LINE",
"691 589 LINE",
"430 589 LINE",
"430 520 LINE",
"514 520 LINE",
"514 122 LINE",
"259 589 LINE",
"38 589 LINE",
"38 520 LINE",
"132 520 LINE",
"133 69 LINE",
"37 69 LINE",
"37 0 LINE",
"298 0 LINE",
"298 69 LINE",
"214 69 LINE",
"212 520 LINE",
"513 -23 LINE",
"509 -113 OFFCURVE",
"475 -152 OFFCURVE",
"413 -152 CURVE SMOOTH",
"387 -152 OFFCURVE",
"357 -145 OFFCURVE",
"323 -133 CURVE",
"305 -195 LINE",
"350 -214 OFFCURVE",
"390 -223 OFFCURVE",
"425 -223 CURVE SMOOTH"
);
}
);
width = 718;
},
{
background = {
paths = (
{
closed = 1;
nodes = (
"514 231 LINE",
"514 -29 LINE SMOOTH",
"514 -105 OFFCURVE",
"467 -148 OFFCURVE",
"399 -148 CURVE SMOOTH",
"369 -148 OFFCURVE",
"334 -143 OFFCURVE",
"296 -128 CURVE",
"264 -217 LINE",
"318 -240 OFFCURVE",
"366 -248 OFFCURVE",
"428 -248 CURVE SMOOTH",
"552 -248 OFFCURVE",
"627 -165 OFFCURVE",
"627 -9 CURVE SMOOTH",
"627 231 LINE"
);
},
{
closed = 1;
nodes = (
"514 231 LINE",
"514 -29 LINE SMOOTH",
"514 -105 OFFCURVE",
"467 -148 OFFCURVE",
"399 -148 CURVE SMOOTH",
"369 -148 OFFCURVE",
"334 -143 OFFCURVE",
"296 -128 CURVE",
"264 -217 LINE",
"318 -240 OFFCURVE",
"366 -248 OFFCURVE",
"428 -248 CURVE SMOOTH",
"552 -248 OFFCURVE",
"627 -165 OFFCURVE",
"627 -9 CURVE SMOOTH",
"627 231 LINE"
);
}
);
};
layerId = "6E1B38A8-44EA-440A-BD04-FE41D2B0BC62";
paths = (
{
closed = 1;
nodes = (
"552 -248 OFFCURVE",
"627 -165 OFFCURVE",
"627 -9 CURVE SMOOTH",
"627 477 LINE",
"719 477 LINE",
"719 589 LINE",
"440 589 LINE",
"440 477 LINE",
"514 477 LINE",
"514 182 LINE",
"316 589 LINE",
"44 589 LINE",
"44 477 LINE",
"126 477 LINE",
"126 112 LINE",
"43 112 LINE",
"43 0 LINE",
"322 0 LINE",
"322 112 LINE",
"238 112 LINE",
"238 478 LINE",
"511 -59 LINE",
"501 -116 OFFCURVE",
"458 -148 OFFCURVE",
"399 -148 CURVE SMOOTH",
"369 -148 OFFCURVE",
"334 -143 OFFCURVE",
"296 -128 CURVE",
"264 -217 LINE",
"318 -240 OFFCURVE",
"366 -248 OFFCURVE",
"428 -248 CURVE SMOOTH"
);
}
);
width = 748;
}
);
leftKerningGroup = I;
rightKerningGroup = I;
unicode = 014A;
},
{
glyphname = O;
layers = (
{
anchors = (
{
name = bottom;
position = "{318, 0}";
},
{
name = center;
position = "{318, 295}";
},
{
name = ogonek;
position = "{432, 10}";
},
{
name = top;
position = "{318, 589}";
},
{
name = topleft;
position = "{10, 589}";
},
{
name = topright;
position = "{472, 558}";
}
);
layerId = UUID0;
paths = (
{
closed = 1;
nodes = (
"153 604 OFFCURVE",
"44 480 OFFCURVE",
"44 295 CURVE SMOOTH",
"44 109 OFFCURVE",
"154 -15 OFFCURVE",
"318 -15 CURVE SMOOTH",
"482 -15 OFFCURVE",
"592 109 OFFCURVE",
"592 295 CURVE SMOOTH",
"592 480 OFFCURVE",
"482 604 OFFCURVE",
"317 604 CURVE SMOOTH"
);
},
{
closed = 1;
nodes = (
"437 534 OFFCURVE",
"507 446 OFFCURVE",
"507 295 CURVE SMOOTH",
"507 143 OFFCURVE",
"437 55 OFFCURVE",
"318 55 CURVE SMOOTH",
"199 55 OFFCURVE",
"129 143 OFFCURVE",
"129 295 CURVE SMOOTH",
"129 446 OFFCURVE",
"199 534 OFFCURVE",
"318 534 CURVE SMOOTH"
);
}
);
width = 636;
},
{
anchors = (
{
name = bottom;
position = "{340, 0}";
},
{
name = center;
position = "{340, 295}";
},
{
name = ogonek;
position = "{484, 10}";
},
{
name = top;
position = "{340, 589}";
},
{
name = topleft;
position = "{32, 589}";
},
{
name = topright;
position = "{522, 557}";
}
);
background = {
paths = (
{
closed = 1;
nodes = (
"464 536 OFFCURVE",
"526 447 OFFCURVE",
"526 295 CURVE SMOOTH",
"526 143 OFFCURVE",
"464 53 OFFCURVE",
"337 53 CURVE SMOOTH",
"210 53 OFFCURVE",
"148 143 OFFCURVE",
"148 295 CURVE SMOOTH",
"148 447 OFFCURVE",
"210 536 OFFCURVE",
"337 536 CURVE SMOOTH"
);
},
{
closed = 1;
nodes = (
"501 -15 OFFCURVE",
"611 105 OFFCURVE",
"611 295 CURVE SMOOTH",
"611 485 OFFCURVE",
"500 604 OFFCURVE",
"336 604 CURVE SMOOTH",
"174 604 OFFCURVE",
"63 485 OFFCURVE",
"63 295 CURVE SMOOTH",
"63 105 OFFCURVE",
"175 -15 OFFCURVE",
"337 -15 CURVE SMOOTH"
);
}
);
};
layerId = "6E1B38A8-44EA-440A-BD04-FE41D2B0BC62";
paths = (
{
closed = 1;
nodes = (
"165 611 OFFCURVE",
"42 500 OFFCURVE",
"42 295 CURVE SMOOTH",
"42 90 OFFCURVE",
"166 -22 OFFCURVE",
"340 -22 CURVE SMOOTH",
"516 -22 OFFCURVE",
"638 90 OFFCURVE",
"638 295 CURVE SMOOTH",
"638 500 OFFCURVE",
"515 611 OFFCURVE",
"339 611 CURVE SMOOTH"
);
},
{
closed = 1;
nodes = (
"450 503 OFFCURVE",
"505 432 OFFCURVE",
"505 295 CURVE SMOOTH",
"505 158 OFFCURVE",
"449 86 OFFCURVE",
"340 86 CURVE SMOOTH",
"231 86 OFFCURVE",
"176 158 OFFCURVE",
"176 295 CURVE SMOOTH",
"176 432 OFFCURVE",
"231 503 OFFCURVE",
"340 503 CURVE SMOOTH"
);
}
);
width = 680;
},
{
associatedMasterId = "6E1B38A8-44EA-440A-BD04-FE41D2B0BC62";
background = {
paths = (
{
closed = 1;
nodes = (
"452 536 OFFCURVE",
"514 447 OFFCURVE",
"514 295 CURVE SMOOTH",
"514 143 OFFCURVE",
"452 53 OFFCURVE",
"325 53 CURVE SMOOTH",
"198 53 OFFCURVE",
"136 143 OFFCURVE",
"136 295 CURVE SMOOTH",
"136 447 OFFCURVE",
"198 536 OFFCURVE",
"325 536 CURVE SMOOTH"
);
},
{
closed = 1;
nodes = (
"489 -15 OFFCURVE",
"599 105 OFFCURVE",
"599 295 CURVE SMOOTH",
"599 485 OFFCURVE",
"488 604 OFFCURVE",
"324 604 CURVE SMOOTH",
"162 604 OFFCURVE",
"51 485 OFFCURVE",
"51 295 CURVE SMOOTH",
"51 105 OFFCURVE",
"163 -15 OFFCURVE",
"325 -15 CURVE SMOOTH"
);
}
);
};
layerId = "D5949E1A-6FB4-44D8-A50F-F00C365810FF";
name = "Nov 1 16, 12:51";
paths = (
{
closed = 1;
nodes = (
"153 611 OFFCURVE",
"30 500 OFFCURVE",
"30 295 CURVE SMOOTH",
"30 90 OFFCURVE",
"154 -22 OFFCURVE",
"328 -22 CURVE SMOOTH",
"504 -22 OFFCURVE",
"626 90 OFFCURVE",
"626 295 CURVE SMOOTH",
"626 500 OFFCURVE",
"503 611 OFFCURVE",
"327 611 CURVE SMOOTH"
);
},
{
closed = 1;
nodes = (
"438 503 OFFCURVE",
"493 432 OFFCURVE",
"493 295 CURVE SMOOTH",
"493 158 OFFCURVE",
"437 86 OFFCURVE",
"328 86 CURVE SMOOTH",
"219 86 OFFCURVE",
"164 158 OFFCURVE",
"164 295 CURVE SMOOTH",
"164 432 OFFCURVE",
"219 503 OFFCURVE",
"328 503 CURVE SMOOTH"
);
}
);
width = 656;
}
);
leftKerningGroup = O;
rightKerningGroup = O;
unicode = 004F;
},
{
glyphname = Oacute;
layers = (
{
background = {
paths = (
{
closed = 1;
nodes = (
"265 674 LINE",
"273 638 LINE",
"526 685 LINE",
"508 758 LINE"
);
}
);
};
components = (
{
name = O;
},
{
name = acutecomb.case;
transform = "{1, 0, 0, 1, 195, 0}";
}
);
layerId = UUID0;
width = 636;
},
{
components = (
{
name = O;
},
{
name = acutecomb.case;
transform = "{1, 0, 0, 1, 197, 0}";
}
);
layerId = "6E1B38A8-44EA-440A-BD04-FE41D2B0BC62";
width = 680;
}
);
leftKerningGroup = O;
rightKerningGroup = O;
unicode = 00D3;
},
{
glyphname = Ograve;
layers = (
{
background = {
paths = (
{
closed = 1;
nodes = (
"374 678 LINE",
"365 642 LINE",
"113 689 LINE",
"131 762 LINE"
);
}
);
};
components = (
{
name = O;
},
{
name = gravecomb.case;
transform = "{1, 0, 0, 1, 80, 0}";
}
);
layerId = UUID0;
width = 636;
},
{
components = (
{
name = O;
},
{
name = gravecomb.case;
transform = "{1, 0, 0, 1, 71, 0}";
}
);
layerId = "6E1B38A8-44EA-440A-BD04-FE41D2B0BC62";
width = 680;
}
);
leftKerningGroup = O;
rightKerningGroup = O;
unicode = 00D2;
},
{
glyphname = Oslash;
layers = (
{
anchors = (
{
name = bottom;
position = "{318, 0}";
},
{
name = top;
position = "{318, 589}";
}
);
background = {
paths = (
{
closed = 1;
nodes = (
"531 651 LINE",
"457 651 LINE",
"129 -69 LINE",
"204 -69 LINE"
);
}
);
};
components = (
{
name = O;
}
);
layerId = UUID0;
paths = (
{
closed = 1;
nodes = (
"198 -69 LINE",
"235 12 LINE",
"253 40 LINE",
"461 500 LINE",
"478 523 LINE",
"537 651 LINE",
"464 651 LINE",
"423 560 LINE",
"402 529 LINE",
"196 77 LINE",
"175 42 LINE",
"124 -69 LINE"
);
}
);
width = 636;
},
{
anchors = (
{
name = bottom;
position = "{340, 0}";
},
{
name = top;
position = "{340, 589}";
}
);
background = {
components = (
{
name = O;
}
);
};
components = (
{
name = O;
}
);
layerId = "6E1B38A8-44EA-440A-BD04-FE41D2B0BC62";
paths = (
{
closed = 1;
nodes = (
"238 -69 LINE",
"273 7 LINE",
"297 56 LINE",
"479 452 LINE",
"525 539 LINE",
"576 651 LINE",
"471 651 LINE",
"439 582 LINE",
"408 511 LINE",
"222 106 LINE",
"182 38 LINE",
"133 -69 LINE"
);
}
);
width = 680;
}
);
leftKerningGroup = O;
rightKerningGroup = O;
unicode = 00D8;
},
{
glyphname = OE;
layers = (
{
layerId = UUID0;
paths = (
{
closed = 1;
nodes = (
"784 0 LINE",
"837 154 LINE",
"771 176 LINE",
"731 69 LINE",
"498 69 LINE",
"498 270 LINE",
"684 270 LINE",
"684 339 LINE",
"499 339 LINE",
"499 520 LINE",
"711 520 LINE",
"751 413 LINE",
"817 435 LINE",
"764 589 LINE",
"346 589 LINE SMOOTH",
"167 589 OFFCURVE",
"44 527 OFFCURVE",
"44 295 CURVE SMOOTH",
"44 109 OFFCURVE",
"173 0 OFFCURVE",
"339 0 CURVE SMOOTH"
);
},
{
closed = 1;
nodes = (
"418 521 LINE",
"418 69 LINE",
"357 68 LINE SMOOTH",
"207 67 OFFCURVE",
"129 144 OFFCURVE",
"129 295 CURVE SMOOTH",
"129 493 OFFCURVE",
"213 521 OFFCURVE",
"346 521 CURVE SMOOTH"
);
}
);
width = 870;
},
{
background = {
paths = (
{
closed = 1;
nodes = (
"784 176 LINE",
"744 69 LINE",
"512 69 LINE",
"512 270 LINE",
"698 270 LINE",
"698 339 LINE",
"512 339 LINE",
"512 520 LINE",
"724 520 LINE",
"764 413 LINE",
"830 435 LINE",
"778 589 LINE",
"360 589 LINE SMOOTH",
"180 589 OFFCURVE",
"57 527 OFFCURVE",
"57 295 CURVE SMOOTH",
"57 109 OFFCURVE",
"186 0 OFFCURVE",
"352 0 CURVE SMOOTH",
"798 0 LINE",
"850 154 LINE"
);
},
{
closed = 1;
nodes = (
"431 521 LINE",
"431 69 LINE",
"370 68 LINE SMOOTH",
"220 67 OFFCURVE",
"142 144 OFFCURVE",
"142 295 CURVE SMOOTH",
"142 493 OFFCURVE",
"226 521 OFFCURVE",
"360 521 CURVE SMOOTH"
);
}
);
};
layerId = "6E1B38A8-44EA-440A-BD04-FE41D2B0BC62";
paths = (
{
closed = 1;
nodes = (
"824 0 LINE",
"884 173 LINE",
"778 210 LINE",
"743 112 LINE",
"549 112 LINE",
"549 243 LINE",
"713 243 LINE",
"713 353 LINE",
"550 353 LINE",
"550 477 LINE",
"717 477 LINE",
"753 367 LINE",
"859 403 LINE",
"797 589 LINE",
"339 589 LINE SMOOTH",
"159 589 OFFCURVE",
"42 496 OFFCURVE",
"42 301 CURVE SMOOTH",
"42 84 OFFCURVE",
"163 0 OFFCURVE",
"339 0 CURVE SMOOTH"
);
},
{
closed = 1;
nodes = (
"421 477 LINE",
"421 112 LINE",
"342 112 LINE SMOOTH",
"237 112 OFFCURVE",
"176 168 OFFCURVE",
"176 301 CURVE SMOOTH",
"176 432 OFFCURVE",
"235 477 OFFCURVE",
"342 477 CURVE SMOOTH"
);
}
);
width = 913;
}
);
leftKerningGroup = O;
rightKerningGroup = E;
unicode = 0152;
},
{
glyphname = P;
layers = (
{
anchors = (
{
name = bottom;
position = "{182, 0}";
},
{
name = top;
position = "{274, 589}";
}
);
background = {
paths = (
{
closed = 1;
nodes = (
"39 218 LINE",
"210 218 LINE",
"210 288 LINE",
"39 288 LINE"
);
}
);
};
layerId = UUID0;
paths = (
{
closed = 1;
nodes = (
"37 589 LINE",
"37 520 LINE",
"130 520 LINE",
"130 69 LINE",
"37 69 LINE",
"37 0 LINE",
"330 0 LINE",
"330 69 LINE",
"210 69 LINE",
"210 218 LINE",
"302 218 LINE SMOOTH",
"445 218 OFFCURVE",
"522 283 OFFCURVE",
"522 405 CURVE SMOOTH",
"522 525 OFFCURVE",
"445 589 OFFCURVE",
"302 589 CURVE SMOOTH"
);
},
{
closed = 1;
nodes = (
"211 288 LINE",
"211 520 LINE",
"301 520 LINE SMOOTH",
"392 520 OFFCURVE",
"437 482 OFFCURVE",
"437 404 CURVE SMOOTH",
"437 326 OFFCURVE",
"392 288 OFFCURVE",
"301 288 CURVE"
);
}
);
width = 542;
},
{
anchors = (
{
name = bottom;
position = "{195, 0}";
},
{
name = top;
position = "{288, 589}";
}
);
background = {
components = (
{
name = H;
transform = "{1, 0, 0, 1, 2, 0}";
}
);
};
layerId = "6E1B38A8-44EA-440A-BD04-FE41D2B0BC62";
paths = (
{
closed = 1;
nodes = (
"43 589 LINE",
"43 477 LINE",
"123 477 LINE",
"123 112 LINE",
"43 112 LINE",
"43 0 LINE",
"346 0 LINE",
"346 112 LINE",
"252 112 LINE",
"252 193 LINE",
"302 193 LINE SMOOTH",
"461 193 OFFCURVE",
"546 263 OFFCURVE",
"546 394 CURVE SMOOTH",
"546 521 OFFCURVE",
"461 589 OFFCURVE",
"302 589 CURVE SMOOTH"
);
},
{
closed = 1;
nodes = (
"253 292 LINE",
"253 477 LINE",
"301 477 LINE SMOOTH",
"376 477 OFFCURVE",
"413 449 OFFCURVE",
"413 391 CURVE SMOOTH",
"413 325 OFFCURVE",
"376 292 OFFCURVE",
"301 292 CURVE SMOOTH"
);
}
);
width = 566;
}
);
leftKerningGroup = I;
rightKerningGroup = P;
unicode = 0050;
},
{
glyphname = Thorn;
layers = (
{
background = {
paths = (
{
closed = 1;
nodes = (
"37 479 LINE",
"37 410 LINE",
"130 410 LINE",
"130 -41 LINE",
"37 -41 LINE",
"37 -110 LINE",
"330 -110 LINE",
"330 -41 LINE",
"210 -41 LINE",
"210 108 LINE",
"302 108 LINE SMOOTH",
"445 108 OFFCURVE",
"522 173 OFFCURVE",
"522 295 CURVE SMOOTH",
"522 415 OFFCURVE",
"445 479 OFFCURVE",
"302 479 CURVE SMOOTH"
);
},
{
closed = 1;
nodes = (
"211 178 LINE",
"211 410 LINE",
"301 410 LINE SMOOTH",
"392 410 OFFCURVE",
"437 372 OFFCURVE",
"437 294 CURVE SMOOTH",
"437 216 OFFCURVE",
"392 178 OFFCURVE",
"301 178 CURVE"
);
}
);
};
layerId = UUID0;
paths = (
{
closed = 1;
nodes = (
"330 0 LINE",
"330 69 LINE",
"210 69 LINE",
"210 138 LINE",
"340 138 LINE SMOOTH",
"440 138 OFFCURVE",
"520 196 OFFCURVE",
"520 301 CURVE SMOOTH",
"520 415 OFFCURVE",
"442 449 OFFCURVE",
"329 449 CURVE SMOOTH",
"211 449 LINE",
"211 520 LINE",
"309 520 LINE",
"309 589 LINE",
"37 589 LINE",
"37 520 LINE",
"130 520 LINE",
"130 69 LINE",
"37 69 LINE",
"37 0 LINE"
);
},
{
closed = 1;
nodes = (
"211 380 LINE",
"321 380 LINE SMOOTH",
"390 380 OFFCURVE",
"435 365 OFFCURVE",
"435 291 CURVE SMOOTH",
"435 228 OFFCURVE",
"389 208 OFFCURVE",
"323 208 CURVE SMOOTH",
"211 208 LINE"
);
}
);
width = 540;
},
{
guideLines = (
{
position = "{304, 494}";
}
);
layerId = "6E1B38A8-44EA-440A-BD04-FE41D2B0BC62";
paths = (
{
closed = 1;
nodes = (
"361 0 LINE",
"361 112 LINE",
"252 112 LINE",
"252 169 LINE",
"302 169 LINE SMOOTH",
"478 169 OFFCURVE",
"546 215 OFFCURVE",
"546 323 CURVE SMOOTH",
"546 409 OFFCURVE",
"483 470 OFFCURVE",
"302 470 CURVE SMOOTH",
"252 470 LINE",
"252 494 LINE",
"322 494 LINE",
"322 589 LINE",
"43 589 LINE",
"43 494 LINE",
"123 494 LINE",
"123 112 LINE",
"43 112 LINE",
"43 0 LINE"
);
},
{
closed = 1;
nodes = (
"253 372 LINE",
"301 372 LINE SMOOTH",
"373 372 OFFCURVE",
"413 360 OFFCURVE",
"413 323 CURVE SMOOTH",
"413 277 OFFCURVE",
"373 271 OFFCURVE",
"301 271 CURVE SMOOTH",
"253 271 LINE"
);
}
);
width = 566;
},
{
associatedMasterId = "6E1B38A8-44EA-440A-BD04-FE41D2B0BC62";
layerId = "7F42851E-5456-4155-8581-024857FF2932";
name = "Bold [650]";
paths = (
{
closed = 1;
nodes = (
"361 0 LINE",
"361 112 LINE",
"252 112 LINE",
"252 169 LINE",
"302 169 LINE SMOOTH",
"478 169 OFFCURVE",
"546 223 OFFCURVE",
"546 350 CURVE SMOOTH",
"546 459 OFFCURVE",
"483 520 OFFCURVE",
"302 520 CURVE SMOOTH",
"252 520 LINE",
"252 534 LINE",
"252 534 LINE",
"252 589 LINE",
"43 589 LINE",
"43 477 LINE",
"123 477 LINE",
"123 112 LINE",
"43 112 LINE",
"43 0 LINE"
);
},
{
closed = 1;
nodes = (
"253 409 LINE",
"301 409 LINE SMOOTH",
"373 409 OFFCURVE",
"413 399 OFFCURVE",
"413 347 CURVE SMOOTH",
"413 286 OFFCURVE",
"373 278 OFFCURVE",
"301 278 CURVE SMOOTH",
"253 278 LINE"
);
}
);
width = 566;
}
);
leftKerningGroup = I;
leftMetricsKey = H;
rightKerningGroup = P;
rightMetricsKey = P;
unicode = 00DE;
},
{
glyphname = Q;
layers = (
{
anchors = (
{
name = bottom;
position = "{318, 0}";
},
{
name = top;
position = "{318, 589}";
}
);
background = {
paths = (
{
closed = 1;
nodes = (
"445 536 OFFCURVE",
"507 447 OFFCURVE",
"507 295 CURVE SMOOTH",
"507 143 OFFCURVE",
"445 53 OFFCURVE",
"318 53 CURVE SMOOTH",
"191 53 OFFCURVE",
"129 143 OFFCURVE",
"129 295 CURVE SMOOTH",
"129 447 OFFCURVE",
"191 536 OFFCURVE",
"318 536 CURVE SMOOTH"
);
},
{
closed = 1;
nodes = (
"482 -15 OFFCURVE",
"592 105 OFFCURVE",
"592 295 CURVE SMOOTH",
"592 485 OFFCURVE",
"481 604 OFFCURVE",
"317 604 CURVE SMOOTH",
"155 604 OFFCURVE",
"44 485 OFFCURVE",
"44 295 CURVE SMOOTH",
"44 105 OFFCURVE",
"156 -15 OFFCURVE",
"318 -15 CURVE SMOOTH"
);
}
);
};
layerId = UUID0;
paths = (
{
closed = 1;
nodes = (
"593 -79 LINE",
"646 -13 LINE",
"512 66 LINE",
"563 120 OFFCURVE",
"592 198 OFFCURVE",
"592 295 CURVE SMOOTH",
"592 485 OFFCURVE",
"481 604 OFFCURVE",
"317 604 CURVE SMOOTH",
"155 604 OFFCURVE",
"44 485 OFFCURVE",
"44 295 CURVE SMOOTH",
"44 105 OFFCURVE",
"156 -15 OFFCURVE",
"318 -15 CURVE SMOOTH",
"375 -15 OFFCURVE",
"426 0 OFFCURVE",
"468 27 CURVE"
);
},
{
closed = 1;
nodes = (
"445 536 OFFCURVE",
"507 447 OFFCURVE",
"507 295 CURVE SMOOTH",
"507 143 OFFCURVE",
"445 53 OFFCURVE",
"318 53 CURVE SMOOTH",
"191 53 OFFCURVE",
"129 143 OFFCURVE",
"129 295 CURVE SMOOTH",
"129 447 OFFCURVE",
"191 536 OFFCURVE",
"318 536 CURVE SMOOTH"
);
}
);
width = 663;
},
{
anchors = (
{
name = bottom;
position = "{359, 0}";
},
{
name = top;
position = "{359, 589}";
}
);
background = {
paths = (
{
closed = 1;
nodes = (
"394 -15 OFFCURVE",
"445 0 OFFCURVE",
"487 27 CURVE",
"612 -79 LINE",
"665 -13 LINE",
"532 66 LINE",
"582 120 OFFCURVE",
"611 198 OFFCURVE",
"611 295 CURVE SMOOTH",
"611 485 OFFCURVE",
"500 604 OFFCURVE",
"336 604 CURVE SMOOTH",
"174 604 OFFCURVE",
"63 485 OFFCURVE",
"63 295 CURVE SMOOTH",
"63 105 OFFCURVE",
"175 -15 OFFCURVE",
"337 -15 CURVE SMOOTH"
);
},
{
closed = 1;
nodes = (
"464 536 OFFCURVE",
"526 447 OFFCURVE",
"526 295 CURVE SMOOTH",
"526 143 OFFCURVE",
"464 53 OFFCURVE",
"337 53 CURVE SMOOTH",
"210 53 OFFCURVE",
"148 143 OFFCURVE",
"148 295 CURVE SMOOTH",
"148 447 OFFCURVE",
"210 536 OFFCURVE",
"337 536 CURVE SMOOTH"
);
}
);
};
layerId = "6E1B38A8-44EA-440A-BD04-FE41D2B0BC62";
paths = (
{
closed = 1;
nodes = (
"595 -98 LINE",
"676 2 LINE",
"563 68 LINE",
"611 122 OFFCURVE",
"638 198 OFFCURVE",
"638 295 CURVE SMOOTH",
"638 500 OFFCURVE",
"515 611 OFFCURVE",
"339 611 CURVE SMOOTH",
"165 611 OFFCURVE",
"42 500 OFFCURVE",
"42 295 CURVE SMOOTH",
"42 90 OFFCURVE",
"166 -22 OFFCURVE",
"340 -22 CURVE SMOOTH",
"389 -22 OFFCURVE",
"434 -13 OFFCURVE",
"473 4 CURVE"
);
},
{
closed = 1;
nodes = (
"450 503 OFFCURVE",
"505 432 OFFCURVE",
"505 295 CURVE SMOOTH",
"505 158 OFFCURVE",
"449 86 OFFCURVE",
"340 86 CURVE SMOOTH",
"231 86 OFFCURVE",
"176 158 OFFCURVE",
"176 295 CURVE SMOOTH",
"176 432 OFFCURVE",
"231 503 OFFCURVE",
"340 503 CURVE SMOOTH"
);
}
);
width = 701;
}
);
leftKerningGroup = O;
rightKerningGroup = O;
unicode = 0051;
},
{
glyphname = R;
layers = (
{
anchors = (
{
name = bottom;
position = "{307, 0}";
},
{
name = top;
position = "{277, 589}";
}
);
background = {
paths = (
{
closed = 1;
nodes = (
"587 69 LINE",
"496 69 LINE",
"397 241 LINE",
"470 262 OFFCURVE",
"518 319 OFFCURVE",
"518 405 CURVE SMOOTH",
"518 535 OFFCURVE",
"465 589 OFFCURVE",
"302 589 CURVE SMOOTH",
"37 589 LINE",
"37 520 LINE",
"130 520 LINE",
"130 69 LINE",
"37 69 LINE",
"37 0 LINE",
"274 0 LINE",
"274 69 LINE",
"210 69 LINE",
"210 231 LINE",
"312 231 LINE",
"436 5 LINE",
"438 0 LINE",
"587 0 LINE"
);
},
{
closed = 1;
nodes = (
"301 520 LINE",
"384 520 OFFCURVE",
"433 511 OFFCURVE",
"433 404 CURVE SMOOTH",
"433 314 OFFCURVE",
"357 301 OFFCURVE",
"304 301 CURVE SMOOTH",
"212 301 LINE",
"211 520 LINE"
);
},
{
closed = 1;
nodes = (
"587 69 LINE",
"496 69 LINE",
"397 241 LINE",
"470 262 OFFCURVE",
"518 319 OFFCURVE",
"518 405 CURVE SMOOTH",
"518 535 OFFCURVE",
"465 589 OFFCURVE",
"302 589 CURVE SMOOTH",
"37 589 LINE",
"37 520 LINE",
"130 520 LINE",
"130 69 LINE",
"37 69 LINE",
"37 0 LINE",
"274 0 LINE",
"274 69 LINE",
"210 69 LINE",
"210 231 LINE",
"312 231 LINE",
"438 0 LINE",
"587 0 LINE"
);
},
{
closed = 1;
nodes = (
"433 314 OFFCURVE",
"357 301 OFFCURVE",
"304 301 CURVE SMOOTH",
"212 301 LINE",
"211 520 LINE",
"301 520 LINE SMOOTH",
"387 520 OFFCURVE",
"433 509 OFFCURVE",
"433 404 CURVE SMOOTH"
);
}
);
};
layerId = UUID0;
paths = (
{
closed = 1;
nodes = (
"274 0 LINE",
"274 69 LINE",
"211 69 LINE",
"211 230 LINE",
"302 230 LINE SMOOTH",
"463 230 OFFCURVE",
"519 294 OFFCURVE",
"519 411 CURVE SMOOTH",
"519 528 OFFCURVE",
"463 589 OFFCURVE",
"302 589 CURVE SMOOTH",
"37 589 LINE",
"37 520 LINE",
"131 520 LINE",
"131 69 LINE",
"37 69 LINE",
"37 0 LINE"
);
},
{
closed = 1;
nodes = (
"212 520 LINE",
"302 520 LINE SMOOTH",
"387 520 OFFCURVE",
"434 502 OFFCURVE",
"434 410 CURVE SMOOTH",
"434 317 OFFCURVE",
"387 301 OFFCURVE",
"302 301 CURVE SMOOTH",
"212 301 LINE"
);
},
{
closed = 1;
nodes = (
"587 0 LINE",
"587 69 LINE",
"496 69 LINE",
"394 245 LINE",
"309 235 LINE",
"438 0 LINE"
);
}
);
width = 614;
},
{
anchors = (
{
name = bottom;
position = "{317, 0}";
},
{
name = top;
position = "{277, 589}";
}
);
background = {
paths = (
{
closed = 1;
nodes = (
"225 301 LINE",
"225 520 LINE",
"315 520 LINE SMOOTH",
"400 520 OFFCURVE",
"447 502 OFFCURVE",
"447 410 CURVE SMOOTH",
"447 317 OFFCURVE",
"400 301 OFFCURVE",
"315 301 CURVE SMOOTH"
);
},
{
closed = 1;
nodes = (
"316 230 LINE",
"476 230 OFFCURVE",
"532 294 OFFCURVE",
"532 411 CURVE SMOOTH",
"532 528 OFFCURVE",
"476 589 OFFCURVE",
"316 589 CURVE SMOOTH",
"51 589 LINE",
"51 520 LINE",
"144 520 LINE",
"144 69 LINE",
"51 69 LINE",
"51 0 LINE",
"287 0 LINE",
"287 69 LINE",
"224 69 LINE",
"224 230 LINE"
);
},
{
closed = 1;
nodes = (
"322 235 LINE",
"451 0 LINE",
"601 0 LINE",
"601 69 LINE",
"509 69 LINE",
"408 245 LINE"
);
}
);
};
layerId = "6E1B38A8-44EA-440A-BD04-FE41D2B0BC62";
paths = (
{
closed = 1;
nodes = (
"300 0 LINE",
"300 112 LINE",
"252 112 LINE",
"252 192 LINE",
"337 192 LINE",
"475 192 OFFCURVE",
"546 256 OFFCURVE",
"546 390 CURVE SMOOTH",
"546 510 OFFCURVE",
"497 589 OFFCURVE",
"307 589 CURVE SMOOTH",
"43 589 LINE",
"43 477 LINE",
"123 477 LINE",
"123 112 LINE",
"43 112 LINE",
"43 0 LINE"
);
},
{
closed = 1;
nodes = (
"253 477 LINE",
"301 477 LINE SMOOTH",
"373 477 OFFCURVE",
"413 458 OFFCURVE",
"413 390 CURVE SMOOTH",
"413 324 OFFCURVE",
"384 303 OFFCURVE",
"301 303 CURVE SMOOTH",
"253 303 LINE"
);
},
{
closed = 1;
nodes = (
"604 0 LINE",
"604 112 LINE",
"500 112 LINE",
"429 227 LINE",
"313 206 LINE",
"425 0 LINE"
);
}
);
width = 633;
}
);
leftKerningGroup = I;
rightKerningGroup = R;
unicode = 0052;
},
{
glyphname = S;
layers = (
{
anchors = (
{
name = bottom;
position = "{268, 0}";
},
{
name = top;
position = "{268, 589}";
}
);
background = {
paths = (
{
closed = 1;
nodes = (
"411 81 OFFCURVE",
"343 53 OFFCURVE",
"260 53 CURVE SMOOTH",
"217 53 OFFCURVE",
"162 67 OFFCURVE",
"122 81 CURVE",
"109 152 LINE",
"43 141 LINE",
"62 30 LINE",
"68 28 OFFCURVE",
"165 -15 OFFCURVE",
"273 -15 CURVE SMOOTH",
"401 -15 OFFCURVE",
"491 38 OFFCURVE",
"491 172 CURVE SMOOTH",
"491 248 OFFCURVE",
"458 318 OFFCURVE",
"325 338 CURVE SMOOTH",
"234 352 LINE SMOOTH",
"175 361 OFFCURVE",
"137 391 OFFCURVE",
"137 447 CURVE SMOOTH",
"137 505 OFFCURVE",
"190 537 OFFCURVE",
"269 537 CURVE SMOOTH",
"326 537 OFFCURVE",
"369 526 OFFCURVE",
"396 516 CURVE",
"409 436 LINE",
"475 443 LINE",
"458 565 LINE",
"451 567 OFFCURVE",
"387 604 OFFCURVE",
"268 604 CURVE SMOOTH",
"124 604 OFFCURVE",
"57 529 OFFCURVE",
"57 445 CURVE SMOOTH",
"57 355 OFFCURVE",
"109 281 OFFCURVE",
"234 265 CURVE",
"310 255 LINE SMOOTH",
"398 243 OFFCURVE",
"411 204 OFFCURVE",
"411 161 CURVE SMOOTH"
);
}
);
};
layerId = UUID0;
paths = (
{
closed = 1;
nodes = (
"391 -15 OFFCURVE",
"491 48 OFFCURVE",
"491 172 CURVE SMOOTH",
"491 259 OFFCURVE",
"438 321 OFFCURVE",
"325 338 CURVE SMOOTH",
"234 352 LINE SMOOTH",
"169 361 OFFCURVE",
"130 391 OFFCURVE",
"130 447 CURVE SMOOTH",
"130 505 OFFCURVE",
"184 537 OFFCURVE",
"269 537 CURVE SMOOTH",
"326 537 OFFCURVE",
"369 530 OFFCURVE",
"396 520 CURVE",
"409 440 LINE",
"475 447 LINE",
"458 571 LINE",
"391 596 OFFCURVE",
"346 604 OFFCURVE",
"268 604 CURVE SMOOTH",
"124 604 OFFCURVE",
"57 535 OFFCURVE",
"57 445 CURVE SMOOTH",
"57 357 OFFCURVE",
"119 295 OFFCURVE",
"234 278 CURVE SMOOTH",
"310 267 LINE SMOOTH",
"388 256 OFFCURVE",
"411 214 OFFCURVE",
"411 161 CURVE SMOOTH",
"411 81 OFFCURVE",
"345 53 OFFCURVE",
"272 53 CURVE SMOOTH",
"203 53 OFFCURVE",
"163 64 OFFCURVE",
"123 77 CURVE",
"109 152 LINE",
"43 146 LINE",
"62 24 LINE",
"108 6 OFFCURVE",
"178 -15 OFFCURVE",
"273 -15 CURVE SMOOTH"
);
}
);
width = 536;
},
{
anchors = (
{
name = bottom;
position = "{284, 0}";
},
{
name = top;
position = "{284, 589}";
}
);
background = {
paths = (
{
closed = 1;
nodes = (
"420 81 OFFCURVE",
"352 53 OFFCURVE",
"269 53 CURVE SMOOTH",
"210 53 OFFCURVE",
"173 64 OFFCURVE",
"132 77 CURVE",
"118 152 LINE",
"52 146 LINE",
"71 24 LINE",
"117 6 OFFCURVE",
"187 -15 OFFCURVE",
"282 -15 CURVE SMOOTH",
"410 -15 OFFCURVE",
"500 38 OFFCURVE",
"500 172 CURVE SMOOTH",
"500 259 OFFCURVE",
"467 318 OFFCURVE",
"334 338 CURVE SMOOTH",
"243 352 LINE SMOOTH",
"184 361 OFFCURVE",
"146 391 OFFCURVE",
"146 447 CURVE SMOOTH",
"146 505 OFFCURVE",
"199 537 OFFCURVE",
"278 537 CURVE SMOOTH",
"335 537 OFFCURVE",
"378 530 OFFCURVE",
"405 520 CURVE",
"418 440 LINE",
"484 447 LINE",
"467 571 LINE",
"452 579 OFFCURVE",
"375 604 OFFCURVE",
"277 604 CURVE SMOOTH",
"133 604 OFFCURVE",
"66 535 OFFCURVE",
"66 445 CURVE SMOOTH",
"66 347 OFFCURVE",
"118 285 OFFCURVE",
"243 269 CURVE SMOOTH",
"319 259 LINE SMOOTH",
"407 247 OFFCURVE",
"420 204 OFFCURVE",
"420 161 CURVE SMOOTH"
);
}
);
};
layerId = "6E1B38A8-44EA-440A-BD04-FE41D2B0BC62";
paths = (
{
closed = 1;
nodes = (
"387 -22 OFFCURVE",
"528 12 OFFCURVE",
"528 177 CURVE SMOOTH",
"528 271 OFFCURVE",
"478 330 OFFCURVE",
"344 350 CURVE SMOOTH",
"275 362 LINE SMOOTH",
"196 376 OFFCURVE",
"170 398 OFFCURVE",
"170 442 CURVE SMOOTH",
"170 483 OFFCURVE",
"215 512 OFFCURVE",
"291 512 CURVE SMOOTH",
"319 512 OFFCURVE",
"348 507 OFFCURVE",
"376 498 CURVE",
"389 405 LINE",
"502 417 LINE",
"482 572 LINE",
"425 598 OFFCURVE",
"359 611 OFFCURVE",
"296 611 CURVE SMOOTH",
"169 611 OFFCURVE",
"54 555 OFFCURVE",
"54 431 CURVE SMOOTH",
"54 333 OFFCURVE",
"122 276 OFFCURVE",
"243 254 CURVE SMOOTH",
"314 241 LINE SMOOTH",
"398 226 OFFCURVE",
"415 198 OFFCURVE",
"415 161 CURVE SMOOTH",
"415 106 OFFCURVE",
"351 80 OFFCURVE",
"275 80 CURVE SMOOTH",
"237 80 OFFCURVE",
"196 86 OFFCURVE",
"158 99 CURVE",
"148 171 LINE",
"44 158 LINE",
"62 16 LINE",
"115 -5 OFFCURVE",
"185 -22 OFFCURVE",
"285 -22 CURVE SMOOTH"
);
}
);
width = 568;
}
);
leftKerningGroup = S;
rightKerningGroup = S;
unicode = 0053;
},
{
glyphname = Schwa;
layers = (
{
anchors = (
{
name = bottom;
position = "{303, 0}";
},
{
name = top;
position = "{303, 589}";
}
);
background = {
anchors = (
{
name = bottom;
position = "{281, 0}";
},
{
name = center;
position = "{281, 295}";
},
{
name = ogonek;
position = "{542, 10}";
},
{
name = top;
position = "{281, 589}";
},
{
name = topleft;
position = "{-27, 589}";
},
{
name = topright;
position = "{588, 589}";
}
);
guideLines = (
{
position = "{513, 295}";
}
);
paths = (
{
closed = 1;
nodes = (
"470 295 LINE",
"470 143 OFFCURVE",
"400 55 OFFCURVE",
"281 55 CURVE SMOOTH",
"162 55 OFFCURVE",
"92 143 OFFCURVE",
"92 295 CURVE",
"7 295 LINE",
"7 109 OFFCURVE",
"117 -15 OFFCURVE",
"281 -15 CURVE SMOOTH",
"445 -15 OFFCURVE",
"555 109 OFFCURVE",
"555 295 CURVE"
);
}
);
};
layerId = UUID0;
paths = (
{
closed = 1;
nodes = (
"121 603 OFFCURVE",
"69 558 OFFCURVE",
"68 557 CURVE",
"46 441 LINE",
"115 426 LINE",
"134 510 LINE",
"157 521 OFFCURVE",
"204 536 OFFCURVE",
"272 536 CURVE SMOOTH",
"395 536 OFFCURVE",
"458 461 OFFCURVE",
"469 321 CURVE",
"23 321 LINE",
"23 285 LINE SMOOTH",
"23 105 OFFCURVE",
"129 -15 OFFCURVE",
"281 -15 CURVE SMOOTH",
"445 -15 OFFCURVE",
"555 109 OFFCURVE",
"555 295 CURVE SMOOTH",
"556 483 OFFCURVE",
"445 605 OFFCURVE",
"273 604 CURVE SMOOTH"
);
},
{
closed = 1;
nodes = (
"177 55 OFFCURVE",
"103 126 OFFCURVE",
"103 252 CURVE",
"468 252 LINE",
"468 127 OFFCURVE",
"388 55 OFFCURVE",
"281 55 CURVE SMOOTH"
);
}
);
width = 605;
},
{
anchors = (
{
name = bottom;
position = "{314, 0}";
},
{
name = top;
position = "{314, 589}";
}
);
background = {
components = (
{
name = O;
transform = "{1, 0, 0, 1, -46, 0}";
}
);
guideLines = (
{
position = "{513, 295}";
}
);
};
guideLines = (
{
position = "{226, 353}";
},
{
angle = 90;
position = "{30, 374}";
}
);
layerId = "6E1B38A8-44EA-440A-BD04-FE41D2B0BC62";
paths = (
{
closed = 1;
nodes = (
"186 611 OFFCURVE",
"122 589 OFFCURVE",
"72 558 CURVE",
"47 427 LINE",
"156 403 LINE",
"174 487 LINE",
"202 498 OFFCURVE",
"235 503 OFFCURVE",
"269 503 CURVE SMOOTH",
"377 503 OFFCURVE",
"443 443 OFFCURVE",
"453 323 CURVE",
"30 323 LINE",
"30 271 LINE SMOOTH",
"30 81 OFFCURVE",
"145 -22 OFFCURVE",
"298 -22 CURVE SMOOTH",
"462 -22 OFFCURVE",
"578 91 OFFCURVE",
"578 296 CURVE SMOOTH",
"578 495 OFFCURVE",
"455 611 OFFCURVE",
"270 611 CURVE SMOOTH"
);
},
{
closed = 1;
nodes = (
"214 86 OFFCURVE",
"154 126 OFFCURVE",
"154 231 CURVE",
"450 231 LINE",
"450 136 OFFCURVE",
"381 86 OFFCURVE",
"295 86 CURVE SMOOTH"
);
}
);
width = 627;
}
);
leftKerningGroup = O;
rightKerningGroup = O;
unicode = 018F;
},
{
glyphname = T;
layers = (
{
anchors = (
{
name = bottom;
position = "{294, 0}";
},
{
name = center;
position = "{294, 295}";
},
{
name = top;
position = "{294, 589}";
}
);
layerId = UUID0;
paths = (
{
closed = 1;
nodes = (
"36 425 LINE",
"112 425 LINE",
"112 520 LINE",
"253 520 LINE",
"252 69 LINE",
"157 69 LINE",
"157 0 LINE",
"427 0 LINE",
"427 69 LINE",
"332 69 LINE",
"334 520 LINE",
"475 520 LINE",
"475 425 LINE",
"551 425 LINE",
"551 589 LINE",
"36 589 LINE"
);
}
);
width = 587;
},
{
anchors = (
{
name = bottom;
position = "{298, 0}";
},
{
name = center;
position = "{298, 295}";
},
{
name = top;
position = "{298, 589}";
}
);
background = {
paths = (
{
closed = 1;
nodes = (
"552 425 LINE",
"552 589 LINE",
"37 589 LINE",
"37 425 LINE",
"113 425 LINE",
"113 520 LINE",
"254 520 LINE",
"253 69 LINE",
"158 69 LINE",
"158 0 LINE",
"428 0 LINE",
"428 69 LINE",
"333 69 LINE",
"335 520 LINE",
"476 520 LINE",
"476 425 LINE"
);
}
);
};
layerId = "6E1B38A8-44EA-440A-BD04-FE41D2B0BC62";
paths = (
{
closed = 1;
nodes = (
"28 376 LINE",
"140 376 LINE",
"140 477 LINE",
"232 477 LINE",
"232 112 LINE",
"150 112 LINE",
"150 0 LINE",
"443 0 LINE",
"443 112 LINE",
"362 112 LINE",
"362 477 LINE",
"455 477 LINE",
"455 376 LINE",
"567 376 LINE",
"567 589 LINE",
"28 589 LINE"
);
}
);
width = 605;
}
);
leftKerningGroup = T;
rightKerningGroup = T;
unicode = 0054;
},
{
glyphname = U;
layers = (
{
anchors = (
{
name = bottom;
position = "{334, 0}";
},
{
name = ogonek;
position = "{444, 10}";
},
{
name = top;
position = "{339, 589}";
},
{
name = topright;
position = "{556, 589}";
}
);
layerId = UUID0;
paths = (
{
closed = 1;
nodes = (
"555 520 LINE",
"651 520 LINE",
"651 589 LINE",
"411 589 LINE",
"411 520 LINE",
"475 520 LINE",
"475 198 LINE SMOOTH",
"475 99 OFFCURVE",
"419 53 OFFCURVE",
"334 53 CURVE SMOOTH",
"255 53 OFFCURVE",
"203 95 OFFCURVE",
"203 188 CURVE SMOOTH",
"203 520 LINE",
"267 520 LINE",
"267 589 LINE",
"27 589 LINE",
"27 520 LINE",
"123 520 LINE",
"123 215 LINE SMOOTH",
"123 77 OFFCURVE",
"187 -15 OFFCURVE",
"334 -15 CURVE SMOOTH",
"487 -15 OFFCURVE",
"555 77 OFFCURVE",
"555 215 CURVE SMOOTH"
);
}
);
width = 678;
},
{
anchors = (
{
name = bottom;
position = "{336, 0}";
},
{
name = ogonek;
position = "{481, 10}";
},
{
name = top;
position = "{346, 589}";
},
{
name = topright;
position = "{583, 589}";
}
);
background = {
paths = (
{
closed = 1;
nodes = (
"239 53 OFFCURVE",
"207 113 OFFCURVE",
"207 228 CURVE SMOOTH",
"207 520 LINE",
"271 520 LINE",
"271 589 LINE",
"31 589 LINE",
"31 520 LINE",
"127 520 LINE",
"127 235 LINE SMOOTH",
"127 27 OFFCURVE",
"235 -15 OFFCURVE",
"338 -15 CURVE SMOOTH",
"445 -15 OFFCURVE",
"559 27 OFFCURVE",
"559 235 CURVE SMOOTH",
"559 520 LINE",
"655 520 LINE",
"655 589 LINE",
"415 589 LINE",
"415 520 LINE",
"479 520 LINE",
"479 238 LINE SMOOTH",
"479 123 OFFCURVE",
"445 53 OFFCURVE",
"338 53 CURVE SMOOTH"
);
}
);
};
layerId = "6E1B38A8-44EA-440A-BD04-FE41D2B0BC62";
paths = (
{
closed = 1;
nodes = (
"581 477 LINE",
"663 477 LINE",
"663 589 LINE",
"397 589 LINE",
"397 477 LINE",
"452 477 LINE",
"452 205 LINE SMOOTH",
"452 119 OFFCURVE",
"416 84 OFFCURVE",
"347 84 CURVE SMOOTH",
"276 84 OFFCURVE",
"239 115 OFFCURVE",
"239 195 CURVE SMOOTH",
"239 477 LINE",
"294 477 LINE",
"294 589 LINE",
"29 589 LINE",
"29 477 LINE",
"110 477 LINE",
"110 212 LINE SMOOTH",
"110 58 OFFCURVE",
"191 -22 OFFCURVE",
"347 -22 CURVE SMOOTH",
"501 -22 OFFCURVE",
"581 58 OFFCURVE",
"581 212 CURVE SMOOTH"
);
}
);
width = 692;
}
);
leftKerningGroup = U;
rightKerningGroup = U;
unicode = 0055;
},
{
glyphname = Uacute;
layers = (
{
background = {
paths = (
{
closed = 1;
nodes = (
"299 674 LINE",
"308 638 LINE",
"560 685 LINE",
"542 758 LINE"
);
}
);
};
components = (
{
name = U;
},
{
name = acutecomb.case;
transform = "{1, 0, 0, 1, 216, 0}";
}
);
layerId = UUID0;
width = 678;
},
{
components = (
{
name = U;
},
{
name = acutecomb.case;
transform = "{1, 0, 0, 1, 203, 0}";
}
);
layerId = "6E1B38A8-44EA-440A-BD04-FE41D2B0BC62";
width = 692;
}
);
leftKerningGroup = U;
rightKerningGroup = U;
unicode = 00DA;
},
{
glyphname = Ugrave;
layers = (
{
background = {
paths = (
{
closed = 1;
nodes = (
"350 678 LINE",
"341 642 LINE",
"89 689 LINE",
"107 762 LINE"
);
}
);
};
components = (
{
name = U;
},
{
name = gravecomb.case;
transform = "{1, 0, 0, 1, 101, 0}";
}
);
layerId = UUID0;
width = 678;
},
{
components = (
{
name = U;
},
{
name = gravecomb.case;
transform = "{1, 0, 0, 1, 77, 0}";
}
);
layerId = "6E1B38A8-44EA-440A-BD04-FE41D2B0BC62";
width = 692;
}
);
leftKerningGroup = U;
rightKerningGroup = U;
unicode = 00D9;
},
{
glyphname = Uhorn;
layers = (
{
anchors = (
{
name = bottom;
position = "{343, 0}";
},
{
name = top;
position = "{333, 589}";
}
);
guideLines = (
{
angle = 180;
position = "{443, 520}";
}
);
layerId = UUID0;
paths = (
{
closed = 1;
nodes = (
"555 589 LINE",
"411 589 LINE",
"411 520 LINE",
"475 520 LINE",
"475 198 LINE SMOOTH",
"475 99 OFFCURVE",
"419 53 OFFCURVE",
"334 53 CURVE SMOOTH",
"255 53 OFFCURVE",
"203 95 OFFCURVE",
"203 188 CURVE SMOOTH",
"203 520 LINE",
"267 520 LINE",
"267 589 LINE",
"27 589 LINE",
"27 520 LINE",
"123 520 LINE",
"123 215 LINE SMOOTH",
"123 77 OFFCURVE",
"187 -15 OFFCURVE",
"334 -15 CURVE SMOOTH",
"487 -15 OFFCURVE",
"555 77 OFFCURVE",
"555 215 CURVE"
);
},
{
closed = 1;
nodes = (
"641 520 OFFCURVE",
"686 568 OFFCURVE",
"686 668 CURVE",
"624 668 LINE",
"624 616 OFFCURVE",
"600 589 OFFCURVE",
"555 589 CURVE",
"555 520 LINE"
);
}
);
width = 686;
},
{
anchors = (
{
name = bottom;
position = "{376, 0}";
},
{
name = top;
position = "{356, 589}";
}
);
guideLines = (
{
angle = 180;
position = "{425, 477}";
}
);
layerId = "6E1B38A8-44EA-440A-BD04-FE41D2B0BC62";
paths = (
{
closed = 1;
nodes = (
"581 589 LINE",
"397 589 LINE",
"397 477 LINE",
"452 477 LINE",
"452 205 LINE SMOOTH",
"452 119 OFFCURVE",
"416 84 OFFCURVE",
"347 84 CURVE SMOOTH",
"276 84 OFFCURVE",
"239 115 OFFCURVE",
"239 195 CURVE SMOOTH",
"239 477 LINE",
"294 477 LINE",
"294 589 LINE",
"29 589 LINE",
"29 477 LINE",
"110 477 LINE",
"110 212 LINE SMOOTH",
"110 58 OFFCURVE",
"191 -22 OFFCURVE",
"347 -22 CURVE SMOOTH",
"501 -22 OFFCURVE",
"581 58 OFFCURVE",
"581 212 CURVE"
);
},
{
closed = 1;
nodes = (
"693 477 OFFCURVE",
"752 543 OFFCURVE",
"752 668 CURVE",
"650 668 LINE",
"650 616 OFFCURVE",
"626 589 OFFCURVE",
"581 589 CURVE",
"581 477 LINE"
);
}
);
width = 752;
}
);
leftKerningGroup = U;
leftMetricsKey = U;
rightKerningGroup = Uhorn;
unicode = 01AF;
},
{
glyphname = V;
layers = (
{
anchors = (
{
name = bottom;
position = "{332, 0}";
},
{
name = top;
position = "{332, 589}";
}
);
background = {
paths = (
{
closed = 1;
nodes = (
"164 334 OFFCURVE",
"182 316 OFFCURVE",
"204 316 CURVE SMOOTH",
"226 316 OFFCURVE",
"244 334 OFFCURVE",
"244 356 CURVE SMOOTH",
"244 378 OFFCURVE",
"226 396 OFFCURVE",
"204 396 CURVE SMOOTH",
"182 396 OFFCURVE",
"164 378 OFFCURVE",
"164 356 CURVE SMOOTH"
);
},
{
closed = 1;
nodes = (
"432 334 OFFCURVE",
"450 316 OFFCURVE",
"472 316 CURVE SMOOTH",
"494 316 OFFCURVE",
"512 334 OFFCURVE",
"512 356 CURVE SMOOTH",
"512 378 OFFCURVE",
"494 396 OFFCURVE",
"472 396 CURVE SMOOTH",
"450 396 OFFCURVE",
"432 378 OFFCURVE",
"432 356 CURVE SMOOTH"
);
},
{
closed = 1;
nodes = (
"4 520 LINE",
"99 520 LINE",
"295 0 LINE",
"380 0 LINE",
"556 520 LINE",
"651 520 LINE",
"651 589 LINE",
"423 589 LINE",
"423 520 LINE",
"487 520 LINE",
"388 238 LINE",
"341 89 LINE",
"288 246 LINE",
"185 520 LINE",
"249 520 LINE",
"249 589 LINE",
"4 589 LINE"
);
}
);
};
layerId = UUID0;
paths = (
{
closed = 1;
nodes = (
"4 520 LINE",
"99 520 LINE",
"295 0 LINE",
"385 0 LINE",
"562 520 LINE",
"656 520 LINE",
"656 589 LINE",
"423 589 LINE",
"423 520 LINE",
"487 520 LINE",
"388 238 LINE",
"341 89 LINE",
"288 246 LINE",
"185 520 LINE",
"249 520 LINE",
"249 589 LINE",
"4 589 LINE"
);
}
);
width = 660;
},
{
anchors = (
{
name = bottom;
position = "{335, 0}";
},
{
name = top;
position = "{335, 589}";
}
);
background = {
paths = (
{
closed = 1;
nodes = (
"7 520 LINE",
"103 520 LINE",
"298 0 LINE",
"389 0 LINE",
"565 520 LINE",
"660 520 LINE",
"660 589 LINE",
"426 589 LINE",
"426 520 LINE",
"491 520 LINE",
"392 238 LINE",
"345 89 LINE",
"292 246 LINE",
"189 520 LINE",
"252 520 LINE",
"252 589 LINE",
"7 589 LINE"
);
}
);
};
layerId = "6E1B38A8-44EA-440A-BD04-FE41D2B0BC62";
paths = (
{
closed = 1;
nodes = (
"7 477 LINE",
"84 477 LINE",
"280 0 LINE",
"412 0 LINE",
"595 477 LINE",
"663 477 LINE",
"663 589 LINE",
"397 589 LINE",
"397 477 LINE",
"455 477 LINE",
"383 257 LINE",
"347 130 LINE",
"312 256 LINE",
"234 477 LINE",
"287 477 LINE",
"287 589 LINE",
"7 589 LINE"
);
}
);
width = 670;
}
);
leftKerningGroup = V;
rightKerningGroup = V;
unicode = 0056;
},
{
glyphname = W;
layers = (
{
anchors = (
{
name = bottom;
position = "{459, 0}";
},
{
name = top;
position = "{459, 589}";
}
);
background = {
paths = (
{
closed = 1;
nodes = (
"1 520 LINE",
"96 520 LINE",
"272 0 LINE",
"355 0 LINE",
"425 264 LINE",
"457 404 LINE",
"489 269 LINE",
"560 0 LINE",
"652 0 LINE",
"816 520 LINE",
"911 520 LINE",
"911 589 LINE",
"682 589 LINE",
"682 520 LINE",
"746 520 LINE",
"653 238 LINE",
"610 92 LINE",
"578 238 LINE",
"508 514 LINE",
"420 514 LINE",
"348 232 LINE",
"317 91 LINE",
"274 237 LINE",
"180 520 LINE",
"244 520 LINE",
"244 589 LINE",
"1 589 LINE"
);
}
);
};
layerId = UUID0;
paths = (
{
closed = 1;
nodes = (
"1 520 LINE",
"96 520 LINE",
"262 0 LINE",
"348 0 LINE",
"418 264 LINE",
"457 404 LINE",
"489 269 LINE",
"560 0 LINE",
"652 0 LINE",
"816 520 LINE",
"911 520 LINE",
"911 589 LINE",
"682 589 LINE",
"682 520 LINE",
"746 520 LINE",
"653 238 LINE",
"610 92 LINE",
"578 238 LINE",
"508 514 LINE",
"420 514 LINE",
"338 232 LINE",
"308 91 LINE",
"264 237 LINE",
"180 520 LINE",
"244 520 LINE",
"244 589 LINE",
"1 589 LINE"
);
}
);
width = 912;
},
{
anchors = (
{
name = bottom;
position = "{471, 0}";
},
{
name = top;
position = "{486, 589}";
}
);
background = {
paths = (
{
closed = 1;
nodes = (
"24 520 LINE",
"119 520 LINE",
"285 0 LINE",
"371 0 LINE",
"441 264 LINE",
"480 404 LINE",
"512 269 LINE",
"583 0 LINE",
"675 0 LINE",
"839 520 LINE",
"934 520 LINE",
"934 589 LINE",
"705 589 LINE",
"705 520 LINE",
"769 520 LINE",
"676 238 LINE",
"633 92 LINE",
"601 238 LINE",
"531 514 LINE",
"443 514 LINE",
"361 232 LINE",
"331 91 LINE",
"287 237 LINE",
"203 520 LINE",
"267 520 LINE",
"267 589 LINE",
"24 589 LINE"
);
}
);
};
layerId = "6E1B38A8-44EA-440A-BD04-FE41D2B0BC62";
paths = (
{
closed = 1;
nodes = (
"7 477 LINE",
"89 477 LINE",
"239 0 LINE",
"389 0 LINE",
"456 270 LINE",
"486 389 LINE",
"513 264 LINE",
"569 0 LINE",
"719 0 LINE",
"871 477 LINE",
"934 477 LINE",
"934 589 LINE",
"668 589 LINE",
"668 477 LINE",
"730 477 LINE",
"680 257 LINE",
"658 130 LINE",
"635 257 LINE",
"565 515 LINE",
"405 515 LINE",
"336 257 LINE",
"313 130 LINE",
"287 257 LINE",
"236 477 LINE",
"288 477 LINE",
"288 589 LINE",
"7 589 LINE"
);
}
);
width = 941;
}
);
leftKerningGroup = V;
rightKerningGroup = V;
unicode = 0057;
},
{
glyphname = X;
layers = (
{
anchors = (
{
name = bottom;
position = "{331, 0}";
},
{
name = top;
position = "{331, 589}";
}
);
layerId = UUID0;
paths = (
{
closed = 1;
nodes = (
"265 0 LINE",
"265 69 LINE",
"191 69 LINE",
"322 245 LINE",
"463 69 LINE",
"389 69 LINE",
"389 0 LINE",
"650 0 LINE",
"650 69 LINE",
"565 69 LINE",
"378 305 LINE",
"537 520 LINE",
"632 520 LINE",
"632 589 LINE",
"382 589 LINE",
"382 520 LINE",
"451 520 LINE",
"333 361 LINE",
"207 520 LINE",
"271 520 LINE",
"271 589 LINE",
"19 589 LINE",
"19 520 LINE",
"104 520 LINE",
"278 301 LINE",
"105 69 LINE",
"20 69 LINE",
"20 0 LINE"
);
}
);
width = 664;
},
{
anchors = (
{
name = bottom;
position = "{347, 0}";
},
{
name = top;
position = "{357, 589}";
}
);
background = {
paths = (
{
closed = 1;
nodes = (
"44 520 LINE",
"128 520 LINE",
"303 301 LINE",
"130 69 LINE",
"44 69 LINE",
"44 0 LINE",
"290 0 LINE",
"290 69 LINE",
"216 69 LINE",
"347 245 LINE",
"488 69 LINE",
"414 69 LINE",
"414 0 LINE",
"675 0 LINE",
"675 69 LINE",
"590 69 LINE",
"403 305 LINE",
"562 520 LINE",
"657 520 LINE",
"657 589 LINE",
"407 589 LINE",
"407 520 LINE",
"476 520 LINE",
"357 361 LINE",
"231 520 LINE",
"295 520 LINE",
"295 589 LINE",
"44 589 LINE"
);
}
);
};
layerId = "6E1B38A8-44EA-440A-BD04-FE41D2B0BC62";
paths = (
{
closed = 1;
nodes = (
"307 0 LINE",
"307 110 LINE",
"266 110 LINE",
"356 211 LINE",
"441 110 LINE",
"387 110 LINE",
"387 0 LINE",
"687 0 LINE",
"687 110 LINE",
"575 110 LINE",
"428 289 LINE",
"579 477 LINE",
"668 477 LINE",
"668 589 LINE",
"400 589 LINE",
"400 477 LINE",
"450 477 LINE",
"352 366 LINE",
"259 477 LINE",
"314 477 LINE",
"314 589 LINE",
"39 589 LINE",
"39 477 LINE",
"122 477 LINE",
"280 289 LINE",
"133 110 LINE",
"28 110 LINE",
"28 0 LINE"
);
}
);
width = 712;
}
);
leftKerningGroup = X;
rightKerningGroup = X;
unicode = 0058;
},
{
glyphname = Y;
layers = (
{
anchors = (
{
name = bottom;
position = "{325, 0}";
},
{
name = top;
position = "{325, 589}";
},
{
name = topleft;
position = "{13, 589}";
}
);
layerId = UUID0;
paths = (
{
closed = 1;
nodes = (
"4 520 LINE",
"88 520 LINE",
"286 254 LINE",
"285 69 LINE",
"191 69 LINE",
"191 0 LINE",
"458 0 LINE",
"458 69 LINE",
"364 69 LINE",
"366 257 LINE",
"579 520 LINE",
"647 520 LINE",
"647 589 LINE",
"410 589 LINE",
"410 520 LINE",
"485 520 LINE",
"329 324 LINE",
"190 520 LINE",
"243 520 LINE",
"243 589 LINE",
"4 589 LINE"
);
}
);
width = 651;
},
{
anchors = (
{
name = bottom;
position = "{333, 0}";
},
{
name = top;
position = "{333, 589}";
},
{
name = topleft;
position = "{34, 589}";
}
);
background = {
paths = (
{
closed = 1;
nodes = (
"14 520 LINE",
"98 520 LINE",
"297 274 LINE",
"296 69 LINE",
"202 69 LINE",
"202 0 LINE",
"469 0 LINE",
"469 69 LINE",
"375 69 LINE",
"377 277 LINE",
"562 520 LINE",
"658 520 LINE",
"658 589 LINE",
"421 589 LINE",
"421 520 LINE",
"476 520 LINE",
"342 344 LINE",
"201 520 LINE",
"254 520 LINE",
"254 589 LINE",
"14 589 LINE"
);
}
);
};
layerId = "6E1B38A8-44EA-440A-BD04-FE41D2B0BC62";
paths = (
{
closed = 1;
nodes = (
"7 477 LINE",
"83 477 LINE",
"275 231 LINE",
"275 111 LINE",
"180 111 LINE",
"180 0 LINE",
"496 0 LINE",
"496 111 LINE",
"402 111 LINE",
"402 231 LINE",
"587 477 LINE",
"660 477 LINE",
"660 589 LINE",
"394 589 LINE",
"394 477 LINE",
"457 477 LINE",
"342 316 LINE",
"222 477 LINE",
"291 477 LINE",
"291 589 LINE",
"7 589 LINE"
);
}
);
width = 667;
}
);
leftKerningGroup = Y;
rightKerningGroup = Y;
unicode = 0059;
},
{
glyphname = Yacute;
layers = (
{
background = {
paths = (
{
closed = 1;
nodes = (
"295 674 LINE",
"304 638 LINE",
"556 685 LINE",
"538 758 LINE"
);
}
);
};
components = (
{
name = Y;
},
{
name = acutecomb.case;
transform = "{1, 0, 0, 1, 202, 0}";
}
);
layerId = UUID0;
width = 651;
},
{
components = (
{
name = Y;
},
{
name = acutecomb.case;
transform = "{1, 0, 0, 1, 190, 0}";
}
);
layerId = "6E1B38A8-44EA-440A-BD04-FE41D2B0BC62";
width = 667;
}
);
leftKerningGroup = Y;
rightKerningGroup = Y;
unicode = 00DD;
},
{
glyphname = Z;
layers = (
{
anchors = (
{
name = bottom;
position = "{263, 0}";
},
{
name = top;
position = "{263, 589}";
}
);
background = {
paths = (
{
closed = 1;
nodes = (
"97 423 LINE",
"117 520 LINE",
"375 520 LINE",
"41 56 LINE",
"41 0 LINE",
"453 0 LINE",
"505 154 LINE",
"439 176 LINE",
"399 69 LINE",
"138 69 LINE",
"475 537 LINE",
"475 589 LINE",
"61 589 LINE",
"33 432 LINE"
);
},
{
closed = 1;
nodes = (
"115 124 OFFCURVE",
"133 106 OFFCURVE",
"155 106 CURVE SMOOTH",
"177 106 OFFCURVE",
"195 124 OFFCURVE",
"195 146 CURVE SMOOTH",
"195 168 OFFCURVE",
"177 186 OFFCURVE",
"155 186 CURVE SMOOTH",
"133 186 OFFCURVE",
"115 168 OFFCURVE",
"115 146 CURVE SMOOTH"
);
},
{
closed = 1;
nodes = (
"311 396 OFFCURVE",
"328 379 OFFCURVE",
"350 379 CURVE SMOOTH",
"373 379 OFFCURVE",
"390 396 OFFCURVE",
"390 418 CURVE SMOOTH",
"390 441 OFFCURVE",
"373 458 OFFCURVE",
"350 458 CURVE SMOOTH",
"328 458 OFFCURVE",
"311 441 OFFCURVE",
"311 418 CURVE SMOOTH"
);
}
);
};
layerId = UUID0;
paths = (
{
closed = 1;
nodes = (
"33 432 LINE",
"97 423 LINE",
"117 520 LINE",
"375 520 LINE",
"41 56 LINE",
"41 0 LINE",
"448 0 LINE",
"500 154 LINE",
"434 176 LINE",
"394 69 LINE",
"143 69 LINE",
"480 537 LINE",
"480 589 LINE",
"61 589 LINE"
);
}
);
width = 534;
},
{
anchors = (
{
name = bottom;
position = "{295, 0}";
},
{
name = top;
position = "{295, 589}";
}
);
background = {
paths = (
{
closed = 1;
nodes = (
"128 423 LINE",
"148 520 LINE",
"396 520 LINE",
"62 56 LINE",
"62 0 LINE",
"469 0 LINE",
"521 154 LINE",
"455 176 LINE",
"415 69 LINE",
"164 69 LINE",
"501 537 LINE",
"501 589 LINE",
"92 589 LINE",
"64 432 LINE"
);
}
);
};
layerId = "6E1B38A8-44EA-440A-BD04-FE41D2B0BC62";
paths = (
{
closed = 1;
nodes = (
"32 407 LINE",
"144 391 LINE",
"162 477 LINE",
"342 477 LINE",
"49 89 LINE",
"49 0 LINE",
"490 0 LINE",
"548 169 LINE",
"441 205 LINE",
"407 112 LINE",
"220 112 LINE",
"518 509 LINE",
"518 589 LINE",
"63 589 LINE"
);
}
);
width = 579;
}
);
leftKerningGroup = Z;
rightKerningGroup = Z;
unicode = 005A;
},
{
glyphname = a;
layers = (
{
anchors = (
{
name = bottom;
position = "{253, 0}";
},
{
name = ogonek;
position = "{484, -17}";
},
{
name = top;
position = "{233, 429}";
}
);
layerId = UUID0;
paths = (
{
closed = 1;
nodes = (
"484 -17 LINE",
"504 47 LINE",
"409 78 LINE",
"409 252 LINE SMOOTH",
"409 378 OFFCURVE",
"347 444 OFFCURVE",
"227 444 CURVE SMOOTH",
"182 444 OFFCURVE",
"132 434 OFFCURVE",
"82 416 CURVE",
"66 325 LINE",
"130 313 LINE",
"140 368 LINE",
"167 376 OFFCURVE",
"198 380 OFFCURVE",
"230 380 CURVE SMOOTH",
"298 380 OFFCURVE",
"331 337 OFFCURVE",
"331 248 CURVE",
"202 249 LINE SMOOTH",
"92 249 OFFCURVE",
"35 204 OFFCURVE",
"36 118 CURVE SMOOTH",
"37 31 OFFCURVE",
"96 -15 OFFCURVE",
"208 -15 CURVE SMOOTH",
"258 -15 OFFCURVE",
"306 0 OFFCURVE",
"349 29 CURVE"
);
},
{
closed = 1;
nodes = (
"331 185 LINE",
"331 87 LINE",
"298 62 OFFCURVE",
"257 49 OFFCURVE",
"212 49 CURVE SMOOTH",
"149 49 OFFCURVE",
"116 73 OFFCURVE",
"116 119 CURVE SMOOTH",
"116 163 OFFCURVE",
"147 186 OFFCURVE",
"205 186 CURVE SMOOTH"
);
}
);
width = 525;
},
{
anchors = (
{
name = bottom;
position = "{279, 0}";
},
{
name = ogonek;
position = "{505, -26}";
},
{
name = top;
position = "{253, 454}";
}
);
background = {
paths = (
{
closed = 1;
nodes = (
"145 313 LINE",
"155 368 LINE",
"172 373 OFFCURVE",
"203 380 OFFCURVE",
"245 380 CURVE SMOOTH",
"355 380 OFFCURVE",
"346 306 OFFCURVE",
"346 256 CURVE SMOOTH",
"346 248 LINE",
"217 249 LINE SMOOTH",
"125 249 OFFCURVE",
"50 211 OFFCURVE",
"51 118 CURVE SMOOTH",
"52 42 OFFCURVE",
"115 -15 OFFCURVE",
"223 -15 CURVE SMOOTH",
"282 -15 OFFCURVE",
"330 6 OFFCURVE",
"364 29 CURVE",
"499 -17 LINE",
"519 47 LINE",
"424 78 LINE",
"424 252 LINE SMOOTH",
"424 335 OFFCURVE",
"422 444 OFFCURVE",
"242 444 CURVE SMOOTH",
"159 444 OFFCURVE",
"97 416 OFFCURVE",
"97 416 CURVE",
"81 325 LINE"
);
},
{
closed = 1;
nodes = (
"176 49 OFFCURVE",
"131 71 OFFCURVE",
"131 119 CURVE SMOOTH",
"131 178 OFFCURVE",
"174 186 OFFCURVE",
"219 186 CURVE SMOOTH",
"346 185 LINE",
"346 87 LINE",
"325 71 OFFCURVE",
"286 49 OFFCURVE",
"227 49 CURVE SMOOTH"
);
}
);
};
layerId = "6E1B38A8-44EA-440A-BD04-FE41D2B0BC62";
paths = (
{
closed = 1;
nodes = (
"505 -26 LINE",
"540 78 LINE",
"459 104 LINE",
"459 267 LINE SMOOTH",
"459 403 OFFCURVE",
"385 474 OFFCURVE",
"252 474 CURVE SMOOTH",
"186 474 OFFCURVE",
"129 464 OFFCURVE",
"75 445 CURVE",
"56 333 LINE",
"161 320 LINE",
"170 367 LINE",
"194 375 OFFCURVE",
"217 379 OFFCURVE",
"247 379 CURVE SMOOTH",
"295 379 OFFCURVE",
"332 343 OFFCURVE",
"332 266 CURVE",
"227 266 LINE SMOOTH",
"102 266 OFFCURVE",
"37 217 OFFCURVE",
"37 123 CURVE SMOOTH",
"37 29 OFFCURVE",
"105 -20 OFFCURVE",
"234 -20 CURVE SMOOTH",
"282 -20 OFFCURVE",
"331 -7 OFFCURVE",
"378 17 CURVE"
);
},
{
closed = 1;
nodes = (
"332 187 LINE",
"332 98 LINE",
"303 81 OFFCURVE",
"271 72 OFFCURVE",
"238 72 CURVE SMOOTH",
"191 72 OFFCURVE",
"166 88 OFFCURVE",
"166 125 CURVE SMOOTH",
"166 164 OFFCURVE",
"188 187 OFFCURVE",
"230 187 CURVE SMOOTH"
);
}
);
width = 560;
}
);
leftKerningGroup = a;
rightKerningGroup = a;
unicode = 0061;
},
{
glyphname = aacute;
layers = (
{
background = {
paths = (
{
closed = 1;
nodes = (
"165 512 LINE",
"183 480 LINE",
"417 586 LINE",
"381 652 LINE"
);
}
);
};
components = (
{
name = a;
},
{
name = acutecomb;
transform = "{1, 0, 0, 1, 128, 0}";
}
);
layerId = UUID0;
width = 525;
},
{
components = (
{
name = a;
},
{
name = acutecomb;
transform = "{1, 0, 0, 1, 170, 0}";
}
);
layerId = "6E1B38A8-44EA-440A-BD04-FE41D2B0BC62";
width = 560;
}
);
leftKerningGroup = a;
rightKerningGroup = a;
unicode = 00E1;
},
{
glyphname = agrave;
layers = (
{
background = {
paths = (
{
closed = 1;
nodes = (
"320 512 LINE",
"302 480 LINE",
"69 586 LINE",
"104 652 LINE"
);
}
);
};
components = (
{
name = a;
},
{
name = gravecomb;
transform = "{1, 0, 0, 1, 29, 0}";
}
);
layerId = UUID0;
width = 525;
},
{
components = (
{
name = a;
},
{
name = gravecomb;
transform = "{1, 0, 0, 1, 23, 0}";
}
);
layerId = "6E1B38A8-44EA-440A-BD04-FE41D2B0BC62";
width = 560;
}
);
leftKerningGroup = a;
rightKerningGroup = a;
unicode = 00E0;
},
{
glyphname = aring;
layers = (
{
background = {
paths = (
{
closed = 1;
nodes = (
"158 518 OFFCURVE",
"197 479 OFFCURVE",
"244 479 CURVE SMOOTH",
"292 479 OFFCURVE",
"330 518 OFFCURVE",
"330 565 CURVE SMOOTH",
"330 612 OFFCURVE",
"292 651 OFFCURVE",
"244 651 CURVE SMOOTH",
"197 651 OFFCURVE",
"158 612 OFFCURVE",
"158 565 CURVE SMOOTH"
);
},
{
closed = 1;
nodes = (
"205 586 OFFCURVE",
"223 604 OFFCURVE",
"244 604 CURVE SMOOTH",
"265 604 OFFCURVE",
"283 586 OFFCURVE",
"283 565 CURVE SMOOTH",
"283 544 OFFCURVE",
"265 526 OFFCURVE",
"244 526 CURVE SMOOTH",
"223 526 OFFCURVE",
"205 544 OFFCURVE",
"205 565 CURVE SMOOTH"
);
}
);
};
components = (
{
name = a;
},
{
name = ringcomb;
transform = "{1, 0, 0, 1, 114, 0}";
}
);
layerId = UUID0;
width = 525;
},
{
components = (
{
name = a;
},
{
name = ringcomb;
transform = "{1, 0, 0, 1, 92, 0}";
}
);
layerId = "6E1B38A8-44EA-440A-BD04-FE41D2B0BC62";
width = 560;
}
);
leftKerningGroup = a;
rightKerningGroup = a;
unicode = 00E5;
},
{
glyphname = ae;
layers = (
{
anchors = (
{
name = bottom;
position = "{389, 0}";
},
{
name = top;
position = "{389, 429}";
}
);
layerId = UUID0;
paths = (
{
closed = 1;
nodes = (
"65 325 LINE",
"129 313 LINE",
"139 368 LINE",
"156 373 OFFCURVE",
"187 380 OFFCURVE",
"229 380 CURVE SMOOTH",
"312 380 OFFCURVE",
"330 340 OFFCURVE",
"330 248 CURVE",
"201 249 LINE SMOOTH",
"109 249 OFFCURVE",
"34 211 OFFCURVE",
"35 118 CURVE SMOOTH",
"36 42 OFFCURVE",
"100 -15 OFFCURVE",
"207 -15 CURVE SMOOTH",
"265 -15 OFFCURVE",
"351 25 OFFCURVE",
"385 48 CURVE",
"424 7 OFFCURVE",
"479 -15 OFFCURVE",
"545 -15 CURVE SMOOTH",
"666 -15 OFFCURVE",
"734 50 OFFCURVE",
"734 51 CURVE",
"698 98 LINE",
"698 98 OFFCURVE",
"639 49 OFFCURVE",
"546 49 CURVE SMOOTH",
"460 49 OFFCURVE",
"413 101 OFFCURVE",
"408 194 CURVE",
"730 196 LINE",
"750 391 OFFCURVE",
"654 444 OFFCURVE",
"558 444 CURVE SMOOTH",
"480 444 OFFCURVE",
"420 407 OFFCURVE",
"384 348 CURVE",
"363 407 OFFCURVE",
"312 444 OFFCURVE",
"226 444 CURVE SMOOTH",
"162 444 OFFCURVE",
"129 435 OFFCURVE",
"81 416 CURVE"
);
},
{
closed = 1;
nodes = (
"329 185 LINE",
"331 151 OFFCURVE",
"340 121 OFFCURVE",
"353 95 CURVE",
"317 73 OFFCURVE",
"258 49 OFFCURVE",
"211 49 CURVE SMOOTH",
"160 49 OFFCURVE",
"115 71 OFFCURVE",
"115 119 CURVE SMOOTH",
"115 178 OFFCURVE",
"158 186 OFFCURVE",
"204 186 CURVE SMOOTH"
);
},
{
closed = 1;
nodes = (
"409 256 LINE",
"421 334 OFFCURVE",
"476 380 OFFCURVE",
"555 380 CURVE SMOOTH",
"630 380 OFFCURVE",
"661 337 OFFCURVE",
"663 257 CURVE"
);
}
);
width = 777;
},
{
anchors = (
{
name = bottom;
position = "{405, 0}";
},
{
name = top;
position = "{415, 454}";
}
);
background = {
paths = (
{
closed = 1;
nodes = (
"683 -15 OFFCURVE",
"751 50 OFFCURVE",
"751 51 CURVE",
"715 98 LINE",
"715 98 OFFCURVE",
"656 49 OFFCURVE",
"563 49 CURVE SMOOTH",
"477 49 OFFCURVE",
"430 101 OFFCURVE",
"425 194 CURVE",
"747 196 LINE",
"767 391 OFFCURVE",
"681 444 OFFCURVE",
"574 444 CURVE SMOOTH",
"497 444 OFFCURVE",
"438 407 OFFCURVE",
"399 359 CURVE",
"375 403 OFFCURVE",
"329 444 OFFCURVE",
"243 444 CURVE SMOOTH",
"160 444 OFFCURVE",
"98 416 OFFCURVE",
"98 416 CURVE",
"82 325 LINE",
"146 313 LINE",
"156 368 LINE",
"173 373 OFFCURVE",
"204 380 OFFCURVE",
"246 380 CURVE SMOOTH",
"356 380 OFFCURVE",
"347 306 OFFCURVE",
"347 256 CURVE SMOOTH",
"347 248 LINE",
"218 249 LINE SMOOTH",
"126 249 OFFCURVE",
"51 211 OFFCURVE",
"52 118 CURVE SMOOTH",
"53 42 OFFCURVE",
"116 -15 OFFCURVE",
"224 -15 CURVE SMOOTH",
"282 -15 OFFCURVE",
"368 25 OFFCURVE",
"402 48 CURVE",
"441 7 OFFCURVE",
"496 -15 OFFCURVE",
"562 -15 CURVE SMOOTH"
);
},
{
closed = 1;
nodes = (
"177 49 OFFCURVE",
"132 71 OFFCURVE",
"132 119 CURVE SMOOTH",
"132 178 OFFCURVE",
"175 186 OFFCURVE",
"220 186 CURVE SMOOTH",
"345 185 LINE",
"348 151 OFFCURVE",
"357 121 OFFCURVE",
"370 95 CURVE",
"334 73 OFFCURVE",
"275 49 OFFCURVE",
"228 49 CURVE SMOOTH"
);
},
{
closed = 1;
nodes = (
"647 380 OFFCURVE",
"678 337 OFFCURVE",
"679 257 CURVE",
"426 256 LINE",
"438 334 OFFCURVE",
"493 380 OFFCURVE",
"572 380 CURVE SMOOTH"
);
}
);
};
layerId = "6E1B38A8-44EA-440A-BD04-FE41D2B0BC62";
paths = (
{
closed = 1;
nodes = (
"56 317 LINE",
"163 297 LINE",
"171 345 LINE",
"200 349 OFFCURVE",
"223 351 OFFCURVE",
"243 351 CURVE SMOOTH",
"334 351 OFFCURVE",
"343 314 OFFCURVE",
"343 275 CURVE",
"228 275 LINE SMOOTH",
"122 275 OFFCURVE",
"38 233 OFFCURVE",
"38 123 CURVE SMOOTH",
"38 33 OFFCURVE",
"112 -22 OFFCURVE",
"235 -22 CURVE SMOOTH",
"294 -22 OFFCURVE",
"368 4 OFFCURVE",
"407 32 CURVE",
"452 -9 OFFCURVE",
"508 -22 OFFCURVE",
"573 -22 CURVE SMOOTH",
"708 -22 OFFCURVE",
"772 50 OFFCURVE",
"774 54 CURVE",
"720 124 LINE",
"692 104 OFFCURVE",
"650 78 OFFCURVE",
"574 78 CURVE SMOOTH",
"512 78 OFFCURVE",
"464 117 OFFCURVE",
"453 185 CURVE",
"760 185 LINE",
"788 319 OFFCURVE",
"713 463 OFFCURVE",
"573 463 CURVE SMOOTH",
"513 463 OFFCURVE",
"451 433 OFFCURVE",
"406 377 CURVE",
"388 427 OFFCURVE",
"332 463 OFFCURVE",
"238 463 CURVE SMOOTH",
"175 463 OFFCURVE",
"124 448 OFFCURVE",
"75 429 CURVE"
);
},
{
closed = 1;
nodes = (
"343 183 LINE",
"344 157 OFFCURVE",
"351 133 OFFCURVE",
"358 111 CURVE",
"338 99 OFFCURVE",
"281 79 OFFCURVE",
"239 79 CURVE SMOOTH",
"201 79 OFFCURVE",
"167 93 OFFCURVE",
"167 125 CURVE SMOOTH",
"167 170 OFFCURVE",
"198 183 OFFCURVE",
"231 183 CURVE SMOOTH"
);
},
{
closed = 1;
nodes = (
"456 277 LINE",
"469 331 OFFCURVE",
"509 360 OFFCURVE",
"564 360 CURVE SMOOTH",
"633 360 OFFCURVE",
"660 323 OFFCURVE",
"660 277 CURVE"
);
}
);
width = 810;
}
);
leftKerningGroup = a;
rightKerningGroup = e;
unicode = 00E6;
},
{
glyphname = b;
layers = (
{
anchors = (
{
name = bottom;
position = "{256, 0}";
},
{
name = top;
position = "{256, 429}";
}
);
layerId = UUID0;
paths = (
{
closed = 1;
nodes = (
"404 -15 OFFCURVE",
"472 61 OFFCURVE",
"472 226 CURVE SMOOTH",
"472 375 OFFCURVE",
"405 444 OFFCURVE",
"259 444 CURVE SMOOTH",
"222 444 OFFCURVE",
"186 434 OFFCURVE",
"143 411 CURVE",
"143 597 LINE",
"-8 649 LINE",
"-29 587 LINE",
"66 554 LINE",
"66 41 LINE",
"116 3 OFFCURVE",
"185 -15 OFFCURVE",
"255 -15 CURVE SMOOTH"
);
},
{
closed = 1;
nodes = (
"208 49 OFFCURVE",
"173 57 OFFCURVE",
"143 74 CURVE",
"143 343 LINE",
"184 368 OFFCURVE",
"220 380 OFFCURVE",
"258 380 CURVE SMOOTH",
"350 380 OFFCURVE",
"392 332 OFFCURVE",
"392 226 CURVE SMOOTH",
"392 105 OFFCURVE",
"349 49 OFFCURVE",
"254 49 CURVE SMOOTH"
);
}
);
width = 516;
},
{
anchors = (
{
name = bottom;
position = "{265, 0}";
},
{
name = top;
position = "{295, 454}";
}
);
background = {
paths = (
{
closed = 1;
nodes = (
"-17 587 LINE",
"79 554 LINE",
"79 41 LINE",
"79 41 OFFCURVE",
"152 -15 OFFCURVE",
"268 -15 CURVE SMOOTH",
"397 -15 OFFCURVE",
"485 83 OFFCURVE",
"485 226 CURVE SMOOTH",
"485 368 OFFCURVE",
"396 444 OFFCURVE",
"272 444 CURVE SMOOTH",
"227 444 OFFCURVE",
"188 428 OFFCURVE",
"156 411 CURVE",
"156 597 LINE",
"4 649 LINE"
);
},
{
closed = 1;
nodes = (
"195 49 OFFCURVE",
"156 74 OFFCURVE",
"156 74 CURVE",
"156 343 LINE",
"156 343 OFFCURVE",
"200 380 OFFCURVE",
"271 380 CURVE SMOOTH",
"361 380 OFFCURVE",
"405 326 OFFCURVE",
"405 226 CURVE SMOOTH",
"405 121 OFFCURVE",
"358 49 OFFCURVE",
"267 49 CURVE SMOOTH"
);
}
);
};
layerId = "6E1B38A8-44EA-440A-BD04-FE41D2B0BC62";
paths = (
{
closed = 1;
nodes = (
"437 -20 OFFCURVE",
"520 65 OFFCURVE",
"520 229 CURVE SMOOTH",
"520 390 OFFCURVE",
"444 474 OFFCURVE",
"297 474 CURVE SMOOTH",
"258 474 OFFCURVE",
"222 464 OFFCURVE",
"191 445 CURVE",
"191 615 LINE",
"1 680 LINE",
"-36 572 LINE",
"65 537 LINE",
"65 36 LINE",
"124 -1 OFFCURVE",
"197 -20 OFFCURVE",
"278 -20 CURVE SMOOTH"
);
},
{
closed = 1;
nodes = (
"244 81 OFFCURVE",
"215 85 OFFCURVE",
"191 94 CURVE",
"191 339 LINE",
"216 360 OFFCURVE",
"252 371 OFFCURVE",
"296 371 CURVE SMOOTH",
"358 371 OFFCURVE",
"391 322 OFFCURVE",
"391 229 CURVE SMOOTH",
"391 132 OFFCURVE",
"352 81 OFFCURVE",
"277 81 CURVE SMOOTH"
);
}
);
width = 560;
}
);
leftKerningGroup = b;
rightKerningGroup = o;
unicode = 0062;
},
{
glyphname = c;
layers = (
{
anchors = (
{
name = bottom;
position = "{259, 0}";
},
{
name = top;
position = "{269, 429}";
}
);
layerId = UUID0;
paths = (
{
closed = 1;
nodes = (
"370 294 LINE",
"434 308 LINE",
"420 416 LINE",
"361 433 OFFCURVE",
"321 446 OFFCURVE",
"268 446 CURVE SMOOTH",
"141 446 OFFCURVE",
"40 364 OFFCURVE",
"40 215 CURVE SMOOTH",
"40 72 OFFCURVE",
"129 -15 OFFCURVE",
"258 -15 CURVE SMOOTH",
"341 -15 OFFCURVE",
"377 6 OFFCURVE",
"427 43 CURVE",
"394 92 LINE",
"353 64 OFFCURVE",
"309 51 OFFCURVE",
"268 51 CURVE SMOOTH",
"187 51 OFFCURVE",
"120 106 OFFCURVE",
"120 215 CURVE SMOOTH",
"120 327 OFFCURVE",
"177 383 OFFCURVE",
"267 383 CURVE SMOOTH",
"302 383 OFFCURVE",
"326 379 OFFCURVE",
"357 369 CURVE"
);
}
);
width = 469;
},
{
anchors = (
{
name = bottom;
position = "{236, 0}";
},
{
name = top;
position = "{286, 454}";
}
);
background = {
paths = (
{
closed = 1;
nodes = (
"429 312 LINE",
"408 420 LINE",
"408 420 OFFCURVE",
"365 444 OFFCURVE",
"272 444 CURVE SMOOTH",
"143 444 OFFCURVE",
"54 358 OFFCURVE",
"54 215 CURVE SMOOTH",
"54 72 OFFCURVE",
"143 -15 OFFCURVE",
"272 -15 CURVE SMOOTH",
"365 -15 OFFCURVE",
"441 42 OFFCURVE",
"441 43 CURVE",
"408 92 LINE",
"408 92 OFFCURVE",
"346 49 OFFCURVE",
"273 49 CURVE SMOOTH",
"180 49 OFFCURVE",
"134 110 OFFCURVE",
"134 215 CURVE SMOOTH",
"134 320 OFFCURVE",
"180 380 OFFCURVE",
"273 380 CURVE SMOOTH",
"320 380 OFFCURVE",
"345 371 OFFCURVE",
"353 367 CURVE",
"366 298 LINE"
);
}
);
};
layerId = "6E1B38A8-44EA-440A-BD04-FE41D2B0BC62";
paths = (
{
closed = 1;
nodes = (
"362 286 LINE",
"469 309 LINE",
"441 446 LINE",
"391 465 OFFCURVE",
"338 475 OFFCURVE",
"286 475 CURVE SMOOTH",
"124 475 OFFCURVE",
"39 388 OFFCURVE",
"39 222 CURVE SMOOTH",
"39 63 OFFCURVE",
"132 -20 OFFCURVE",
"282 -20 CURVE SMOOTH",
"359 -20 OFFCURVE",
"412 9 OFFCURVE",
"475 58 CURVE",
"424 133 LINE",
"377 99 OFFCURVE",
"328 81 OFFCURVE",
"283 81 CURVE SMOOTH",
"217 81 OFFCURVE",
"168 135 OFFCURVE",
"168 222 CURVE SMOOTH",
"168 325 OFFCURVE",
"209 378 OFFCURVE",
"288 378 CURVE SMOOTH",
"305 378 OFFCURVE",
"325 375 OFFCURVE",
"347 369 CURVE"
);
}
);
width = 507;
}
);
leftKerningGroup = o;
rightKerningGroup = c;
unicode = 0063;
},
{
glyphname = d;
layers = (
{
anchors = (
{
name = bottom;
position = "{288, 0}";
},
{
name = center;
position = "{411, 537}";
},
{
name = top;
position = "{409, 589}";
},
{
name = topright;
position = "{529, 429}";
}
);
layerId = UUID0;
paths = (
{
closed = 1;
nodes = (
"542 47 LINE",
"448 79 LINE",
"448 597 LINE",
"296 649 LINE",
"275 587 LINE",
"370 554 LINE",
"370 423 LINE",
"336 436 OFFCURVE",
"295 444 OFFCURVE",
"259 444 CURVE SMOOTH",
"122 444 OFFCURVE",
"41 362 OFFCURVE",
"41 224 CURVE SMOOTH",
"41 74 OFFCURVE",
"122 -15 OFFCURVE",
"259 -15 CURVE SMOOTH",
"302 -15 OFFCURVE",
"350 1 OFFCURVE",
"389 29 CURVE",
"522 -17 LINE"
);
},
{
closed = 1;
nodes = (
"177 49 OFFCURVE",
"121 119 OFFCURVE",
"121 225 CURVE SMOOTH",
"121 318 OFFCURVE",
"177 380 OFFCURVE",
"260 380 CURVE SMOOTH",
"296 380 OFFCURVE",
"340 370 OFFCURVE",
"370 355 CURVE",
"370 86 LINE",
"337 64 OFFCURVE",
"293 49 OFFCURVE",
"260 49 CURVE SMOOTH"
);
}
);
width = 563;
},
{
anchors = (
{
name = bottom;
position = "{307, 0}";
},
{
name = center;
position = "{440, 550}";
},
{
name = top;
position = "{424, 635}";
},
{
name = topright;
position = "{562, 454}";
}
);
background = {
paths = (
{
closed = 1;
nodes = (
"461 79 LINE",
"461 597 LINE",
"309 649 LINE",
"288 587 LINE",
"383 554 LINE",
"383 423 LINE",
"352 435 OFFCURVE",
"316 444 OFFCURVE",
"272 444 CURVE SMOOTH",
"150 444 OFFCURVE",
"54 353 OFFCURVE",
"54 224 CURVE SMOOTH",
"54 81 OFFCURVE",
"143 -15 OFFCURVE",
"272 -15 CURVE SMOOTH",
"325 -15 OFFCURVE",
"369 6 OFFCURVE",
"402 29 CURVE",
"534 -17 LINE",
"554 47 LINE"
);
},
{
closed = 1;
nodes = (
"344 380 OFFCURVE",
"383 355 OFFCURVE",
"383 355 CURVE",
"383 86 LINE",
"362 72 OFFCURVE",
"323 49 OFFCURVE",
"273 49 CURVE SMOOTH",
"180 49 OFFCURVE",
"134 120 OFFCURVE",
"134 225 CURVE SMOOTH",
"134 314 OFFCURVE",
"188 380 OFFCURVE",
"273 380 CURVE SMOOTH"
);
}
);
};
layerId = "6E1B38A8-44EA-440A-BD04-FE41D2B0BC62";
paths = (
{
closed = 1;
nodes = (
"577 83 LINE",
"495 111 LINE",
"495 615 LINE",
"304 680 LINE",
"268 572 LINE",
"368 537 LINE",
"368 459 LINE",
"339 468 OFFCURVE",
"307 474 OFFCURVE",
"282 474 CURVE SMOOTH",
"129 474 OFFCURVE",
"39 383 OFFCURVE",
"39 229 CURVE SMOOTH",
"39 72 OFFCURVE",
"129 -20 OFFCURVE",
"282 -20 CURVE SMOOTH",
"331 -20 OFFCURVE",
"381 -6 OFFCURVE",
"416 17 CURVE",
"542 -26 LINE"
);
},
{
closed = 1;
nodes = (
"214 81 OFFCURVE",
"168 140 OFFCURVE",
"168 229 CURVE SMOOTH",
"168 314 OFFCURVE",
"214 371 OFFCURVE",
"283 371 CURVE SMOOTH",
"312 371 OFFCURVE",
"346 364 OFFCURVE",
"368 353 CURVE",
"368 102 LINE",
"344 89 OFFCURVE",
"310 81 OFFCURVE",
"283 81 CURVE SMOOTH"
);
}
);
width = 597;
}
);
leftKerningGroup = o;
rightKerningGroup = d;
unicode = 0064;
},
{
glyphname = eth;
layers = (
{
background = {
paths = (
{
closed = 1;
nodes = (
"205 480 LINE",
"251 530 LINE",
"294 504 OFFCURVE",
"329 470 OFFCURVE",
"357 423 CURVE",
"321 438 OFFCURVE",
"281 442 OFFCURVE",
"258 442 CURVE SMOOTH",
"129 442 OFFCURVE",
"40 356 OFFCURVE",
"40 213 CURVE SMOOTH",
"40 59 OFFCURVE",
"144 -16 OFFCURVE",
"258 -16 CURVE SMOOTH",
"380 -16 OFFCURVE",
"478 86 OFFCURVE",
"478 262 CURVE",
"474 391 OFFCURVE",
"410 504 OFFCURVE",
"301 574 CURVE",
"298 575 OFFCURVE",
"296 577 OFFCURVE",
"294 578 CURVE",
"329 617 LINE",
"288 657 LINE",
"242 606 LINE",
"207 623 OFFCURVE",
"166 636 OFFCURVE",
"111 652 CURVE",
"98 597 LINE",
"134 585 OFFCURVE",
"168 572 OFFCURVE",
"198 558 CURVE",
"164 520 LINE"
);
},
{
closed = 1;
nodes = (
"306 378 OFFCURVE",
"355 365 OFFCURVE",
"383 345 CURVE",
"391 307 OFFCURVE",
"399 263 OFFCURVE",
"399 216 CURVE SMOOTH",
"399 103 OFFCURVE",
"349 48 OFFCURVE",
"259 48 CURVE SMOOTH",
"167 48 OFFCURVE",
"120 108 OFFCURVE",
"120 213 CURVE SMOOTH",
"120 318 OFFCURVE",
"167 378 OFFCURVE",
"259 378 CURVE SMOOTH"
);
}
);
};
layerId = UUID0;
paths = (
{
closed = 1;
nodes = (
"329 617 LINE",
"288 657 LINE",
"242 606 LINE",
"207 623 OFFCURVE",
"166 636 OFFCURVE",
"111 652 CURVE",
"98 597 LINE",
"134 585 OFFCURVE",
"168 572 OFFCURVE",
"198 558 CURVE",
"164 520 LINE",
"205 480 LINE",
"251 530 LINE",
"294 504 OFFCURVE",
"329 470 OFFCURVE",
"357 423 CURVE",
"321 438 OFFCURVE",
"281 442 OFFCURVE",
"258 442 CURVE SMOOTH",
"129 442 OFFCURVE",
"40 356 OFFCURVE",
"40 213 CURVE SMOOTH",
"40 59 OFFCURVE",
"144 -16 OFFCURVE",
"258 -16 CURVE SMOOTH",
"380 -16 OFFCURVE",
"478 72 OFFCURVE",
"478 262 CURVE",
"474 389 OFFCURVE",
"399 525 OFFCURVE",
"294 578 CURVE"
);
},
{
closed = 1;
nodes = (
"306 378 OFFCURVE",
"355 365 OFFCURVE",
"383 345 CURVE",
"392 313 OFFCURVE",
"399 285 OFFCURVE",
"399 245 CURVE SMOOTH",
"399 120 OFFCURVE",
"349 48 OFFCURVE",
"259 48 CURVE SMOOTH",
"167 48 OFFCURVE",
"120 108 OFFCURVE",
"120 213 CURVE SMOOTH",
"120 318 OFFCURVE",
"167 378 OFFCURVE",
"259 378 CURVE SMOOTH"
);
}
);
width = 523;
},
{
background = {
paths = (
{
closed = 1;
nodes = (
"225 480 LINE",
"271 530 LINE",
"314 504 OFFCURVE",
"349 470 OFFCURVE",
"377 423 CURVE",
"341 438 OFFCURVE",
"301 442 OFFCURVE",
"278 442 CURVE SMOOTH",
"149 442 OFFCURVE",
"60 356 OFFCURVE",
"60 213 CURVE SMOOTH",
"60 59 OFFCURVE",
"164 -16 OFFCURVE",
"278 -16 CURVE SMOOTH",
"400 -16 OFFCURVE",
"498 72 OFFCURVE",
"498 262 CURVE",
"494 391 OFFCURVE",
"430 504 OFFCURVE",
"321 574 CURVE",
"318 575 OFFCURVE",
"316 577 OFFCURVE",
"314 578 CURVE",
"349 617 LINE",
"308 657 LINE",
"262 606 LINE",
"227 623 OFFCURVE",
"186 636 OFFCURVE",
"131 652 CURVE",
"118 597 LINE",
"154 585 OFFCURVE",
"188 572 OFFCURVE",
"218 558 CURVE",
"184 520 LINE"
);
},
{
closed = 1;
nodes = (
"326 378 OFFCURVE",
"375 365 OFFCURVE",
"403 345 CURVE",
"412 313 OFFCURVE",
"419 285 OFFCURVE",
"419 245 CURVE SMOOTH",
"419 120 OFFCURVE",
"369 48 OFFCURVE",
"279 48 CURVE SMOOTH",
"187 48 OFFCURVE",
"140 108 OFFCURVE",
"140 213 CURVE SMOOTH",
"140 318 OFFCURVE",
"187 378 OFFCURVE",
"279 378 CURVE SMOOTH"
);
}
);
};
layerId = "6E1B38A8-44EA-440A-BD04-FE41D2B0BC62";
paths = (
{
closed = 1;
nodes = (
"357 623 LINE",
"292 684 LINE",
"245 632 LINE",
"212 647 OFFCURVE",
"175 658 OFFCURVE",
"126 672 CURVE",
"103 596 LINE",
"132 585 OFFCURVE",
"161 573 OFFCURVE",
"182 563 CURVE",
"154 531 LINE",
"220 472 LINE",
"262 518 LINE",
"303 491 OFFCURVE",
"342 454 OFFCURVE",
"371 406 CURVE",
"353 418 OFFCURVE",
"316 429 OFFCURVE",
"256 429 CURVE SMOOTH",
"157 429 OFFCURVE",
"35 353 OFFCURVE",
"35 222 CURVE SMOOTH",
"35 42 OFFCURVE",
"151 -22 OFFCURVE",
"278 -22 CURVE SMOOTH",
"414 -22 OFFCURVE",
"522 55 OFFCURVE",
"522 263 CURVE SMOOTH",
"522 401 OFFCURVE",
"448 518 OFFCURVE",
"327 589 CURVE"
);
},
{
closed = 1;
nodes = (
"325 342 OFFCURVE",
"364 333 OFFCURVE",
"389 318 CURVE",
"394 296 OFFCURVE",
"396 273 OFFCURVE",
"396 250 CURVE SMOOTH",
"396 161 OFFCURVE",
"360 81 OFFCURVE",
"279 81 CURVE SMOOTH",
"203 81 OFFCURVE",
"164 124 OFFCURVE",
"164 213 CURVE SMOOTH",
"164 295 OFFCURVE",
"208 342 OFFCURVE",
"286 342 CURVE SMOOTH"
);
}
);
width = 565;
}
);
leftKerningGroup = o;
rightKerningGroup = o;
unicode = 00F0;
},
{
glyphname = dcroat;
layers = (
{
background = {
components = (
{
name = hbar;
transform = "{-1, 0, 0, 1, 553, 0}";
}
);
};
hints = (
{
horizontal = 1;
origin = "{0, 15}";
target = "{1, 12}";
},
{
horizontal = 1;
origin = "{0, 9}";
target = "{1, 5}";
},
{
horizontal = 1;
origin = "{2, 0}";
target = "{2, 3}";
},
{
horizontal = 1;
origin = "{0, 2}";
target = down;
type = TopGhost;
},
{
place = "{41, 80}";
},
{
place = "{370, 78}";
}
);
layerId = UUID0;
paths = (
{
closed = 1;
nodes = (
"542 47 LINE",
"448 79 LINE",
"448 597 LINE",
"296 649 LINE",
"275 587 LINE",
"370 554 LINE",
"370 408 LINE",
"336 421 OFFCURVE",
"295 429 OFFCURVE",
"259 429 CURVE SMOOTH",
"122 429 OFFCURVE",
"41 346 OFFCURVE",
"41 214 CURVE SMOOTH",
"41 70 OFFCURVE",
"122 -15 OFFCURVE",
"259 -15 CURVE SMOOTH",
"302 -15 OFFCURVE",
"350 1 OFFCURVE",
"389 29 CURVE",
"522 -17 LINE"
);
},
{
closed = 1;
nodes = (
"177 49 OFFCURVE",
"121 115 OFFCURVE",
"121 215 CURVE SMOOTH",
"121 302 OFFCURVE",
"177 365 OFFCURVE",
"260 365 CURVE SMOOTH",
"296 365 OFFCURVE",
"340 355 OFFCURVE",
"370 340 CURVE",
"370 86 LINE",
"337 64 OFFCURVE",
"303 49 OFFCURVE",
"260 49 CURVE SMOOTH"
);
},
{
closed = 1;
nodes = (
"221 465 LINE",
"528 465 LINE",
"528 525 LINE",
"221 525 LINE"
);
}
);
width = 563;
},
{
background = {
components = (
{
name = hbar;
transform = "{-1, 0, 0, 1, 600, 0}";
}
);
};
layerId = "6E1B38A8-44EA-440A-BD04-FE41D2B0BC62";
paths = (
{
closed = 1;
nodes = (
"577 83 LINE",
"495 111 LINE",
"495 615 LINE",
"304 680 LINE",
"268 572 LINE",
"368 537 LINE",
"368 419 LINE",
"339 428 OFFCURVE",
"307 434 OFFCURVE",
"282 434 CURVE SMOOTH",
"129 434 OFFCURVE",
"39 350 OFFCURVE",
"39 209 CURVE SMOOTH",
"39 65 OFFCURVE",
"129 -20 OFFCURVE",
"282 -20 CURVE SMOOTH",
"331 -20 OFFCURVE",
"381 -6 OFFCURVE",
"416 17 CURVE",
"542 -26 LINE"
);
},
{
closed = 1;
nodes = (
"214 81 OFFCURVE",
"168 132 OFFCURVE",
"168 209 CURVE SMOOTH",
"168 282 OFFCURVE",
"214 331 OFFCURVE",
"283 331 CURVE SMOOTH",
"312 331 OFFCURVE",
"346 324 OFFCURVE",
"368 313 CURVE",
"368 102 LINE",
"344 89 OFFCURVE",
"310 81 OFFCURVE",
"283 81 CURVE SMOOTH"
);
},
{
closed = 1;
nodes = (
"241 461 LINE",
"576 461 LINE",
"576 522 LINE",
"241 522 LINE"
);
}
);
width = 597;
}
);
leftKerningGroup = o;
rightKerningGroup = hbar;
unicode = 0111;
},
{
glyphname = e;
layers = (
{
anchors = (
{
name = bottom;
position = "{245, 0}";
},
{
name = ogonek;
position = "{411, 26}";
},
{
name = top;
position = "{254, 429}";
}
);
layerId = UUID0;
paths = (
{
closed = 1;
nodes = (
"410 98 LINE",
"371 66 OFFCURVE",
"325 50 OFFCURVE",
"267 50 CURVE SMOOTH",
"191 50 OFFCURVE",
"121 92 OFFCURVE",
"116 195 CURVE",
"449 197 LINE",
"450 210 OFFCURVE",
"451 223 OFFCURVE",
"451 235 CURVE SMOOTH",
"451 362 OFFCURVE",
"378 444 OFFCURVE",
"257 444 CURVE SMOOTH",
"126 444 OFFCURVE",
"39 352 OFFCURVE",
"39 215 CURVE SMOOTH",
"39 70 OFFCURVE",
"129 -15 OFFCURVE",
"270 -15 CURVE SMOOTH",
"340 -15 OFFCURVE",
"393 6 OFFCURVE",
"446 51 CURVE"
);
},
{
closed = 1;
nodes = (
"117 257 LINE",
"128 333 OFFCURVE",
"187 383 OFFCURVE",
"258 383 CURVE SMOOTH",
"327 383 OFFCURVE",
"373 333 OFFCURVE",
"374 258 CURVE"
);
}
);
width = 491;
},
{
anchors = (
{
name = bottom;
position = "{265, 0}";
},
{
name = ogonek;
position = "{439, 24}";
},
{
name = top;
position = "{267, 454}";
}
);
background = {
paths = (
{
closed = 1;
nodes = (
"129 474 OFFCURVE",
"39 382 OFFCURVE",
"39 226 CURVE SMOOTH",
"39 71 OFFCURVE",
"129 -20 OFFCURVE",
"282 -20 CURVE SMOOTH",
"437 -20 OFFCURVE",
"529 71 OFFCURVE",
"529 226 CURVE SMOOTH",
"529 382 OFFCURVE",
"437 474 OFFCURVE",
"282 474 CURVE SMOOTH"
);
},
{
closed = 1;
nodes = (
"360 371 OFFCURVE",
"400 321 OFFCURVE",
"400 226 CURVE SMOOTH",
"400 131 OFFCURVE",
"360 81 OFFCURVE",
"283 81 CURVE SMOOTH",
"207 81 OFFCURVE",
"168 131 OFFCURVE",
"168 226 CURVE SMOOTH",
"168 321 OFFCURVE",
"207 371 OFFCURVE",
"283 371 CURVE SMOOTH"
);
}
);
};
layerId = "6E1B38A8-44EA-440A-BD04-FE41D2B0BC62";
paths = (
{
closed = 1;
nodes = (
"443 132 LINE",
"400 99 OFFCURVE",
"347 79 OFFCURVE",
"291 79 CURVE SMOOTH",
"216 79 OFFCURVE",
"156 112 OFFCURVE",
"148 181 CURVE",
"486 181 LINE",
"490 201 OFFCURVE",
"492 226 OFFCURVE",
"492 243 CURVE SMOOTH",
"492 382 OFFCURVE",
"403 474 OFFCURVE",
"270 474 CURVE SMOOTH",
"130 474 OFFCURVE",
"37 374 OFFCURVE",
"37 225 CURVE SMOOTH",
"37 82 OFFCURVE",
"134 -20 OFFCURVE",
"291 -20 CURVE SMOOTH",
"355 -20 OFFCURVE",
"423 4 OFFCURVE",
"484 56 CURVE"
);
},
{
closed = 1;
nodes = (
"151 265 LINE",
"154 327 OFFCURVE",
"207 376 OFFCURVE",
"274 376 CURVE SMOOTH",
"342 376 OFFCURVE",
"383 327 OFFCURVE",
"383 265 CURVE"
);
}
);
width = 532;
},
{
associatedMasterId = "6E1B38A8-44EA-440A-BD04-FE41D2B0BC62";
background = {
paths = (
{
closed = 1;
nodes = (
"381 -15 OFFCURVE",
"449 50 OFFCURVE",
"449 51 CURVE",
"413 98 LINE",
"413 98 OFFCURVE",
"354 49 OFFCURVE",
"261 49 CURVE SMOOTH",
"175 49 OFFCURVE",
"128 102 OFFCURVE",
"123 195 CURVE",
"445 197 LINE",
"465 392 OFFCURVE",
"367 444 OFFCURVE",
"260 444 CURVE SMOOTH",
"131 444 OFFCURVE",
"42 358 OFFCURVE",
"42 215 CURVE SMOOTH",
"42 72 OFFCURVE",
"131 -15 OFFCURVE",
"260 -15 CURVE SMOOTH"
);
},
{
closed = 1;
nodes = (
"336 380 OFFCURVE",
"375 338 OFFCURVE",
"376 258 CURVE",
"124 257 LINE",
"136 335 OFFCURVE",
"182 380 OFFCURVE",
"261 380 CURVE SMOOTH"
);
}
);
};
layerId = "C1FBB4FE-57FA-43C1-8B61-2A25CF22EE1D";
name = "Nov 1 16, 20:38";
paths = (
{
closed = 1;
nodes = (
"433 114 LINE",
"390 98 OFFCURVE",
"333 85 OFFCURVE",
"271 85 CURVE SMOOTH",
"200 85 OFFCURVE",
"165 117 OFFCURVE",
"160 181 CURVE",
"476 181 LINE",
"480 203 OFFCURVE",
"482 218 OFFCURVE",
"482 243 CURVE SMOOTH",
"482 397 OFFCURVE",
"403 474 OFFCURVE",
"270 474 CURVE SMOOTH",
"126 474 OFFCURVE",
"27 386 OFFCURVE",
"27 225 CURVE SMOOTH",
"27 63 OFFCURVE",
"126 -20 OFFCURVE",
"270 -20 CURVE SMOOTH",
"359 -20 OFFCURVE",
"426 6 OFFCURVE",
"474 34 CURVE"
);
},
{
closed = 1;
nodes = (
"163 275 LINE",
"177 334 OFFCURVE",
"196 368 OFFCURVE",
"271 368 CURVE SMOOTH",
"341 368 OFFCURVE",
"363 329 OFFCURVE",
"363 275 CURVE"
);
}
);
width = 508;
}
);
leftKerningGroup = o;
rightKerningGroup = e;
unicode = 0065;
},
{
glyphname = eacute;
layers = (
{
background = {
paths = (
{
closed = 1;
nodes = (
"135 -15 OFFCURVE",
"46 71 OFFCURVE",
"46 214 CURVE SMOOTH",
"46 357 OFFCURVE",
"135 444 OFFCURVE",
"264 444 CURVE SMOOTH",
"371 444 OFFCURVE",
"469 391 OFFCURVE",
"449 196 CURVE",
"127 194 LINE",
"132 101 OFFCURVE",
"179 49 OFFCURVE",
"265 49 CURVE SMOOTH",
"358 49 OFFCURVE",
"417 98 OFFCURVE",
"417 98 CURVE",
"453 51 LINE",
"453 50 OFFCURVE",
"385 -15 OFFCURVE",
"264 -15 CURVE SMOOTH"
);
},
{
closed = 1;
nodes = (
"186 380 OFFCURVE",
"140 334 OFFCURVE",
"128 256 CURVE",
"381 257 LINE",
"380 337 OFFCURVE",
"340 380 OFFCURVE",
"265 380 CURVE SMOOTH"
);
},
{
closed = 1;
nodes = (
"187 512 LINE",
"205 480 LINE",
"438 586 LINE",
"403 652 LINE"
);
}
);
};
components = (
{
name = e;
},
{
name = acutecomb;
transform = "{1, 0, 0, 1, 149, 0}";
}
);
layerId = UUID0;
width = 491;
},
{
components = (
{
name = e;
},
{
name = acutecomb;
transform = "{1, 0, 0, 1, 184, 0}";
}
);
layerId = "6E1B38A8-44EA-440A-BD04-FE41D2B0BC62";
width = 532;
}
);
leftKerningGroup = o;
rightKerningGroup = e;
unicode = 00E9;
},
{
glyphname = egrave;
layers = (
{
background = {
paths = (
{
closed = 1;
nodes = (
"333 512 LINE",
"315 480 LINE",
"82 586 LINE",
"117 652 LINE"
);
}
);
};
components = (
{
name = e;
},
{
name = gravecomb;
transform = "{1, 0, 0, 1, 50, 0}";
}
);
layerId = UUID0;
width = 491;
},
{
components = (
{
name = e;
},
{
name = gravecomb;
transform = "{1, 0, 0, 1, 37, 0}";
}
);
layerId = "6E1B38A8-44EA-440A-BD04-FE41D2B0BC62";
width = 532;
}
);
leftKerningGroup = o;
rightKerningGroup = e;
unicode = 00E8;
},
{
glyphname = f;
layers = (
{
anchors = (
{
name = bottom;
position = "{172, 0}";
},
{
name = top;
position = "{172, 429}";
}
);
layerId = UUID0;
paths = (
{
closed = 1;
nodes = (
"120 429 LINE",
"36 429 LINE",
"36 367 LINE",
"120 367 LINE",
"120 62 LINE",
"36 62 LINE",
"36 0 LINE",
"288 0 LINE",
"288 62 LINE",
"198 62 LINE",
"198 367 LINE",
"322 367 LINE",
"322 429 LINE",
"198 429 LINE",
"198 473 LINE SMOOTH",
"198 549 OFFCURVE",
"234 594 OFFCURVE",
"294 594 CURVE SMOOTH",
"334 594 OFFCURVE",
"370 582 OFFCURVE",
"393 561 CURVE",
"424 616 LINE",
"394 642 OFFCURVE",
"347 658 OFFCURVE",
"299 658 CURVE SMOOTH",
"186 658 OFFCURVE",
"120 595 OFFCURVE",
"120 489 CURVE SMOOTH"
);
}
);
width = 349;
},
{
anchors = (
{
name = bottom;
position = "{217, 0}";
},
{
name = top;
position = "{217, 454}";
}
);
background = {
paths = (
{
closed = 1;
nodes = (
"56 0 LINE",
"308 0 LINE",
"308 62 LINE",
"218 62 LINE",
"218 367 LINE",
"342 367 LINE",
"342 429 LINE",
"218 429 LINE",
"218 457 LINE SMOOTH",
"218 538 OFFCURVE",
"238 578 OFFCURVE",
"324 578 CURVE SMOOTH",
"386 578 OFFCURVE",
"423 555 OFFCURVE",
"423 555 CURVE",
"453 606 LINE",
"453 606 OFFCURVE",
"406 642 OFFCURVE",
"319 642 CURVE SMOOTH",
"191 642 OFFCURVE",
"140 585 OFFCURVE",
"140 473 CURVE SMOOTH",
"140 429 LINE",
"56 429 LINE",
"56 367 LINE",
"140 367 LINE",
"140 62 LINE",
"56 62 LINE"
);
}
);
};
layerId = "6E1B38A8-44EA-440A-BD04-FE41D2B0BC62";
paths = (
{
closed = 1;
nodes = (
"126 454 LINE",
"42 454 LINE",
"42 353 LINE",
"126 353 LINE",
"126 101 LINE",
"42 101 LINE",
"42 0 LINE",
"343 0 LINE",
"343 101 LINE",
"253 101 LINE",
"253 353 LINE",
"377 353 LINE",
"377 454 LINE",
"253 454 LINE",
"253 492 LINE SMOOTH",
"253 554 OFFCURVE",
"285 579 OFFCURVE",
"337 579 CURVE SMOOTH",
"361 579 OFFCURVE",
"390 570 OFFCURVE",
"422 553 CURVE",
"464 641 LINE",
"429 669 OFFCURVE",
"379 683 OFFCURVE",
"320 683 CURVE SMOOTH",
"193 683 OFFCURVE",
"126 617 OFFCURVE",
"126 490 CURVE SMOOTH"
);
}
);
width = 408;
}
);
leftKerningGroup = f;
rightKerningGroup = f;
unicode = 0066;
},
{
glyphname = g;
layers = (
{
anchors = (
{
name = bottom;
position = "{237, -223}";
},
{
name = top;
position = "{232, 429}";
}
);
background = {
components = (
{
name = o;
transform = "{1, 0, 0, 1, -28, -312}";
}
);
};
layerId = UUID0;
paths = (
{
closed = 1;
nodes = (
"351 118 OFFCURVE",
"429 182 OFFCURVE",
"429 283 CURVE SMOOTH",
"429 320 OFFCURVE",
"419 351 OFFCURVE",
"399 376 CURVE",
"517 403 LINE",
"494 469 LINE",
"352 416 LINE",
"319 435 OFFCURVE",
"280 444 OFFCURVE",
"230 444 CURVE SMOOTH",
"109 444 OFFCURVE",
"33 380 OFFCURVE",
"33 278 CURVE SMOOTH",
"33 178 OFFCURVE",
"107 118 OFFCURVE",
"229 118 CURVE SMOOTH"
);
},
{
closed = 1;
nodes = (
"370 -223 OFFCURVE",
"450 -173 OFFCURVE",
"450 -89 CURVE SMOOTH",
"450 -12 OFFCURVE",
"397 27 OFFCURVE",
"290 27 CURVE SMOOTH",
"202 27 LINE",
"202 137 LINE",
"126 162 LINE",
"126 -35 LINE",
"269 -35 LINE SMOOTH",
"336 -35 OFFCURVE",
"373 -54 OFFCURVE",
"373 -96 CURVE SMOOTH",
"373 -138 OFFCURVE",
"322 -157 OFFCURVE",
"237 -157 CURVE SMOOTH",
"178 -157 OFFCURVE",
"99 -141 OFFCURVE",
"51 -116 CURVE",
"23 -175 LINE",
"61 -198 OFFCURVE",
"173 -223 OFFCURVE",
"237 -223 CURVE SMOOTH"
);
},
{
closed = 1;
nodes = (
"158 182 OFFCURVE",
"112 223 OFFCURVE",
"112 281 CURVE SMOOTH",
"112 343 OFFCURVE",
"152 380 OFFCURVE",
"231 380 CURVE SMOOTH",
"310 380 OFFCURVE",
"350 343 OFFCURVE",
"350 281 CURVE SMOOTH",
"350 223 OFFCURVE",
"304 182 OFFCURVE",
"231 182 CURVE SMOOTH"
);
}
);
width = 535;
},
{
anchors = (
{
name = bottom;
position = "{250, -223}";
},
{
name = top;
position = "{253, 454}";
}
);
background = {
paths = (
{
closed = 1;
nodes = (
"530 403 LINE",
"506 469 LINE",
"365 416 LINE",
"332 435 OFFCURVE",
"293 444 OFFCURVE",
"243 444 CURVE SMOOTH",
"124 444 OFFCURVE",
"45 381 OFFCURVE",
"45 278 CURVE SMOOTH",
"45 211 OFFCURVE",
"82 166 OFFCURVE",
"119 146 CURVE",
"119 -35 LINE",
"282 -35 LINE SMOOTH",
"365 -35 OFFCURVE",
"390 -59 OFFCURVE",
"390 -96 CURVE SMOOTH",
"390 -141 OFFCURVE",
"336 -160 OFFCURVE",
"250 -160 CURVE SMOOTH",
"148 -160 OFFCURVE",
"64 -116 OFFCURVE",
"64 -116 CURVE",
"36 -175 LINE",
"41 -178 OFFCURVE",
"129 -223 OFFCURVE",
"250 -223 CURVE SMOOTH",
"360 -223 OFFCURVE",
"462 -187 OFFCURVE",
"462 -89 CURVE SMOOTH",
"462 -12 OFFCURVE",
"410 27 OFFCURVE",
"303 27 CURVE SMOOTH",
"191 27 LINE",
"191 121 LINE",
"191 121 OFFCURVE",
"212 118 OFFCURVE",
"242 118 CURVE SMOOTH",
"346 118 OFFCURVE",
"441 167 OFFCURVE",
"441 283 CURVE SMOOTH",
"441 320 OFFCURVE",
"431 352 OFFCURVE",
"412 376 CURVE"
);
},
{
closed = 1;
nodes = (
"122 353 OFFCURVE",
"169 388 OFFCURVE",
"244 388 CURVE SMOOTH",
"318 388 OFFCURVE",
"366 353 OFFCURVE",
"366 281 CURVE SMOOTH",
"366 209 OFFCURVE",
"308 174 OFFCURVE",
"244 174 CURVE SMOOTH",
"180 174 OFFCURVE",
"122 209 OFFCURVE",
"122 281 CURVE SMOOTH"
);
}
);
};
layerId = "6E1B38A8-44EA-440A-BD04-FE41D2B0BC62";
paths = (
{
closed = 1;
nodes = (
"370 114 OFFCURVE",
"476 159 OFFCURVE",
"476 289 CURVE SMOOTH",
"476 313 OFFCURVE",
"469 349 OFFCURVE",
"447 373 CURVE",
"570 389 LINE",
"531 501 LINE",
"377 448 LINE",
"340 468 OFFCURVE",
"304 474 OFFCURVE",
"253 474 CURVE SMOOTH",
"119 474 OFFCURVE",
"31 401 OFFCURVE",
"31 283 CURVE SMOOTH",
"31 173 OFFCURVE",
"113 114 OFFCURVE",
"252 114 CURVE SMOOTH"
);
},
{
closed = 1;
nodes = (
"383 -248 OFFCURVE",
"497 -205 OFFCURVE",
"497 -89 CURVE SMOOTH",
"497 4 OFFCURVE",
"436 60 OFFCURVE",
"313 60 CURVE SMOOTH",
"235 60 LINE",
"235 130 LINE",
"139 148 LINE",
"139 -46 LINE",
"302 -46 LINE SMOOTH",
"366 -46 OFFCURVE",
"375 -66 OFFCURVE",
"375 -88 CURVE SMOOTH",
"375 -111 OFFCURVE",
"352 -139 OFFCURVE",
"260 -139 CURVE SMOOTH",
"190 -139 OFFCURVE",
"138 -123 OFFCURVE",
"70 -95 CURVE",
"25 -195 LINE",
"60 -214 OFFCURVE",
"134 -248 OFFCURVE",
"260 -248 CURVE SMOOTH"
);
},
{
closed = 1;
nodes = (
"188 206 OFFCURVE",
"149 240 OFFCURVE",
"149 291 CURVE SMOOTH",
"149 349 OFFCURVE",
"188 380 OFFCURVE",
"254 380 CURVE SMOOTH",
"320 380 OFFCURVE",
"359 349 OFFCURVE",
"359 291 CURVE SMOOTH",
"359 240 OFFCURVE",
"320 206 OFFCURVE",
"254 206 CURVE SMOOTH"
);
}
);
width = 588;
}
);
leftKerningGroup = g;
rightKerningGroup = g;
unicode = 0067;
},
{
glyphname = h;
layers = (
{
anchors = (
{
name = bottom;
position = "{297, 0}";
},
{
name = center;
position = "{169, 497}";
},
{
name = top;
position = "{112, 593}";
}
);
layerId = UUID0;
paths = (
{
closed = 1;
nodes = (
"228 0 LINE",
"228 62 LINE",
"183 62 LINE",
"183 346 LINE",
"213 366 OFFCURVE",
"265 380 OFFCURVE",
"309 380 CURVE SMOOTH",
"383 380 OFFCURVE",
"415 344 OFFCURVE",
"415 259 CURVE SMOOTH",
"415 62 LINE",
"370 62 LINE",
"370 0 LINE",
"577 0 LINE",
"577 62 LINE",
"493 62 LINE",
"493 275 LINE SMOOTH",
"493 391 OFFCURVE",
"437 444 OFFCURVE",
"314 444 CURVE SMOOTH",
"272 444 OFFCURVE",
"225 429 OFFCURVE",
"183 402 CURVE",
"183 598 LINE",
"31 650 LINE",
"10 588 LINE",
"105 555 LINE",
"105 62 LINE",
"21 62 LINE",
"21 0 LINE"
);
}
);
width = 600;
},
{
anchors = (
{
name = bottom;
position = "{320, 0}";
},
{
name = center;
position = "{174, 512}";
},
{
name = top;
position = "{122, 624}";
}
);
background = {
paths = (
{
closed = 1;
nodes = (
"25 588 LINE",
"120 555 LINE",
"120 62 LINE",
"36 62 LINE",
"36 0 LINE",
"243 0 LINE",
"243 62 LINE",
"198 62 LINE",
"198 346 LINE",
"198 346 OFFCURVE",
"252 380 OFFCURVE",
"324 380 CURVE SMOOTH",
"410 380 OFFCURVE",
"430 330 OFFCURVE",
"430 259 CURVE SMOOTH",
"430 62 LINE",
"385 62 LINE",
"385 0 LINE",
"592 0 LINE",
"592 62 LINE",
"508 62 LINE",
"508 275 LINE SMOOTH",
"508 387 OFFCURVE",
"457 444 OFFCURVE",
"329 444 CURVE SMOOTH",
"273 444 OFFCURVE",
"226 420 OFFCURVE",
"198 402 CURVE",
"198 598 LINE",
"46 650 LINE"
);
}
);
};
layerId = "6E1B38A8-44EA-440A-BD04-FE41D2B0BC62";
paths = (
{
closed = 1;
nodes = (
"273 0 LINE",
"273 101 LINE",
"233 101 LINE",
"233 343 LINE",
"267 357 OFFCURVE",
"309 367 OFFCURVE",
"335 367 CURVE SMOOTH",
"391 367 OFFCURVE",
"416 337 OFFCURVE",
"416 270 CURVE SMOOTH",
"416 101 LINE",
"376 101 LINE",
"376 0 LINE",
"627 0 LINE",
"627 101 LINE",
"543 101 LINE",
"543 286 LINE SMOOTH",
"543 406 OFFCURVE",
"484 474 OFFCURVE",
"381 474 CURVE SMOOTH",
"326 474 OFFCURVE",
"272 461 OFFCURVE",
"232 438 CURVE",
"232 615 LINE",
"43 679 LINE",
"10 577 LINE",
"105 545 LINE",
"105 101 LINE",
"22 101 LINE",
"22 0 LINE"
);
}
);
width = 652;
}
);
leftKerningGroup = h;
rightKerningGroup = n;
unicode = 0068;
},
{
glyphname = hbar;
layers = (
{
layerId = UUID0;
paths = (
{
closed = 1;
nodes = (
"228 0 LINE",
"228 62 LINE",
"183 62 LINE",
"183 331 LINE",
"213 351 OFFCURVE",
"265 365 OFFCURVE",
"309 365 CURVE SMOOTH",
"383 365 OFFCURVE",
"415 329 OFFCURVE",
"415 244 CURVE SMOOTH",
"415 62 LINE",
"370 62 LINE",
"370 0 LINE",
"577 0 LINE",
"577 62 LINE",
"493 62 LINE",
"493 260 LINE SMOOTH",
"493 376 OFFCURVE",
"437 429 OFFCURVE",
"314 429 CURVE SMOOTH",
"272 429 OFFCURVE",
"225 414 OFFCURVE",
"183 387 CURVE",
"183 598 LINE",
"31 650 LINE",
"10 588 LINE",
"105 555 LINE",
"105 62 LINE",
"21 62 LINE",
"21 0 LINE"
);
},
{
closed = 1;
nodes = (
"15 465 LINE",
"322 465 LINE",
"322 525 LINE",
"15 525 LINE"
);
}
);
width = 600;
},
{
background = {
paths = (
{
closed = 1;
nodes = (
"228 0 LINE",
"228 62 LINE",
"183 62 LINE",
"183 331 LINE",
"213 351 OFFCURVE",
"265 365 OFFCURVE",
"309 365 CURVE SMOOTH",
"383 365 OFFCURVE",
"415 329 OFFCURVE",
"415 244 CURVE SMOOTH",
"415 62 LINE",
"370 62 LINE",
"370 0 LINE",
"577 0 LINE",
"577 62 LINE",
"493 62 LINE",
"493 260 LINE SMOOTH",
"493 376 OFFCURVE",
"437 429 OFFCURVE",
"314 429 CURVE SMOOTH",
"272 429 OFFCURVE",
"225 414 OFFCURVE",
"183 387 CURVE",
"183 598 LINE",
"31 650 LINE",
"10 588 LINE",
"105 555 LINE",
"105 62 LINE",
"21 62 LINE",
"21 0 LINE"
);
},
{
closed = 1;
nodes = (
"15 463 LINE",
"322 463 LINE",
"322 525 LINE",
"15 525 LINE"
);
}
);
};
layerId = "6E1B38A8-44EA-440A-BD04-FE41D2B0BC62";
paths = (
{
closed = 1;
nodes = (
"273 0 LINE",
"273 101 LINE",
"233 101 LINE",
"233 283 LINE",
"267 297 OFFCURVE",
"309 307 OFFCURVE",
"335 307 CURVE SMOOTH",
"391 307 OFFCURVE",
"416 277 OFFCURVE",
"416 210 CURVE SMOOTH",
"416 101 LINE",
"376 101 LINE",
"376 0 LINE",
"627 0 LINE",
"627 101 LINE",
"543 101 LINE",
"543 226 LINE SMOOTH",
"543 346 OFFCURVE",
"484 414 OFFCURVE",
"381 414 CURVE SMOOTH",
"326 414 OFFCURVE",
"272 401 OFFCURVE",
"232 378 CURVE",
"232 615 LINE",
"43 679 LINE",
"10 577 LINE",
"105 545 LINE",
"105 101 LINE",
"22 101 LINE",
"22 0 LINE"
);
},
{
closed = 1;
nodes = (
"16 461 LINE",
"341 461 LINE",
"341 522 LINE",
"16 522 LINE"
);
}
);
width = 652;
}
);
leftKerningGroup = hbar;
rightKerningGroup = hbar;
unicode = 0127;
},
{
glyphname = i;
layers = (
{
background = {
paths = (
{
closed = 1;
nodes = (
"46 367 LINE",
"129 367 LINE",
"129 62 LINE",
"46 62 LINE",
"46 0 LINE",
"291 0 LINE",
"291 62 LINE",
"208 62 LINE",
"208 429 LINE",
"46 429 LINE"
);
},
{
closed = 1;
nodes = (
"223 621 OFFCURVE",
"194 650 OFFCURVE",
"161 650 CURVE SMOOTH",
"127 650 OFFCURVE",
"100 621 OFFCURVE",
"100 588 CURVE SMOOTH",
"100 554 OFFCURVE",
"127 526 OFFCURVE",
"161 526 CURVE SMOOTH",
"194 526 OFFCURVE",
"223 554 OFFCURVE",
"223 588 CURVE SMOOTH"
);
}
);
};
components = (
{
name = idotless;
},
{
name = dotaccentcomb;
transform = "{1, 0, 0, 1, 37, 0}";
}
);
layerId = UUID0;
width = 304;
},
{
background = {
paths = (
{
closed = 1;
nodes = (
"26 367 LINE",
"109 367 LINE",
"109 62 LINE",
"26 62 LINE",
"26 0 LINE",
"271 0 LINE",
"271 62 LINE",
"188 62 LINE",
"188 429 LINE",
"26 429 LINE"
);
},
{
closed = 1;
nodes = (
"203 613 OFFCURVE",
"174 642 OFFCURVE",
"141 642 CURVE SMOOTH",
"107 642 OFFCURVE",
"80 613 OFFCURVE",
"80 580 CURVE SMOOTH",
"80 546 OFFCURVE",
"107 518 OFFCURVE",
"141 518 CURVE SMOOTH",
"174 518 OFFCURVE",
"203 546 OFFCURVE",
"203 580 CURVE SMOOTH"
);
}
);
};
components = (
{
name = idotless;
},
{
name = dotaccentcomb;
transform = "{1, 0, 0, 1, 18, 0}";
}
);
layerId = "6E1B38A8-44EA-440A-BD04-FE41D2B0BC62";
width = 360;
}
);
leftKerningGroup = i;
rightKerningGroup = i;
unicode = 0069;
},
{
glyphname = idotless;
layers = (
{
anchors = (
{
name = bottom;
position = "{179, 0}";
},
{
name = ogonek;
position = "{213, 0}";
},
{
name = top;
position = "{149, 429}";
}
);
layerId = UUID0;
paths = (
{
closed = 1;
nodes = (
"36 367 LINE",
"119 367 LINE",
"119 62 LINE",
"36 62 LINE",
"36 0 LINE",
"281 0 LINE",
"281 62 LINE",
"198 62 LINE",
"198 429 LINE",
"36 429 LINE"
);
}
);
width = 304;
},
{
anchors = (
{
name = bottom;
position = "{239, 0}";
},
{
name = ogonek;
position = "{284, 0}";
},
{
name = top;
position = "{179, 454}";
}
);
layerId = "6E1B38A8-44EA-440A-BD04-FE41D2B0BC62";
paths = (
{
closed = 1;
nodes = (
"42 353 LINE",
"125 353 LINE",
"125 101 LINE",
"42 101 LINE",
"42 0 LINE",
"335 0 LINE",
"335 101 LINE",
"252 101 LINE",
"252 454 LINE",
"42 454 LINE"
);
}
);
width = 360;
}
);
leftKerningGroup = i;
rightKerningGroup = i;
unicode = 0131;
},
{
glyphname = iacute;
layers = (
{
background = {
paths = (
{
closed = 1;
nodes = (
"46 367 LINE",
"129 367 LINE",
"129 62 LINE",
"46 62 LINE",
"46 0 LINE",
"291 0 LINE",
"291 62 LINE",
"208 62 LINE",
"208 429 LINE",
"46 429 LINE"
);
},
{
closed = 1;
nodes = (
"81 512 LINE",
"98 480 LINE",
"332 586 LINE",
"296 652 LINE"
);
}
);
};
components = (
{
name = idotless;
},
{
name = acutecomb;
transform = "{1, 0, 0, 1, 44, 0}";
}
);
layerId = UUID0;
width = 304;
},
{
components = (
{
name = idotless;
},
{
name = acutecomb;
transform = "{1, 0, 0, 1, 96, 0}";
}
);
layerId = "6E1B38A8-44EA-440A-BD04-FE41D2B0BC62";
width = 360;
}
);
leftKerningGroup = i;
rightKerningGroup = i;
unicode = 00ED;
},
{
glyphname = igrave;
layers = (
{
background = {
paths = (
{
closed = 1;
nodes = (
"46 367 LINE",
"129 367 LINE",
"129 62 LINE",
"46 62 LINE",
"46 0 LINE",
"291 0 LINE",
"291 62 LINE",
"208 62 LINE",
"208 429 LINE",
"46 429 LINE"
);
},
{
closed = 1;
nodes = (
"228 512 LINE",
"209 480 LINE",
"-23 586 LINE",
"11 652 LINE"
);
}
);
};
components = (
{
name = idotless;
},
{
name = gravecomb;
transform = "{1, 0, 0, 1, -55, 0}";
}
);
layerId = UUID0;
width = 304;
},
{
components = (
{
name = idotless;
},
{
name = gravecomb;
transform = "{1, 0, 0, 1, -51, 0}";
}
);
layerId = "6E1B38A8-44EA-440A-BD04-FE41D2B0BC62";
width = 360;
}
);
leftKerningGroup = i;
rightKerningGroup = i;
unicode = 00EC;
},
{
glyphname = j;
layers = (
{
background = {
paths = (
{
closed = 1;
nodes = (
"204 621 OFFCURVE",
"175 650 OFFCURVE",
"142 650 CURVE SMOOTH",
"108 650 OFFCURVE",
"80 621 OFFCURVE",
"80 588 CURVE SMOOTH",
"80 554 OFFCURVE",
"108 526 OFFCURVE",
"142 526 CURVE SMOOTH",
"175 526 OFFCURVE",
"204 554 OFFCURVE",
"204 588 CURVE SMOOTH"
);
}
);
};
components = (
{
name = jdotless;
},
{
name = dotaccentcomb;
transform = "{1, 0, 0, 1, 25, 0}";
}
);
layerId = UUID0;
width = 254;
},
{
background = {
paths = (
{
closed = 1;
nodes = (
"51 367 LINE",
"135 367 LINE",
"135 -37 LINE SMOOTH",
"135 -87 OFFCURVE",
"142 -160 OFFCURVE",
"34 -160 CURVE SMOOTH",
"18 -160 OFFCURVE",
"5 -159 OFFCURVE",
"-8 -158 CURVE",
"-18 -219 LINE",
"-6 -220 OFFCURVE",
"18 -223 OFFCURVE",
"31 -223 CURVE SMOOTH",
"211 -223 OFFCURVE",
"213 -114 OFFCURVE",
"213 -31 CURVE SMOOTH",
"213 429 LINE",
"51 429 LINE"
);
},
{
closed = 1;
nodes = (
"230 613 OFFCURVE",
"201 642 OFFCURVE",
"168 642 CURVE SMOOTH",
"134 642 OFFCURVE",
"106 613 OFFCURVE",
"106 580 CURVE SMOOTH",
"106 546 OFFCURVE",
"134 518 OFFCURVE",
"168 518 CURVE SMOOTH",
"201 518 OFFCURVE",
"230 546 OFFCURVE",
"230 580 CURVE SMOOTH"
);
}
);
};
components = (
{
name = jdotless;
},
{
name = dotaccentcomb;
transform = "{1, 0, 0, 1, 4, 0}";
}
);
layerId = "6E1B38A8-44EA-440A-BD04-FE41D2B0BC62";
width = 291;
}
);
leftKerningGroup = jdotless;
rightKerningGroup = jdotless;
unicode = 006A;
},
{
glyphname = jdotless;
layers = (
{
anchors = (
{
name = bottom;
position = "{117, 0}";
},
{
name = top;
position = "{137, 429}";
}
);
layerId = UUID0;
paths = (
{
closed = 1;
nodes = (
"185 429 LINE",
"23 429 LINE",
"23 367 LINE",
"107 367 LINE",
"107 -37 LINE SMOOTH",
"107 -87 OFFCURVE",
"114 -160 OFFCURVE",
"6 -160 CURVE SMOOTH",
"-10 -160 OFFCURVE",
"-23 -159 OFFCURVE",
"-36 -158 CURVE",
"-46 -219 LINE",
"-34 -220 OFFCURVE",
"-10 -223 OFFCURVE",
"3 -223 CURVE SMOOTH",
"183 -223 OFFCURVE",
"185 -114 OFFCURVE",
"185 -31 CURVE SMOOTH"
);
}
);
width = 254;
},
{
anchors = (
{
name = bottom;
position = "{115, 0}";
},
{
name = top;
position = "{165, 454}";
}
);
layerId = "6E1B38A8-44EA-440A-BD04-FE41D2B0BC62";
paths = (
{
closed = 1;
nodes = (
"236 454 LINE",
"25 454 LINE",
"25 353 LINE",
"109 353 LINE",
"109 -51 LINE SMOOTH",
"109 -94 OFFCURVE",
"107 -141 OFFCURVE",
"32 -141 CURVE SMOOTH",
"18 -141 OFFCURVE",
"-11 -139 OFFCURVE",
"-28 -136 CURVE",
"-41 -236 LINE",
"-20 -240 OFFCURVE",
"10 -248 OFFCURVE",
"44 -248 CURVE SMOOTH",
"236 -248 OFFCURVE",
"236 -130 OFFCURVE",
"236 -36 CURVE SMOOTH"
);
}
);
width = 291;
}
);
leftKerningGroup = jdotless;
rightKerningGroup = jdotless;
unicode = 0237;
},
{
glyphname = k;
layers = (
{
anchors = (
{
name = bottom;
position = "{308, 0}";
},
{
name = top;
position = "{114, 589}";
}
);
layerId = UUID0;
paths = (
{
closed = 1;
nodes = (
"12 589 LINE",
"107 556 LINE",
"107 62 LINE",
"23 62 LINE",
"23 0 LINE",
"230 0 LINE",
"230 62 LINE",
"185 62 LINE",
"185 187 LINE",
"273 187 LINE",
"386 0 LINE",
"519 0 LINE",
"519 62 LINE",
"433 62 LINE",
"336 224 LINE",
"419 367 LINE",
"503 367 LINE",
"503 429 LINE",
"293 429 LINE",
"293 367 LINE",
"345 367 LINE",
"276 249 LINE",
"185 249 LINE",
"185 599 LINE",
"33 651 LINE"
);
}
);
width = 551;
},
{
anchors = (
{
name = bottom;
position = "{309, 0}";
},
{
name = top;
position = "{145, 589}";
}
);
background = {
paths = (
{
closed = 1;
nodes = (
"519 429 LINE",
"309 429 LINE",
"309 367 LINE",
"361 367 LINE",
"292 249 LINE",
"201 249 LINE",
"201 599 LINE",
"49 651 LINE",
"28 589 LINE",
"123 556 LINE",
"123 62 LINE",
"39 62 LINE",
"39 0 LINE",
"246 0 LINE",
"246 62 LINE",
"201 62 LINE",
"201 187 LINE",
"289 187 LINE",
"403 0 LINE",
"535 0 LINE",
"535 62 LINE",
"449 62 LINE",
"352 224 LINE",
"351 224 LINE",
"435 367 LINE",
"519 367 LINE"
);
}
);
};
layerId = "6E1B38A8-44EA-440A-BD04-FE41D2B0BC62";
paths = (
{
closed = 1;
nodes = (
"14 577 LINE",
"109 545 LINE",
"109 101 LINE",
"25 101 LINE",
"25 0 LINE",
"265 0 LINE",
"265 101 LINE",
"236 101 LINE",
"236 173 LINE",
"307 173 LINE",
"417 0 LINE",
"560 0 LINE",
"560 101 LINE",
"478 101 LINE",
"390 225 LINE",
"478 353 LINE",
"551 353 LINE",
"551 454 LINE",
"299 454 LINE",
"299 353 LINE",
"349 353 LINE",
"302 273 LINE",
"236 273 LINE",
"236 615 LINE",
"47 679 LINE"
);
}
);
width = 599;
}
);
leftKerningGroup = h;
rightKerningGroup = k;
unicode = 006B;
},
{
glyphname = l;
layers = (
{
anchors = (
{
name = bottom;
position = "{146, 0}";
},
{
name = center;
position = "{146, 215}";
},
{
name = top;
position = "{133, 625}";
},
{
name = topright;
position = "{274, 429}";
}
);
layerId = UUID0;
paths = (
{
closed = 1;
nodes = (
"269 0 LINE",
"269 62 LINE",
"185 62 LINE",
"185 615 LINE",
"24 652 LINE",
"7 588 LINE",
"107 566 LINE",
"107 62 LINE",
"23 62 LINE",
"23 0 LINE"
);
}
);
width = 292;
},
{
anchors = (
{
name = bottom;
position = "{171, 0}";
},
{
name = center;
position = "{171, 227}";
},
{
name = top;
position = "{161, 636}";
},
{
name = topright;
position = "{314, 454}";
}
);
background = {
paths = (
{
closed = 1;
nodes = (
"47 652 LINE",
"30 588 LINE",
"130 566 LINE",
"130 62 LINE",
"46 62 LINE",
"46 0 LINE",
"292 0 LINE",
"292 62 LINE",
"208 62 LINE",
"208 615 LINE"
);
}
);
};
layerId = "6E1B38A8-44EA-440A-BD04-FE41D2B0BC62";
paths = (
{
closed = 1;
nodes = (
"326 0 LINE",
"326 101 LINE",
"242 101 LINE",
"242 615 LINE",
"53 679 LINE",
"20 577 LINE",
"115 545 LINE",
"115 101 LINE",
"31 101 LINE",
"31 0 LINE"
);
}
);
width = 351;
}
);
leftKerningGroup = h;
rightKerningGroup = l;
unicode = 006C;
},
{
glyphname = lcaron;
layers = (
{
layerId = UUID0;
paths = (
{
closed = 1;
nodes = (
"269 0 LINE",
"269 62 LINE",
"185 62 LINE",
"185 545 LINE",
"24 582 LINE",
"7 518 LINE",
"107 496 LINE",
"107 62 LINE",
"23 62 LINE",
"23 0 LINE"
);
},
{
closed = 1;
nodes = (
"-18 709 LINE",
"133 602 LINE",
"284 709 LINE",
"266 741 LINE",
"133 675 LINE",
"0 741 LINE"
);
}
);
width = 292;
},
{
layerId = "6E1B38A8-44EA-440A-BD04-FE41D2B0BC62";
paths = (
{
closed = 1;
nodes = (
"326 0 LINE",
"326 101 LINE",
"242 101 LINE",
"242 525 LINE",
"53 589 LINE",
"20 487 LINE",
"115 455 LINE",
"115 101 LINE",
"31 101 LINE",
"31 0 LINE"
);
},
{
closed = 1;
nodes = (
"-16 715 LINE",
"161 599 LINE",
"337 715 LINE",
"292 772 LINE",
"161 711 LINE",
"34 772 LINE"
);
}
);
width = 351;
}
);
leftKerningGroup = I;
rightKerningGroup = l;
unicode = 013E;
},
{
glyphname = lslash;
layers = (
{
background = {
paths = (
{
closed = 1;
nodes = (
"37 281 LINE",
"260 472 LINE",
"260 534 LINE",
"37 343 LINE"
);
}
);
};
components = (
{
name = l;
}
);
layerId = UUID0;
paths = (
{
closed = 1;
nodes = (
"37 191 LINE",
"260 382 LINE",
"260 454 LINE",
"37 263 LINE"
);
}
);
width = 292;
},
{
background = {
paths = (
{
closed = 1;
nodes = (
"63 182 LINE",
"341 429 LINE",
"341 530 LINE",
"63 283 LINE"
);
}
);
};
components = (
{
name = l;
}
);
layerId = "6E1B38A8-44EA-440A-BD04-FE41D2B0BC62";
paths = (
{
closed = 1;
nodes = (
"43 172 LINE",
"321 419 LINE",
"321 520 LINE",
"43 273 LINE"
);
}
);
width = 351;
}
);
leftKerningGroup = hbar;
rightKerningGroup = l;
unicode = 0142;
},
{
glyphname = m;
layers = (
{
anchors = (
{
name = bottom;
position = "{438, 0}";
},
{
name = top;
position = "{438, 429}";
}
);
layerId = UUID0;
paths = (
{
closed = 1;
nodes = (
"249 0 LINE",
"249 62 LINE",
"204 62 LINE",
"204 346 LINE",
"225 366 OFFCURVE",
"270 380 OFFCURVE",
"313 380 CURVE SMOOTH",
"385 380 OFFCURVE",
"412 347 OFFCURVE",
"412 259 CURVE SMOOTH",
"412 62 LINE",
"367 62 LINE",
"367 0 LINE",
"535 0 LINE",
"535 62 LINE",
"490 62 LINE",
"490 346 LINE",
"511 366 OFFCURVE",
"556 380 OFFCURVE",
"599 380 CURVE SMOOTH",
"671 380 OFFCURVE",
"698 347 OFFCURVE",
"698 259 CURVE SMOOTH",
"698 62 LINE",
"653 62 LINE",
"653 0 LINE",
"860 0 LINE",
"860 62 LINE",
"776 62 LINE",
"776 275 LINE SMOOTH",
"776 394 OFFCURVE",
"725 444 OFFCURVE",
"604 444 CURVE SMOOTH",
"554 444 OFFCURVE",
"495 423 OFFCURVE",
"462 392 CURVE",
"434 426 OFFCURVE",
"385 444 OFFCURVE",
"318 444 CURVE SMOOTH",
"272 444 OFFCURVE",
"220 426 OFFCURVE",
"183 398 CURVE",
"51 444 LINE",
"30 382 LINE",
"126 349 LINE",
"126 62 LINE",
"42 62 LINE",
"42 0 LINE"
);
}
);
width = 883;
},
{
anchors = (
{
name = bottom;
position = "{476, 0}";
},
{
name = top;
position = "{476, 454}";
}
);
background = {
paths = (
{
closed = 1;
nodes = (
"47 382 LINE",
"143 349 LINE",
"143 62 LINE",
"59 62 LINE",
"59 0 LINE",
"266 0 LINE",
"266 62 LINE",
"221 62 LINE",
"221 346 LINE",
"221 346 OFFCURVE",
"258 380 OFFCURVE",
"330 380 CURVE SMOOTH",
"416 380 OFFCURVE",
"429 330 OFFCURVE",
"429 259 CURVE SMOOTH",
"429 62 LINE",
"384 62 LINE",
"384 0 LINE",
"552 0 LINE",
"552 62 LINE",
"507 62 LINE",
"507 346 LINE",
"507 346 OFFCURVE",
"544 380 OFFCURVE",
"616 380 CURVE SMOOTH",
"702 380 OFFCURVE",
"715 330 OFFCURVE",
"715 259 CURVE SMOOTH",
"715 62 LINE",
"670 62 LINE",
"670 0 LINE",
"877 0 LINE",
"877 62 LINE",
"793 62 LINE",
"793 275 LINE SMOOTH",
"793 387 OFFCURVE",
"749 444 OFFCURVE",
"621 444 CURVE SMOOTH",
"534 444 OFFCURVE",
"479 392 OFFCURVE",
"479 392 CURVE",
"477 391 LINE",
"451 426 OFFCURVE",
"406 444 OFFCURVE",
"335 444 CURVE SMOOTH",
"264 444 OFFCURVE",
"217 411 OFFCURVE",
"200 398 CURVE",
"68 444 LINE"
);
}
);
};
layerId = "6E1B38A8-44EA-440A-BD04-FE41D2B0BC62";
paths = (
{
closed = 1;
nodes = (
"296 0 LINE",
"296 102 LINE",
"256 102 LINE",
"256 331 LINE",
"281 350 OFFCURVE",
"316 364 OFFCURVE",
"341 364 CURVE SMOOTH",
"395 364 OFFCURVE",
"415 337 OFFCURVE",
"415 267 CURVE SMOOTH",
"415 102 LINE",
"376 102 LINE",
"376 0 LINE",
"579 0 LINE",
"579 102 LINE",
"542 102 LINE",
"542 331 LINE",
"565 350 OFFCURVE",
"601 364 OFFCURVE",
"626 364 CURVE SMOOTH",
"680 364 OFFCURVE",
"700 337 OFFCURVE",
"700 267 CURVE SMOOTH",
"700 102 LINE",
"663 102 LINE",
"663 0 LINE",
"912 0 LINE",
"912 102 LINE",
"827 102 LINE",
"827 270 LINE SMOOTH",
"827 417 OFFCURVE",
"773 474 OFFCURVE",
"646 474 CURVE SMOOTH",
"588 474 OFFCURVE",
"538 449 OFFCURVE",
"495 416 CURVE",
"464 455 OFFCURVE",
"415 474 OFFCURVE",
"364 474 CURVE SMOOTH",
"311 474 OFFCURVE",
"256 455 OFFCURVE",
"213 418 CURVE",
"67 464 LINE",
"34 362 LINE",
"129 333 LINE",
"129 102 LINE",
"46 102 LINE",
"46 0 LINE"
);
}
);
width = 937;
}
);
leftKerningGroup = n;
rightKerningGroup = n;
unicode = 006D;
},
{
glyphname = n;
layers = (
{
anchors = (
{
name = bottom;
position = "{306, 0}";
},
{
name = top;
position = "{306, 429}";
}
);
layerId = UUID0;
paths = (
{
closed = 1;
nodes = (
"249 0 LINE",
"249 62 LINE",
"204 62 LINE",
"204 346 LINE",
"244 368 OFFCURVE",
"286 380 OFFCURVE",
"323 380 CURVE SMOOTH",
"387 380 OFFCURVE",
"436 344 OFFCURVE",
"436 259 CURVE SMOOTH",
"436 62 LINE",
"391 62 LINE",
"391 0 LINE",
"598 0 LINE",
"598 62 LINE",
"514 62 LINE",
"514 275 LINE SMOOTH",
"514 388 OFFCURVE",
"431 444 OFFCURVE",
"336 444 CURVE SMOOTH",
"285 444 OFFCURVE",
"231 429 OFFCURVE",
"184 398 CURVE",
"51 444 LINE",
"30 382 LINE",
"126 349 LINE",
"126 62 LINE",
"42 62 LINE",
"42 0 LINE"
);
}
);
width = 621;
},
{
anchors = (
{
name = bottom;
position = "{344, 0}";
},
{
name = top;
position = "{344, 454}";
}
);
background = {
paths = (
{
closed = 1;
nodes = (
"49 382 LINE",
"145 349 LINE",
"145 62 LINE",
"60 62 LINE",
"60 0 LINE",
"267 0 LINE",
"267 62 LINE",
"222 62 LINE",
"222 346 LINE",
"222 346 OFFCURVE",
"277 380 OFFCURVE",
"348 380 CURVE SMOOTH",
"434 380 OFFCURVE",
"454 330 OFFCURVE",
"454 259 CURVE SMOOTH",
"454 62 LINE",
"409 62 LINE",
"409 0 LINE",
"616 0 LINE",
"616 62 LINE",
"532 62 LINE",
"532 275 LINE SMOOTH",
"532 387 OFFCURVE",
"482 444 OFFCURVE",
"354 444 CURVE SMOOTH",
"282 444 OFFCURVE",
"222 411 OFFCURVE",
"202 398 CURVE",
"70 444 LINE"
);
}
);
};
layerId = "6E1B38A8-44EA-440A-BD04-FE41D2B0BC62";
paths = (
{
closed = 1;
nodes = (
"297 0 LINE",
"297 101 LINE",
"257 101 LINE",
"257 328 LINE",
"279 345 OFFCURVE",
"319 362 OFFCURVE",
"359 362 CURVE SMOOTH",
"422 362 OFFCURVE",
"440 322 OFFCURVE",
"440 266 CURVE SMOOTH",
"440 101 LINE",
"399 101 LINE",
"399 0 LINE",
"649 0 LINE",
"649 101 LINE",
"566 101 LINE",
"566 281 LINE SMOOTH",
"566 387 OFFCURVE",
"522 474 OFFCURVE",
"391 474 CURVE SMOOTH",
"308 474 OFFCURVE",
"262 451 OFFCURVE",
"209 415 CURVE",
"68 463 LINE",
"35 361 LINE",
"131 328 LINE",
"131 101 LINE",
"46 101 LINE",
"46 0 LINE"
);
}
);
width = 675;
}
);
leftKerningGroup = n;
rightKerningGroup = n;
unicode = 006E;
},
{
glyphname = eng;
layers = (
{
background = {
anchors = (
{
name = bottom;
position = "{347, -223}";
},
{
name = top;
position = "{342, 429}";
}
);
paths = (
{
closed = 1;
nodes = (
"440 -36 LINE",
"440 -119 OFFCURVE",
"389 -157 OFFCURVE",
"304 -157 CURVE SMOOTH",
"245 -157 OFFCURVE",
"166 -141 OFFCURVE",
"118 -116 CURVE",
"90 -175 LINE",
"128 -198 OFFCURVE",
"240 -223 OFFCURVE",
"304 -223 CURVE SMOOTH",
"437 -223 OFFCURVE",
"517 -151 OFFCURVE",
"517 -29 CURVE"
);
}
);
};
layerId = UUID0;
paths = (
{
closed = 1;
nodes = (
"282 444 OFFCURVE",
"229 428 OFFCURVE",
"184 398 CURVE",
"51 444 LINE",
"30 382 LINE",
"126 349 LINE",
"126 62 LINE",
"42 62 LINE",
"42 0 LINE",
"249 0 LINE",
"249 62 LINE",
"204 62 LINE",
"204 346 LINE",
"244 368 OFFCURVE",
"286 380 OFFCURVE",
"323 380 CURVE SMOOTH",
"395 380 OFFCURVE",
"436 336 OFFCURVE",
"436 259 CURVE SMOOTH",
"436 1 LINE SMOOTH",
"436 -106 OFFCURVE",
"402 -152 OFFCURVE",
"335 -152 CURVE SMOOTH",
"309 -152 OFFCURVE",
"279 -145 OFFCURVE",
"245 -133 CURVE",
"227 -195 LINE",
"272 -214 OFFCURVE",
"312 -223 OFFCURVE",
"347 -223 CURVE SMOOTH",
"454 -223 OFFCURVE",
"514 -135 OFFCURVE",
"514 21 CURVE SMOOTH",
"514 275 LINE SMOOTH",
"514 377 OFFCURVE",
"443 444 OFFCURVE",
"336 444 CURVE SMOOTH"
);
}
);
width = 564;
},
{
background = {
anchors = (
{
name = bottom;
position = "{360, -223}";
},
{
name = top;
position = "{363, 454}";
}
);
paths = (
{
closed = 1;
nodes = (
"440 -29 LINE",
"440 -90 OFFCURVE",
"399 -139 OFFCURVE",
"327 -139 CURVE SMOOTH",
"257 -139 OFFCURVE",
"205 -123 OFFCURVE",
"137 -95 CURVE",
"92 -195 LINE",
"127 -214 OFFCURVE",
"201 -248 OFFCURVE",
"327 -248 CURVE SMOOTH",
"450 -248 OFFCURVE",
"566 -189 OFFCURVE",
"566 -29 CURVE"
);
}
);
};
layerId = "6E1B38A8-44EA-440A-BD04-FE41D2B0BC62";
paths = (
{
closed = 1;
nodes = (
"320 474 OFFCURVE",
"273 459 OFFCURVE",
"209 415 CURVE",
"68 463 LINE",
"35 361 LINE",
"131 328 LINE",
"131 101 LINE",
"46 101 LINE",
"46 0 LINE",
"297 0 LINE",
"297 101 LINE",
"257 101 LINE",
"257 328 LINE",
"283 348 OFFCURVE",
"325 362 OFFCURVE",
"359 362 CURVE SMOOTH",
"414 362 OFFCURVE",
"440 331 OFFCURVE",
"440 266 CURVE SMOOTH",
"440 -29 LINE SMOOTH",
"440 -105 OFFCURVE",
"400 -148 OFFCURVE",
"338 -148 CURVE SMOOTH",
"308 -148 OFFCURVE",
"273 -143 OFFCURVE",
"235 -128 CURVE",
"203 -217 LINE",
"257 -240 OFFCURVE",
"305 -248 OFFCURVE",
"367 -248 CURVE SMOOTH",
"491 -248 OFFCURVE",
"566 -165 OFFCURVE",
"566 -9 CURVE SMOOTH",
"566 281 LINE SMOOTH",
"566 406 OFFCURVE",
"505 474 OFFCURVE",
"391 474 CURVE SMOOTH"
);
}
);
width = 616;
}
);
leftKerningGroup = n;
rightKerningGroup = j;
unicode = 014B;
},
{
glyphname = o;
layers = (
{
anchors = (
{
name = bottom;
position = "{261, 0}";
},
{
name = center;
position = "{261, 215}";
},
{
name = ogonek;
position = "{393, 23}";
},
{
name = top;
position = "{261, 429}";
},
{
name = topright;
position = "{396, 406}";
}
);
layerId = UUID0;
paths = (
{
closed = 1;
nodes = (
"130 444 OFFCURVE",
"41 357 OFFCURVE",
"41 214 CURVE SMOOTH",
"41 71 OFFCURVE",
"130 -15 OFFCURVE",
"259 -15 CURVE SMOOTH",
"392 -15 OFFCURVE",
"481 71 OFFCURVE",
"481 214 CURVE SMOOTH",
"481 357 OFFCURVE",
"392 444 OFFCURVE",
"259 444 CURVE SMOOTH"
);
},
{
closed = 1;
nodes = (
"354 380 OFFCURVE",
"401 319 OFFCURVE",
"401 214 CURVE SMOOTH",
"401 109 OFFCURVE",
"354 49 OFFCURVE",
"260 49 CURVE SMOOTH",
"168 49 OFFCURVE",
"121 109 OFFCURVE",
"121 214 CURVE SMOOTH",
"121 319 OFFCURVE",
"168 380 OFFCURVE",
"260 380 CURVE SMOOTH"
);
}
);
width = 521;
},
{
anchors = (
{
name = bottom;
position = "{284, 0}";
},
{
name = center;
position = "{284, 227}";
},
{
name = ogonek;
position = "{424, 15}";
},
{
name = top;
position = "{284, 454}";
},
{
name = topright;
position = "{452, 420}";
}
);
background = {
paths = (
{
closed = 1;
nodes = (
"405 -15 OFFCURVE",
"494 71 OFFCURVE",
"494 214 CURVE SMOOTH",
"494 357 OFFCURVE",
"405 444 OFFCURVE",
"272 444 CURVE SMOOTH",
"143 444 OFFCURVE",
"54 357 OFFCURVE",
"54 214 CURVE SMOOTH",
"54 71 OFFCURVE",
"143 -15 OFFCURVE",
"272 -15 CURVE SMOOTH"
);
},
{
closed = 1;
nodes = (
"366 380 OFFCURVE",
"414 319 OFFCURVE",
"414 214 CURVE SMOOTH",
"414 109 OFFCURVE",
"366 49 OFFCURVE",
"273 49 CURVE SMOOTH",
"180 49 OFFCURVE",
"134 109 OFFCURVE",
"134 214 CURVE SMOOTH",
"134 319 OFFCURVE",
"180 380 OFFCURVE",
"273 380 CURVE SMOOTH"
);
}
);
};
layerId = "6E1B38A8-44EA-440A-BD04-FE41D2B0BC62";
paths = (
{
closed = 1;
nodes = (
"129 474 OFFCURVE",
"44 382 OFFCURVE",
"44 226 CURVE SMOOTH",
"44 71 OFFCURVE",
"129 -20 OFFCURVE",
"282 -20 CURVE SMOOTH",
"437 -20 OFFCURVE",
"524 71 OFFCURVE",
"524 226 CURVE SMOOTH",
"524 382 OFFCURVE",
"437 474 OFFCURVE",
"282 474 CURVE SMOOTH"
);
},
{
closed = 1;
nodes = (
"360 371 OFFCURVE",
"400 321 OFFCURVE",
"400 226 CURVE SMOOTH",
"400 131 OFFCURVE",
"360 81 OFFCURVE",
"283 81 CURVE SMOOTH",
"207 81 OFFCURVE",
"168 131 OFFCURVE",
"168 226 CURVE SMOOTH",
"168 321 OFFCURVE",
"207 371 OFFCURVE",
"283 371 CURVE SMOOTH"
);
}
);
width = 567;
},
{
associatedMasterId = "6E1B38A8-44EA-440A-BD04-FE41D2B0BC62";
background = {
paths = (
{
closed = 1;
nodes = (
"393 -15 OFFCURVE",
"482 71 OFFCURVE",
"482 214 CURVE SMOOTH",
"482 357 OFFCURVE",
"393 444 OFFCURVE",
"260 444 CURVE SMOOTH",
"131 444 OFFCURVE",
"42 357 OFFCURVE",
"42 214 CURVE SMOOTH",
"42 71 OFFCURVE",
"131 -15 OFFCURVE",
"260 -15 CURVE SMOOTH"
);
},
{
closed = 1;
nodes = (
"354 380 OFFCURVE",
"402 319 OFFCURVE",
"402 214 CURVE SMOOTH",
"402 109 OFFCURVE",
"354 49 OFFCURVE",
"261 49 CURVE SMOOTH",
"168 49 OFFCURVE",
"122 109 OFFCURVE",
"122 214 CURVE SMOOTH",
"122 319 OFFCURVE",
"168 380 OFFCURVE",
"261 380 CURVE SMOOTH"
);
}
);
};
layerId = "1E2777C7-D231-47D5-946A-9102B4CE2579";
name = "Nov 1 16, 12:52";
paths = (
{
closed = 1;
nodes = (
"126 474 OFFCURVE",
"27 387 OFFCURVE",
"27 226 CURVE SMOOTH",
"27 64 OFFCURVE",
"126 -20 OFFCURVE",
"270 -20 CURVE SMOOTH",
"417 -20 OFFCURVE",
"517 64 OFFCURVE",
"517 226 CURVE SMOOTH",
"517 387 OFFCURVE",
"417 474 OFFCURVE",
"270 474 CURVE SMOOTH"
);
},
{
closed = 1;
nodes = (
"349 371 OFFCURVE",
"388 318 OFFCURVE",
"388 226 CURVE SMOOTH",
"388 134 OFFCURVE",
"349 81 OFFCURVE",
"271 81 CURVE SMOOTH",
"195 81 OFFCURVE",
"156 134 OFFCURVE",
"156 226 CURVE SMOOTH",
"156 318 OFFCURVE",
"195 371 OFFCURVE",
"271 371 CURVE SMOOTH"
);
}
);
width = 544;
}
);
leftKerningGroup = o;
rightKerningGroup = o;
unicode = 006F;
},
{
glyphname = oacute;
layers = (
{
background = {
paths = (
{
closed = 1;
nodes = (
"206 512 LINE",
"224 480 LINE",
"457 586 LINE",
"422 652 LINE"
);
}
);
};
components = (
{
name = o;
},
{
name = acutecomb;
transform = "{1, 0, 0, 1, 156, 0}";
}
);
layerId = UUID0;
width = 521;
},
{
components = (
{
name = o;
},
{
name = acutecomb;
transform = "{1, 0, 0, 1, 201, 0}";
}
);
layerId = "6E1B38A8-44EA-440A-BD04-FE41D2B0BC62";
width = 567;
}
);
leftKerningGroup = o;
rightKerningGroup = o;
unicode = 00F3;
},
{
glyphname = ograve;
layers = (
{
background = {
paths = (
{
closed = 1;
nodes = (
"99 652 LINE",
"64 586 LINE",
"297 480 LINE",
"315 512 LINE"
);
}
);
};
components = (
{
name = o;
},
{
name = gravecomb;
transform = "{1, 0, 0, 1, 57, 0}";
}
);
layerId = UUID0;
width = 521;
},
{
components = (
{
name = o;
},
{
name = gravecomb;
transform = "{1, 0, 0, 1, 54, 0}";
}
);
layerId = "6E1B38A8-44EA-440A-BD04-FE41D2B0BC62";
width = 567;
}
);
leftKerningGroup = o;
rightKerningGroup = o;
unicode = 00F2;
},
{
glyphname = oslash;
layers = (
{
background = {
components = (
{
name = o;
}
);
paths = (
{
closed = 1;
nodes = (
"408 503 LINE",
"359 503 LINE",
"119 -69 LINE",
"177 -69 LINE"
);
}
);
};
components = (
{
name = o;
}
);
layerId = UUID0;
paths = (
{
closed = 1;
nodes = (
"405 499 LINE",
"355 499 LINE",
"119 -69 LINE",
"169 -69 LINE"
);
}
);
width = 521;
},
{
background = {
components = (
{
name = o;
}
);
};
components = (
{
name = o;
}
);
layerId = "6E1B38A8-44EA-440A-BD04-FE41D2B0BC62";
paths = (
{
closed = 1;
nodes = (
"440 518 LINE",
"375 518 LINE",
"114 -78 LINE",
"179 -78 LINE"
);
}
);
width = 567;
}
);
leftKerningGroup = o;
leftMetricsKey = o;
rightKerningGroup = o;
rightMetricsKey = o;
unicode = 00F8;
},
{
glyphname = oe;
layers = (
{
layerId = UUID0;
paths = (
{
closed = 1;
nodes = (
"674 98 LINE",
"674 98 OFFCURVE",
"615 49 OFFCURVE",
"522 49 CURVE SMOOTH",
"436 49 OFFCURVE",
"389 101 OFFCURVE",
"384 194 CURVE",
"706 196 LINE",
"708 213 OFFCURVE",
"709 229 OFFCURVE",
"709 244 CURVE SMOOTH",
"709 400 OFFCURVE",
"619 444 OFFCURVE",
"521 444 CURVE SMOOTH",
"473 444 OFFCURVE",
"431 432 OFFCURVE",
"397 410 CURVE",
"364 427 OFFCURVE",
"318 444 OFFCURVE",
"258 444 CURVE SMOOTH",
"136 444 OFFCURVE",
"40 352 OFFCURVE",
"40 223 CURVE SMOOTH",
"40 80 OFFCURVE",
"129 -15 OFFCURVE",
"258 -15 CURVE SMOOTH",
"309 -15 OFFCURVE",
"353 5 OFFCURVE",
"385 27 CURVE",
"421 0 OFFCURVE",
"467 -15 OFFCURVE",
"521 -15 CURVE SMOOTH",
"642 -15 OFFCURVE",
"710 50 OFFCURVE",
"710 51 CURVE"
);
},
{
closed = 1;
nodes = (
"299 380 OFFCURVE",
"329 372 OFFCURVE",
"348 365 CURVE",
"319 327 OFFCURVE",
"303 275 OFFCURVE",
"303 214 CURVE SMOOTH",
"303 156 OFFCURVE",
"317 108 OFFCURVE",
"343 71 CURVE",
"321 59 OFFCURVE",
"293 49 OFFCURVE",
"259 49 CURVE SMOOTH",
"167 49 OFFCURVE",
"120 119 OFFCURVE",
"120 224 CURVE SMOOTH",
"120 313 OFFCURVE",
"174 380 OFFCURVE",
"259 380 CURVE SMOOTH"
);
},
{
closed = 1;
nodes = (
"385 256 LINE",
"397 334 OFFCURVE",
"443 380 OFFCURVE",
"522 380 CURVE SMOOTH",
"597 380 OFFCURVE",
"637 337 OFFCURVE",
"638 257 CURVE"
);
}
);
width = 753;
},
{
background = {
paths = (
{
closed = 1;
nodes = (
"664 -15 OFFCURVE",
"733 50 OFFCURVE",
"733 51 CURVE",
"697 98 LINE",
"697 98 OFFCURVE",
"637 49 OFFCURVE",
"545 49 CURVE SMOOTH",
"458 49 OFFCURVE",
"411 101 OFFCURVE",
"407 194 CURVE",
"728 196 LINE",
"748 391 OFFCURVE",
"651 444 OFFCURVE",
"543 444 CURVE SMOOTH",
"495 444 OFFCURVE",
"453 432 OFFCURVE",
"420 410 CURVE",
"386 427 OFFCURVE",
"341 444 OFFCURVE",
"281 444 CURVE SMOOTH",
"158 444 OFFCURVE",
"62 352 OFFCURVE",
"62 223 CURVE SMOOTH",
"62 80 OFFCURVE",
"152 -15 OFFCURVE",
"281 -15 CURVE SMOOTH",
"331 -15 OFFCURVE",
"375 5 OFFCURVE",
"407 27 CURVE",
"444 0 OFFCURVE",
"490 -15 OFFCURVE",
"543 -15 CURVE SMOOTH"
);
},
{
closed = 1;
nodes = (
"325 156 OFFCURVE",
"340 108 OFFCURVE",
"365 71 CURVE",
"344 59 OFFCURVE",
"316 49 OFFCURVE",
"282 49 CURVE SMOOTH",
"189 49 OFFCURVE",
"142 119 OFFCURVE",
"142 224 CURVE SMOOTH",
"142 313 OFFCURVE",
"197 380 OFFCURVE",
"282 380 CURVE SMOOTH",
"322 380 OFFCURVE",
"351 372 OFFCURVE",
"370 365 CURVE",
"342 327 OFFCURVE",
"325 275 OFFCURVE",
"325 214 CURVE SMOOTH"
);
},
{
closed = 1;
nodes = (
"619 380 OFFCURVE",
"659 337 OFFCURVE",
"660 257 CURVE",
"407 256 LINE",
"420 334 OFFCURVE",
"466 380 OFFCURVE",
"545 380 CURVE SMOOTH"
);
}
);
};
layerId = "6E1B38A8-44EA-440A-BD04-FE41D2B0BC62";
paths = (
{
closed = 1;
nodes = (
"679 124 LINE",
"652 104 OFFCURVE",
"609 78 OFFCURVE",
"533 78 CURVE SMOOTH",
"471 78 OFFCURVE",
"438 113 OFFCURVE",
"427 175 CURVE",
"738 175 LINE",
"741 186 OFFCURVE",
"744 205 OFFCURVE",
"744 238 CURVE SMOOTH",
"744 388 OFFCURVE",
"670 463 OFFCURVE",
"537 463 CURVE SMOOTH",
"500 463 OFFCURVE",
"459 450 OFFCURVE",
"422 424 CURVE",
"391 446 OFFCURVE",
"340 463 OFFCURVE",
"281 463 CURVE SMOOTH",
"137 463 OFFCURVE",
"38 377 OFFCURVE",
"38 219 CURVE SMOOTH",
"38 61 OFFCURVE",
"137 -22 OFFCURVE",
"281 -22 CURVE SMOOTH",
"337 -22 OFFCURVE",
"386 -8 OFFCURVE",
"419 13 CURVE",
"454 -10 OFFCURVE",
"494 -22 OFFCURVE",
"532 -22 CURVE SMOOTH",
"667 -22 OFFCURVE",
"731 50 OFFCURVE",
"734 54 CURVE"
);
},
{
closed = 1;
nodes = (
"306 360 OFFCURVE",
"331 355 OFFCURVE",
"350 346 CURVE",
"332 316 OFFCURVE",
"319 272 OFFCURVE",
"319 220 CURVE SMOOTH",
"319 167 OFFCURVE",
"331 122 OFFCURVE",
"348 92 CURVE",
"329 83 OFFCURVE",
"305 78 OFFCURVE",
"282 78 CURVE SMOOTH",
"206 78 OFFCURVE",
"167 129 OFFCURVE",
"167 219 CURVE SMOOTH",
"167 308 OFFCURVE",
"206 360 OFFCURVE",
"282 360 CURVE SMOOTH"
);
},
{
closed = 1;
nodes = (
"430 277 LINE",
"444 331 OFFCURVE",
"478 360 OFFCURVE",
"533 360 CURVE SMOOTH",
"602 360 OFFCURVE",
"631 323 OFFCURVE",
"630 277 CURVE"
);
}
);
width = 783;
}
);
leftKerningGroup = o;
rightKerningGroup = e;
unicode = 0153;
},
{
glyphname = p;
layers = (
{
anchors = (
{
name = bottom;
position = "{158, -208}";
},
{
name = top;
position = "{306, 429}";
}
);
layerId = UUID0;
paths = (
{
closed = 1;
nodes = (
"276 -208 LINE",
"276 -146 LINE",
"192 -146 LINE",
"192 2 LINE",
"227 -9 OFFCURVE",
"264 -15 OFFCURVE",
"303 -15 CURVE SMOOTH",
"432 -15 OFFCURVE",
"521 85 OFFCURVE",
"521 228 CURVE SMOOTH",
"521 362 OFFCURVE",
"439 444 OFFCURVE",
"307 444 CURVE SMOOTH",
"265 444 OFFCURVE",
"217 428 OFFCURVE",
"174 401 CURVE",
"40 447 LINE",
"20 383 LINE",
"114 352 LINE",
"114 -146 LINE",
"30 -146 LINE",
"30 -208 LINE"
);
},
{
closed = 1;
nodes = (
"260 49 OFFCURVE",
"215 59 OFFCURVE",
"192 74 CURVE",
"192 343 LINE",
"216 364 OFFCURVE",
"264 380 OFFCURVE",
"306 380 CURVE SMOOTH",
"396 380 OFFCURVE",
"441 329 OFFCURVE",
"441 228 CURVE SMOOTH",
"441 116 OFFCURVE",
"389 49 OFFCURVE",
"302 49 CURVE SMOOTH"
);
}
);
width = 561;
},
{
anchors = (
{
name = bottom;
position = "{179, -224}";
},
{
name = top;
position = "{327, 454}";
}
);
background = {
paths = (
{
closed = 1;
nodes = (
"291 -146 LINE",
"207 -146 LINE",
"207 2 LINE",
"237 -8 OFFCURVE",
"273 -15 OFFCURVE",
"318 -15 CURVE SMOOTH",
"447 -15 OFFCURVE",
"536 85 OFFCURVE",
"536 228 CURVE SMOOTH",
"536 368 OFFCURVE",
"448 444 OFFCURVE",
"322 444 CURVE SMOOTH",
"269 444 OFFCURVE",
"221 422 OFFCURVE",
"189 401 CURVE",
"55 447 LINE",
"35 383 LINE",
"129 352 LINE",
"129 -146 LINE",
"45 -146 LINE",
"45 -208 LINE",
"291 -208 LINE"
);
},
{
closed = 1;
nodes = (
"246 49 OFFCURVE",
"207 74 OFFCURVE",
"207 74 CURVE",
"207 343 LINE",
"207 343 OFFCURVE",
"250 380 OFFCURVE",
"321 380 CURVE SMOOTH",
"411 380 OFFCURVE",
"456 329 OFFCURVE",
"456 228 CURVE SMOOTH",
"456 123 OFFCURVE",
"409 49 OFFCURVE",
"317 49 CURVE SMOOTH"
);
}
);
};
layerId = "6E1B38A8-44EA-440A-BD04-FE41D2B0BC62";
paths = (
{
closed = 1;
nodes = (
"326 -224 LINE",
"326 -124 LINE",
"242 -124 LINE",
"242 -12 LINE",
"268 -19 OFFCURVE",
"296 -22 OFFCURVE",
"328 -22 CURVE SMOOTH",
"476 -22 OFFCURVE",
"570 75 OFFCURVE",
"570 228 CURVE SMOOTH",
"570 381 OFFCURVE",
"484 474 OFFCURVE",
"342 474 CURVE SMOOTH",
"296 474 OFFCURVE",
"242 454 OFFCURVE",
"197 421 CURVE",
"53 470 LINE",
"20 368 LINE",
"115 336 LINE",
"115 -124 LINE",
"31 -124 LINE",
"31 -224 LINE"
);
},
{
closed = 1;
nodes = (
"295 79 OFFCURVE",
"263 85 OFFCURVE",
"240 94 CURVE",
"240 335 LINE",
"265 358 OFFCURVE",
"299 371 OFFCURVE",
"335 371 CURVE SMOOTH",
"402 371 OFFCURVE",
"440 318 OFFCURVE",
"440 226 CURVE SMOOTH",
"440 132 OFFCURVE",
"399 79 OFFCURVE",
"326 79 CURVE SMOOTH"
);
}
);
width = 609;
}
);
leftKerningGroup = n;
rightKerningGroup = o;
unicode = 0070;
},
{
glyphname = thorn;
layers = (
{
layerId = UUID0;
paths = (
{
closed = 1;
nodes = (
"148 600 LINE",
"-4 652 LINE",
"-24 588 LINE",
"70 557 LINE",
"70 -146 LINE",
"-14 -146 LINE",
"-14 -208 LINE",
"232 -208 LINE",
"232 -146 LINE",
"148 -146 LINE",
"148 2 LINE",
"178 -8 OFFCURVE",
"214 -15 OFFCURVE",
"259 -15 CURVE SMOOTH",
"388 -15 OFFCURVE",
"477 84 OFFCURVE",
"477 227 CURVE SMOOTH",
"477 367 OFFCURVE",
"389 444 OFFCURVE",
"263 444 CURVE SMOOTH",
"219 444 OFFCURVE",
"179 429 OFFCURVE",
"148 412 CURVE"
);
},
{
closed = 1;
nodes = (
"148 343 LINE",
"148 343 OFFCURVE",
"191 380 OFFCURVE",
"262 380 CURVE SMOOTH",
"352 380 OFFCURVE",
"397 328 OFFCURVE",
"397 227 CURVE SMOOTH",
"397 122 OFFCURVE",
"350 49 OFFCURVE",
"258 49 CURVE SMOOTH",
"187 49 OFFCURVE",
"148 74 OFFCURVE",
"148 74 CURVE"
);
}
);
width = 517;
},
{
background = {
paths = (
{
closed = 1;
nodes = (
"229 -146 LINE",
"145 -146 LINE",
"145 2 LINE",
"175 -8 OFFCURVE",
"212 -15 OFFCURVE",
"257 -15 CURVE SMOOTH",
"385 -15 OFFCURVE",
"474 84 OFFCURVE",
"474 227 CURVE SMOOTH",
"474 367 OFFCURVE",
"386 444 OFFCURVE",
"260 444 CURVE SMOOTH",
"216 444 OFFCURVE",
"176 429 OFFCURVE",
"145 412 CURVE",
"145 600 LINE",
"-7 652 LINE",
"-27 588 LINE",
"68 557 LINE",
"68 -146 LINE",
"-16 -146 LINE",
"-16 -208 LINE",
"229 -208 LINE"
);
},
{
closed = 1;
nodes = (
"184 49 OFFCURVE",
"145 74 OFFCURVE",
"145 74 CURVE",
"145 343 LINE",
"145 343 OFFCURVE",
"188 380 OFFCURVE",
"259 380 CURVE SMOOTH",
"349 380 OFFCURVE",
"394 328 OFFCURVE",
"394 227 CURVE SMOOTH",
"394 122 OFFCURVE",
"347 49 OFFCURVE",
"256 49 CURVE SMOOTH"
);
}
);
};
layerId = "6E1B38A8-44EA-440A-BD04-FE41D2B0BC62";
paths = (
{
closed = 1;
nodes = (
"194 615 LINE",
"4 680 LINE",
"-33 572 LINE",
"68 537 LINE",
"68 -124 LINE",
"-16 -124 LINE",
"-16 -224 LINE",
"279 -224 LINE",
"279 -124 LINE",
"195 -124 LINE",
"195 -12 LINE",
"222 -19 OFFCURVE",
"250 -22 OFFCURVE",
"281 -22 CURVE SMOOTH",
"429 -22 OFFCURVE",
"524 75 OFFCURVE",
"524 228 CURVE SMOOTH",
"524 377 OFFCURVE",
"436 468 OFFCURVE",
"291 468 CURVE SMOOTH",
"257 468 OFFCURVE",
"219 459 OFFCURVE",
"194 445 CURVE"
);
},
{
closed = 1;
nodes = (
"194 335 LINE",
"220 352 OFFCURVE",
"257 365 OFFCURVE",
"283 365 CURVE SMOOTH",
"354 365 OFFCURVE",
"394 314 OFFCURVE",
"394 226 CURVE SMOOTH",
"394 132 OFFCURVE",
"353 79 OFFCURVE",
"279 79 CURVE SMOOTH",
"249 79 OFFCURVE",
"217 85 OFFCURVE",
"194 94 CURVE"
);
}
);
width = 562;
}
);
leftKerningGroup = b;
rightKerningGroup = o;
unicode = 00FE;
},
{
glyphname = q;
layers = (
{
layerId = UUID0;
paths = (
{
closed = 1;
nodes = (
"533 -208 LINE",
"533 -146 LINE",
"449 -146 LINE",
"449 387 LINE",
"406 425 OFFCURVE",
"343 444 OFFCURVE",
"269 444 CURVE SMOOTH",
"132 444 OFFCURVE",
"41 362 OFFCURVE",
"41 224 CURVE SMOOTH",
"41 74 OFFCURVE",
"122 -15 OFFCURVE",
"259 -15 CURVE SMOOTH",
"294 -15 OFFCURVE",
"336 -3 OFFCURVE",
"371 17 CURVE",
"371 -146 LINE",
"287 -146 LINE",
"287 -208 LINE"
);
},
{
closed = 1;
nodes = (
"177 49 OFFCURVE",
"121 119 OFFCURVE",
"121 225 CURVE SMOOTH",
"121 318 OFFCURVE",
"177 380 OFFCURVE",
"260 380 CURVE SMOOTH",
"311 380 OFFCURVE",
"340 370 OFFCURVE",
"371 354 CURVE",
"371 87 LINE",
"340 64 OFFCURVE",
"296 49 OFFCURVE",
"260 49 CURVE SMOOTH"
);
}
);
width = 514;
},
{
background = {
paths = (
{
closed = 1;
nodes = (
"300 -208 LINE",
"546 -208 LINE",
"546 -146 LINE",
"462 -146 LINE",
"462 387 LINE",
"461 388 OFFCURVE",
"387 444 OFFCURVE",
"272 444 CURVE SMOOTH",
"150 444 OFFCURVE",
"54 353 OFFCURVE",
"54 224 CURVE SMOOTH",
"54 81 OFFCURVE",
"143 -15 OFFCURVE",
"272 -15 CURVE SMOOTH",
"316 -15 OFFCURVE",
"354 0 OFFCURVE",
"384 17 CURVE",
"384 -146 LINE",
"300 -146 LINE"
);
},
{
closed = 1;
nodes = (
"344 380 OFFCURVE",
"383 355 OFFCURVE",
"384 354 CURVE",
"384 87 LINE",
"364 72 OFFCURVE",
"323 49 OFFCURVE",
"273 49 CURVE SMOOTH",
"180 49 OFFCURVE",
"134 120 OFFCURVE",
"134 225 CURVE SMOOTH",
"134 314 OFFCURVE",
"188 380 OFFCURVE",
"273 380 CURVE SMOOTH"
);
}
);
};
layerId = "6E1B38A8-44EA-440A-BD04-FE41D2B0BC62";
paths = (
{
closed = 1;
nodes = (
"562 -224 LINE",
"562 -124 LINE",
"496 -124 LINE",
"496 418 LINE",
"428 453 OFFCURVE",
"352 474 OFFCURVE",
"292 474 CURVE SMOOTH",
"133 474 OFFCURVE",
"39 385 OFFCURVE",
"39 235 CURVE SMOOTH",
"39 75 OFFCURVE",
"124 -20 OFFCURVE",
"267 -20 CURVE SMOOTH",
"304 -20 OFFCURVE",
"342 -13 OFFCURVE",
"368 0 CURVE",
"368 -124 LINE",
"266 -124 LINE",
"266 -224 LINE"
);
},
{
closed = 1;
nodes = (
"212 81 OFFCURVE",
"168 143 OFFCURVE",
"168 235 CURVE SMOOTH",
"168 317 OFFCURVE",
"212 371 OFFCURVE",
"279 371 CURVE SMOOTH",
"313 371 OFFCURVE",
"349 361 OFFCURVE",
"368 346 CURVE",
"368 96 LINE",
"343 87 OFFCURVE",
"307 81 OFFCURVE",
"278 81 CURVE SMOOTH"
);
}
);
width = 560;
}
);
leftKerningGroup = o;
rightKerningGroup = q;
unicode = 0071;
},
{
glyphname = r;
layers = (
{
anchors = (
{
name = bottom;
position = "{172, 0}";
},
{
name = top;
position = "{210, 429}";
}
);
layerId = UUID0;
paths = (
{
closed = 1;
nodes = (
"52 443 LINE",
"31 381 LINE",
"127 348 LINE",
"127 62 LINE",
"43 62 LINE",
"43 0 LINE",
"303 0 LINE",
"303 62 LINE",
"205 62 LINE",
"205 345 LINE",
"241 366 OFFCURVE",
"287 379 OFFCURVE",
"328 379 CURVE",
"338 323 LINE",
"403 337 LINE",
"386 442 LINE",
"385 443 OFFCURVE",
"371 444 OFFCURVE",
"348 444 CURVE SMOOTH",
"291 444 OFFCURVE",
"230 427 OFFCURVE",
"185 397 CURVE"
);
}
);
width = 418;
},
{
anchors = (
{
name = bottom;
position = "{183, 0}";
},
{
name = top;
position = "{234, 454}";
}
);
background = {
paths = (
{
closed = 1;
nodes = (
"48 381 LINE",
"144 348 LINE",
"144 62 LINE",
"60 62 LINE",
"60 0 LINE",
"319 0 LINE",
"319 62 LINE",
"222 62 LINE",
"222 345 LINE",
"222 345 OFFCURVE",
"280 379 OFFCURVE",
"345 379 CURVE",
"355 323 LINE",
"420 337 LINE",
"402 442 LINE",
"402 442 OFFCURVE",
"400 444 OFFCURVE",
"365 444 CURVE SMOOTH",
"283 444 OFFCURVE",
"222 410 OFFCURVE",
"202 397 CURVE",
"69 443 LINE"
);
}
);
};
layerId = "6E1B38A8-44EA-440A-BD04-FE41D2B0BC62";
paths = (
{
closed = 1;
nodes = (
"67 464 LINE",
"34 362 LINE",
"130 330 LINE",
"130 101 LINE",
"46 101 LINE",
"46 0 LINE",
"354 0 LINE",
"354 101 LINE",
"256 101 LINE",
"257 318 LINE",
"279 336 OFFCURVE",
"316 350 OFFCURVE",
"362 355 CURVE",
"372 301 LINE",
"477 323 LINE",
"460 454 LINE",
"431 465 OFFCURVE",
"404 471 OFFCURVE",
"377 471 CURVE SMOOTH",
"328 471 OFFCURVE",
"279 452 OFFCURVE",
"220 414 CURVE"
);
}
);
width = 492;
}
);
leftKerningGroup = n;
rightKerningGroup = r;
unicode = 0072;
},
{
glyphname = s;
layers = (
{
anchors = (
{
name = bottom;
position = "{228, 0}";
},
{
name = top;
position = "{228, 429}";
}
);
background = {
paths = (
{
closed = 1;
nodes = (
"408 321 LINE",
"392 410 LINE",
"392 410 OFFCURVE",
"319 444 OFFCURVE",
"212 444 CURVE SMOOTH",
"102 444 OFFCURVE",
"42 393 OFFCURVE",
"42 323 CURVE SMOOTH",
"42 250 OFFCURVE",
"82 196 OFFCURVE",
"181 186 CURVE SMOOTH",
"282 176 LINE SMOOTH",
"325 171 OFFCURVE",
"345 151 OFFCURVE",
"345 122 CURVE SMOOTH",
"345 75 OFFCURVE",
"307 49 OFFCURVE",
"231 49 CURVE SMOOTH",
"180 49 OFFCURVE",
"140 62 OFFCURVE",
"115 75 CURVE",
"103 137 LINE",
"38 123 LINE",
"54 34 LINE",
"54 34 OFFCURVE",
"140 -15 OFFCURVE",
"233 -15 CURVE SMOOTH",
"340 -15 OFFCURVE",
"418 32 OFFCURVE",
"418 122 CURVE SMOOTH",
"418 208 OFFCURVE",
"356 248 OFFCURVE",
"279 256 CURVE SMOOTH",
"191 265 LINE SMOOTH",
"137 271 OFFCURVE",
"114 283 OFFCURVE",
"114 323 CURVE SMOOTH",
"114 367 OFFCURVE",
"159 380 OFFCURVE",
"206 380 CURVE SMOOTH",
"273 380 OFFCURVE",
"313 369 OFFCURVE",
"333 362 CURVE",
"344 307 LINE"
);
}
);
};
layerId = UUID0;
paths = (
{
closed = 1;
nodes = (
"341 301 LINE",
"405 315 LINE",
"386 410 LINE",
"340 433 OFFCURVE",
"292 445 OFFCURVE",
"227 445 CURVE SMOOTH",
"140 445 OFFCURVE",
"51 403 OFFCURVE",
"51 315 CURVE SMOOTH",
"51 247 OFFCURVE",
"105 197 OFFCURVE",
"207 186 CURVE SMOOTH",
"252 181 LINE SMOOTH",
"320 173 OFFCURVE",
"345 160 OFFCURVE",
"345 120 CURVE SMOOTH",
"345 75 OFFCURVE",
"291 51 OFFCURVE",
"230 51 CURVE SMOOTH",
"192 51 OFFCURVE",
"152 60 OFFCURVE",
"120 78 CURVE",
"105 148 LINE",
"35 131 LINE",
"53 30 LINE",
"99 4 OFFCURVE",
"166 -15 OFFCURVE",
"233 -15 CURVE SMOOTH",
"344 -15 OFFCURVE",
"418 40 OFFCURVE",
"418 122 CURVE SMOOTH",
"418 193 OFFCURVE",
"379 237 OFFCURVE",
"266 248 CURVE SMOOTH",
"224 252 LINE SMOOTH",
"161 258 OFFCURVE",
"123 280 OFFCURVE",
"123 320 CURVE SMOOTH",
"123 361 OFFCURVE",
"173 385 OFFCURVE",
"226 385 CURVE SMOOTH",
"271 385 OFFCURVE",
"294 378 OFFCURVE",
"324 366 CURVE"
);
}
);
width = 460;
},
{
anchors = (
{
name = bottom;
position = "{238, 0}";
},
{
name = top;
position = "{238, 454}";
}
);
background = {
paths = (
{
closed = 1;
nodes = (
"414 321 LINE",
"395 415 LINE",
"348 438 OFFCURVE",
"310 444 OFFCURVE",
"227 444 CURVE SMOOTH",
"113 444 OFFCURVE",
"48 396 OFFCURVE",
"48 318 CURVE SMOOTH",
"48 233 OFFCURVE",
"88 200 OFFCURVE",
"187 190 CURVE SMOOTH",
"287 180 LINE SMOOTH",
"331 175 OFFCURVE",
"350 151 OFFCURVE",
"350 122 CURVE SMOOTH",
"350 75 OFFCURVE",
"313 49 OFFCURVE",
"236 49 CURVE SMOOTH",
"195 49 OFFCURVE",
"155 52 OFFCURVE",
"120 70 CURVE",
"109 137 LINE",
"44 123 LINE",
"62 19 LINE",
"113 -8 OFFCURVE",
"172 -15 OFFCURVE",
"238 -15 CURVE SMOOTH",
"345 -15 OFFCURVE",
"423 32 OFFCURVE",
"423 122 CURVE SMOOTH",
"423 208 OFFCURVE",
"377 246 OFFCURVE",
"284 256 CURVE SMOOTH",
"196 265 LINE SMOOTH",
"142 271 OFFCURVE",
"119 283 OFFCURVE",
"119 323 CURVE SMOOTH",
"119 366 OFFCURVE",
"155 380 OFFCURVE",
"234 380 CURVE SMOOTH",
"280 380 OFFCURVE",
"319 369 OFFCURVE",
"339 362 CURVE",
"349 307 LINE"
);
}
);
};
layerId = "6E1B38A8-44EA-440A-BD04-FE41D2B0BC62";
paths = (
{
closed = 1;
nodes = (
"336 312 LINE",
"430 328 LINE",
"411 425 LINE",
"363 459 OFFCURVE",
"307 473 OFFCURVE",
"244 473 CURVE SMOOTH",
"123 473 OFFCURVE",
"44 415 OFFCURVE",
"44 327 CURVE SMOOTH",
"44 250 OFFCURVE",
"104 205 OFFCURVE",
"203 191 CURVE SMOOTH",
"264 180 LINE",
"326 173 OFFCURVE",
"338 154 OFFCURVE",
"338 131 CURVE SMOOTH",
"338 96 OFFCURVE",
"293 79 OFFCURVE",
"238 79 CURVE SMOOTH",
"208 79 OFFCURVE",
"180 85 OFFCURVE",
"151 97 CURVE",
"142 146 LINE",
"37 130 LINE",
"55 24 LINE",
"107 -5 OFFCURVE",
"164 -21 OFFCURVE",
"244 -21 CURVE SMOOTH",
"351 -21 OFFCURVE",
"451 25 OFFCURVE",
"451 134 CURVE SMOOTH",
"451 213 OFFCURVE",
"404 255 OFFCURVE",
"299 270 CURVE SMOOTH",
"232 280 LINE SMOOTH",
"168 289 OFFCURVE",
"156 306 OFFCURVE",
"156 333 CURVE SMOOTH",
"156 367 OFFCURVE",
"198 382 OFFCURVE",
"246 382 CURVE SMOOTH",
"271 382 OFFCURVE",
"297 378 OFFCURVE",
"320 371 CURVE"
);
}
);
width = 481;
}
);
leftKerningGroup = s;
rightKerningGroup = s;
unicode = 0073;
},
{
glyphname = germandbls;
layers = (
{
layerId = UUID0;
paths = (
{
closed = 1;
nodes = (
"493 -15 OFFCURVE",
"552 38 OFFCURVE",
"552 112 CURVE SMOOTH",
"552 187 OFFCURVE",
"516 235 OFFCURVE",
"439 263 CURVE SMOOTH",
"375 286 OFFCURVE",
"355 302 OFFCURVE",
"355 331 CURVE SMOOTH",
"355 391 OFFCURVE",
"464 415 OFFCURVE",
"464 514 CURVE SMOOTH",
"464 593 OFFCURVE",
"401 642 OFFCURVE",
"299 642 CURVE SMOOTH",
"176 642 OFFCURVE",
"120 589 OFFCURVE",
"120 473 CURVE SMOOTH",
"120 429 LINE",
"36 429 LINE",
"36 367 LINE",
"120 367 LINE",
"120 62 LINE",
"36 62 LINE",
"36 0 LINE",
"198 0 LINE",
"198 457 LINE SMOOTH",
"198 546 OFFCURVE",
"226 578 OFFCURVE",
"304 578 CURVE SMOOTH",
"352 578 OFFCURVE",
"390 550 OFFCURVE",
"390 514 CURVE SMOOTH",
"390 444 OFFCURVE",
"277 438 OFFCURVE",
"277 324 CURVE SMOOTH",
"277 270 OFFCURVE",
"324 221 OFFCURVE",
"399 195 CURVE SMOOTH",
"456 175 OFFCURVE",
"480 151 OFFCURVE",
"480 112 CURVE SMOOTH",
"480 75 OFFCURVE",
"452 49 OFFCURVE",
"411 49 CURVE SMOOTH",
"383 49 OFFCURVE",
"354 59 OFFCURVE",
"341 73 CURVE",
"331 132 LINE",
"266 118 LINE",
"282 29 LINE",
"306 4 OFFCURVE",
"360 -15 OFFCURVE",
"410 -15 CURVE SMOOTH"
);
}
);
width = 584;
},
{
background = {
paths = (
{
closed = 1;
nodes = (
"69 0 LINE",
"231 0 LINE",
"231 457 LINE SMOOTH",
"231 537 OFFCURVE",
"251 578 OFFCURVE",
"337 578 CURVE SMOOTH",
"394 578 OFFCURVE",
"423 543 OFFCURVE",
"423 514 CURVE SMOOTH",
"423 444 OFFCURVE",
"310 438 OFFCURVE",
"310 324 CURVE SMOOTH",
"310 270 OFFCURVE",
"357 221 OFFCURVE",
"432 195 CURVE SMOOTH",
"470 182 OFFCURVE",
"513 164 OFFCURVE",
"513 112 CURVE SMOOTH",
"513 75 OFFCURVE",
"485 49 OFFCURVE",
"444 49 CURVE SMOOTH",
"395 49 OFFCURVE",
"374 73 OFFCURVE",
"374 73 CURVE",
"364 132 LINE",
"299 118 LINE",
"315 29 LINE",
"315 29 OFFCURVE",
"358 -15 OFFCURVE",
"443 -15 CURVE SMOOTH",
"519 -15 OFFCURVE",
"585 31 OFFCURVE",
"585 112 CURVE SMOOTH",
"585 198 OFFCURVE",
"538 239 OFFCURVE",
"472 263 CURVE SMOOTH",
"419 282 OFFCURVE",
"388 297 OFFCURVE",
"388 331 CURVE SMOOTH",
"388 391 OFFCURVE",
"497 415 OFFCURVE",
"497 514 CURVE SMOOTH",
"497 588 OFFCURVE",
"440 642 OFFCURVE",
"332 642 CURVE SMOOTH",
"204 642 OFFCURVE",
"153 585 OFFCURVE",
"153 473 CURVE SMOOTH",
"153 429 LINE",
"69 429 LINE",
"69 367 LINE",
"153 367 LINE",
"153 62 LINE",
"69 62 LINE"
);
}
);
};
layerId = "6E1B38A8-44EA-440A-BD04-FE41D2B0BC62";
paths = (
{
closed = 1;
nodes = (
"523 -17 OFFCURVE",
"590 43 OFFCURVE",
"590 130 CURVE SMOOTH",
"590 187 OFFCURVE",
"552 233 OFFCURVE",
"475 270 CURVE SMOOTH",
"424 293 OFFCURVE",
"408 309 OFFCURVE",
"408 336 CURVE SMOOTH",
"408 392 OFFCURVE",
"531 401 OFFCURVE",
"531 514 CURVE SMOOTH",
"531 606 OFFCURVE",
"451 667 OFFCURVE",
"332 667 CURVE SMOOTH",
"202 667 OFFCURVE",
"129 612 OFFCURVE",
"129 491 CURVE",
"129 454 LINE",
"45 454 LINE",
"45 343 LINE",
"129 343 LINE",
"129 112 LINE",
"45 112 LINE",
"45 0 LINE",
"256 0 LINE",
"256 457 LINE SMOOTH",
"256 543 OFFCURVE",
"277 573 OFFCURVE",
"337 573 CURVE SMOOTH",
"389 573 OFFCURVE",
"419 551 OFFCURVE",
"419 514 CURVE SMOOTH",
"419 443 OFFCURVE",
"294 433 OFFCURVE",
"294 324 CURVE SMOOTH",
"294 263 OFFCURVE",
"318 235 OFFCURVE",
"404 194 CURVE SMOOTH",
"449 173 OFFCURVE",
"474 147 OFFCURVE",
"474 120 CURVE SMOOTH",
"474 94 OFFCURVE",
"453 76 OFFCURVE",
"423 76 CURVE SMOOTH",
"404 76 OFFCURVE",
"386 81 OFFCURVE",
"377 89 CURVE",
"368 139 LINE",
"273 120 LINE",
"289 33 LINE",
"312 4 OFFCURVE",
"369 -17 OFFCURVE",
"424 -17 CURVE SMOOTH"
);
}
);
width = 617;
}
);
leftKerningGroup = f;
rightKerningGroup = germandbls;
unicode = 00DF;
},
{
glyphname = t;
layers = (
{
anchors = (
{
name = bottom;
position = "{175, 0}";
},
{
name = center;
position = "{175, 285}";
},
{
name = top;
position = "{153, 500}";
},
{
name = topright;
position = "{338, 589}";
}
);
layerId = UUID0;
paths = (
{
closed = 1;
nodes = (
"278 -15 OFFCURVE",
"309 -5 OFFCURVE",
"337 6 CURVE",
"322 62 LINE",
"294 49 OFFCURVE",
"275 44 OFFCURVE",
"252 44 CURVE SMOOTH",
"193 44 OFFCURVE",
"182 104 OFFCURVE",
"182 193 CURVE SMOOTH",
"182 367 LINE",
"307 367 LINE",
"307 429 LINE",
"182 429 LINE",
"182 544 LINE",
"106 526 LINE",
"106 429 LINE",
"23 429 LINE",
"23 367 LINE",
"106 367 LINE",
"106 149 LINE SMOOTH",
"106 20 OFFCURVE",
"175 -15 OFFCURVE",
"247 -15 CURVE SMOOTH"
);
}
);
width = 363;
},
{
anchors = (
{
name = bottom;
position = "{204, 0}";
},
{
name = center;
position = "{184, 270}";
},
{
name = top;
position = "{184, 525}";
},
{
name = topright;
position = "{381, 589}";
}
);
background = {
paths = (
{
closed = 1;
nodes = (
"326 429 LINE",
"201 429 LINE",
"201 534 LINE",
"125 516 LINE",
"125 429 LINE",
"42 429 LINE",
"42 367 LINE",
"125 367 LINE",
"125 149 LINE SMOOTH",
"125 39 OFFCURVE",
"181 -15 OFFCURVE",
"273 -15 CURVE SMOOTH",
"312 -15 OFFCURVE",
"341 -4 OFFCURVE",
"341 -4 CURVE",
"326 52 LINE",
"325 52 OFFCURVE",
"303 47 OFFCURVE",
"277 47 CURVE",
"197 52 OFFCURVE",
"201 139 OFFCURVE",
"201 193 CURVE SMOOTH",
"201 367 LINE",
"326 367 LINE"
);
}
);
};
layerId = "6E1B38A8-44EA-440A-BD04-FE41D2B0BC62";
paths = (
{
closed = 1;
nodes = (
"318 -20 OFFCURVE",
"357 -6 OFFCURVE",
"389 10 CURVE",
"365 104 LINE",
"340 91 OFFCURVE",
"318 84 OFFCURVE",
"300 84 CURVE SMOOTH",
"256 84 OFFCURVE",
"234 123 OFFCURVE",
"234 195 CURVE SMOOTH",
"234 353 LINE",
"354 353 LINE",
"354 454 LINE",
"234 454 LINE",
"234 574 LINE",
"108 535 LINE",
"108 454 LINE",
"25 454 LINE",
"25 353 LINE",
"108 353 LINE",
"108 167 LINE SMOOTH",
"108 41 OFFCURVE",
"174 -20 OFFCURVE",
"281 -20 CURVE SMOOTH"
);
}
);
width = 415;
}
);
leftKerningGroup = t;
rightKerningGroup = t;
unicode = 0074;
},
{
glyphname = u;
layers = (
{
anchors = (
{
name = bottom;
position = "{306, 0}";
},
{
name = ogonek;
position = "{569, -18}";
},
{
name = top;
position = "{281, 429}";
},
{
name = topright;
position = "{495, 429}";
}
);
layerId = UUID0;
paths = (
{
closed = 1;
nodes = (
"569 -18 LINE",
"589 46 LINE",
"495 78 LINE",
"495 429 LINE",
"333 429 LINE",
"333 367 LINE",
"417 367 LINE",
"417 83 LINE",
"387 63 OFFCURVE",
"334 49 OFFCURVE",
"291 49 CURVE SMOOTH",
"217 49 OFFCURVE",
"185 85 OFFCURVE",
"185 170 CURVE SMOOTH",
"185 429 LINE",
"23 429 LINE",
"23 367 LINE",
"107 367 LINE",
"107 154 LINE SMOOTH",
"107 38 OFFCURVE",
"163 -15 OFFCURVE",
"286 -15 CURVE SMOOTH",
"332 -15 OFFCURVE",
"390 2 OFFCURVE",
"433 29 CURVE"
);
}
);
width = 609;
},
{
anchors = (
{
name = bottom;
position = "{323, 0}";
},
{
name = ogonek;
position = "{590, -22}";
},
{
name = top;
position = "{299, 454}";
},
{
name = topright;
position = "{538, 454}";
}
);
background = {
paths = (
{
closed = 1;
nodes = (
"341 367 LINE",
"425 367 LINE",
"425 83 LINE",
"425 83 OFFCURVE",
"371 49 OFFCURVE",
"299 49 CURVE SMOOTH",
"213 49 OFFCURVE",
"193 99 OFFCURVE",
"193 170 CURVE SMOOTH",
"193 429 LINE",
"31 429 LINE",
"31 367 LINE",
"115 367 LINE",
"115 154 LINE SMOOTH",
"115 42 OFFCURVE",
"166 -15 OFFCURVE",
"294 -15 CURVE SMOOTH",
"361 -15 OFFCURVE",
"418 15 OFFCURVE",
"441 29 CURVE",
"578 -18 LINE",
"598 46 LINE",
"503 78 LINE",
"503 429 LINE",
"341 429 LINE"
);
}
);
};
layerId = "6E1B38A8-44EA-440A-BD04-FE41D2B0BC62";
paths = (
{
closed = 1;
nodes = (
"590 -22 LINE",
"625 88 LINE",
"538 118 LINE",
"538 454 LINE",
"335 454 LINE",
"335 353 LINE",
"411 353 LINE",
"411 117 LINE",
"377 103 OFFCURVE",
"335 93 OFFCURVE",
"309 93 CURVE SMOOTH",
"252 93 OFFCURVE",
"228 121 OFFCURVE",
"228 188 CURVE SMOOTH",
"228 454 LINE",
"25 454 LINE",
"25 353 LINE",
"101 353 LINE",
"101 171 LINE SMOOTH",
"101 39 OFFCURVE",
"164 -20 OFFCURVE",
"305 -20 CURVE SMOOTH",
"352 -20 OFFCURVE",
"408 -4 OFFCURVE",
"454 22 CURVE"
);
}
);
width = 646;
}
);
leftKerningGroup = u;
rightKerningGroup = u;
unicode = 0075;
},
{
glyphname = uacute;
layers = (
{
background = {
paths = (
{
closed = 1;
nodes = (
"257 512 LINE",
"275 480 LINE",
"508 586 LINE",
"473 652 LINE"
);
}
);
};
components = (
{
name = u;
},
{
name = acutecomb;
transform = "{1, 0, 0, 1, 176, 0}";
}
);
layerId = UUID0;
width = 609;
},
{
components = (
{
name = u;
},
{
name = acutecomb;
transform = "{1, 0, 0, 1, 216, 0}";
}
);
layerId = "6E1B38A8-44EA-440A-BD04-FE41D2B0BC62";
width = 646;
}
);
leftKerningGroup = u;
rightKerningGroup = u;
unicode = 00FA;
},
{
glyphname = ugrave;
layers = (
{
background = {
paths = (
{
closed = 1;
nodes = (
"76 652 LINE",
"41 586 LINE",
"274 480 LINE",
"292 512 LINE"
);
}
);
};
components = (
{
name = u;
},
{
name = gravecomb;
transform = "{1, 0, 0, 1, 77, 0}";
}
);
layerId = UUID0;
width = 609;
},
{
components = (
{
name = u;
},
{
name = gravecomb;
transform = "{1, 0, 0, 1, 69, 0}";
}
);
layerId = "6E1B38A8-44EA-440A-BD04-FE41D2B0BC62";
width = 646;
}
);
leftKerningGroup = u;
rightKerningGroup = u;
unicode = 00F9;
},
{
glyphname = v;
layers = (
{
anchors = (
{
name = bottom;
position = "{288, 0}";
},
{
name = top;
position = "{288, 429}";
}
);
background = {
paths = (
{
closed = 1;
nodes = (
"2 367 LINE",
"85 367 LINE",
"244 0 LINE",
"325 0 LINE",
"489 367 LINE",
"574 367 LINE",
"574 429 LINE",
"374 429 LINE",
"374 367 LINE",
"418 367 LINE",
"292 69 LINE",
"166 367 LINE",
"212 367 LINE",
"212 429 LINE",
"2 429 LINE"
);
}
);
};
layerId = UUID0;
paths = (
{
closed = 1;
nodes = (
"2 367 LINE",
"85 367 LINE",
"244 0 LINE",
"332 0 LINE",
"496 367 LINE",
"574 367 LINE",
"574 429 LINE",
"374 429 LINE",
"374 367 LINE",
"418 367 LINE",
"328 154 LINE",
"292 69 LINE",
"256 154 LINE",
"166 367 LINE",
"212 367 LINE",
"212 429 LINE",
"2 429 LINE"
);
}
);
width = 576;
},
{
anchors = (
{
name = bottom;
position = "{301, 0}";
},
{
name = top;
position = "{301, 454}";
}
);
background = {
paths = (
{
closed = 1;
nodes = (
"3 367 LINE",
"86 367 LINE",
"245 0 LINE",
"333 0 LINE",
"497 367 LINE",
"575 367 LINE",
"575 429 LINE",
"375 429 LINE",
"375 367 LINE",
"419 367 LINE",
"293 69 LINE",
"167 367 LINE",
"213 367 LINE",
"213 429 LINE",
"3 429 LINE"
);
}
);
};
layerId = "6E1B38A8-44EA-440A-BD04-FE41D2B0BC62";
paths = (
{
closed = 1;
nodes = (
"6 353 LINE",
"76 353 LINE",
"233 0 LINE",
"371 0 LINE",
"533 353 LINE",
"596 353 LINE",
"596 454 LINE",
"342 454 LINE",
"342 353 LINE",
"400 353 LINE",
"338 206 LINE",
"301 110 LINE",
"265 206 LINE",
"204 353 LINE",
"261 353 LINE",
"261 454 LINE",
"5 454 LINE"
);
}
);
width = 602;
}
);
leftKerningGroup = v;
rightKerningGroup = v;
unicode = 0076;
},
{
glyphname = w;
layers = (
{
anchors = (
{
name = bottom;
position = "{374, 0}";
},
{
name = top;
position = "{374, 429}";
}
);
layerId = UUID0;
paths = (
{
closed = 1;
nodes = (
"284 0 LINE",
"374 270 LINE",
"461 0 LINE",
"537 0 LINE",
"654 367 LINE",
"739 367 LINE",
"739 429 LINE",
"533 429 LINE",
"533 367 LINE",
"587 367 LINE",
"528 184 LINE",
"498 90 LINE",
"467 189 LINE",
"412 368 LINE",
"336 368 LINE",
"282 194 LINE",
"251 92 LINE",
"218 196 LINE",
"163 367 LINE",
"228 367 LINE",
"228 429 LINE",
"2 429 LINE",
"2 367 LINE",
"86 367 LINE",
"206 0 LINE"
);
}
);
width = 741;
},
{
anchors = (
{
name = bottom;
position = "{400, 0}";
},
{
name = top;
position = "{400, 454}";
}
);
background = {
paths = (
{
closed = 1;
nodes = (
"-5 367 LINE",
"79 367 LINE",
"215 0 LINE",
"292 0 LINE",
"389 270 LINE",
"479 0 LINE",
"555 0 LINE",
"694 367 LINE",
"779 367 LINE",
"779 429 LINE",
"583 429 LINE",
"583 367 LINE",
"627 367 LINE",
"524 90 LINE",
"432 368 LINE",
"357 368 LINE",
"258 92 LINE",
"156 367 LINE",
"201 367 LINE",
"201 429 LINE",
"-5 429 LINE"
);
}
);
};
layerId = "6E1B38A8-44EA-440A-BD04-FE41D2B0BC62";
paths = (
{
closed = 1;
nodes = (
"324 0 LINE",
"405 258 LINE",
"478 0 LINE",
"613 0 LINE",
"747 353 LINE",
"803 353 LINE",
"803 454 LINE",
"557 454 LINE",
"557 353 LINE",
"621 353 LINE",
"579 206 LINE",
"552 97 LINE",
"527 206 LINE",
"471 387 LINE",
"343 387 LINE",
"287 206 LINE",
"262 98 LINE",
"234 206 LINE",
"198 353 LINE",
"252 353 LINE",
"252 454 LINE",
"6 454 LINE",
"6 353 LINE",
"64 353 LINE",
"181 0 LINE"
);
}
);
width = 809;
}
);
leftKerningGroup = v;
rightKerningGroup = v;
unicode = 0077;
},
{
glyphname = x;
layers = (
{
anchors = (
{
name = bottom;
position = "{295, 0}";
},
{
name = top;
position = "{295, 429}";
}
);
layerId = UUID0;
paths = (
{
closed = 1;
nodes = (
"237 0 LINE",
"237 62 LINE",
"193 62 LINE",
"285 171 LINE",
"389 62 LINE",
"344 62 LINE",
"344 0 LINE",
"572 0 LINE",
"572 62 LINE",
"488 62 LINE",
"347 210 LINE",
"479 367 LINE",
"554 367 LINE",
"554 429 LINE",
"354 429 LINE",
"354 367 LINE",
"398 367 LINE",
"305 254 LINE",
"198 367 LINE",
"252 367 LINE",
"252 429 LINE",
"25 429 LINE",
"25 367 LINE",
"100 367 LINE",
"242 217 LINE",
"112 62 LINE",
"25 62 LINE",
"25 0 LINE"
);
}
);
width = 591;
},
{
anchors = (
{
name = bottom;
position = "{322, 0}";
},
{
name = top;
position = "{322, 454}";
}
);
background = {
paths = (
{
closed = 1;
nodes = (
"361 0 LINE",
"589 0 LINE",
"589 62 LINE",
"505 62 LINE",
"364 210 LINE",
"496 367 LINE",
"571 367 LINE",
"571 429 LINE",
"371 429 LINE",
"371 367 LINE",
"415 367 LINE",
"322 254 LINE",
"215 367 LINE",
"269 367 LINE",
"269 429 LINE",
"42 429 LINE",
"42 367 LINE",
"117 367 LINE",
"259 217 LINE",
"129 62 LINE",
"42 62 LINE",
"42 0 LINE",
"254 0 LINE",
"254 62 LINE",
"210 62 LINE",
"302 171 LINE",
"406 62 LINE",
"361 62 LINE"
);
}
);
};
layerId = "6E1B38A8-44EA-440A-BD04-FE41D2B0BC62";
paths = (
{
closed = 1;
nodes = (
"289 0 LINE",
"289 101 LINE",
"250 101 LINE",
"317 171 LINE",
"387 101 LINE",
"346 101 LINE",
"346 0 LINE",
"602 0 LINE",
"602 101 LINE",
"525 101 LINE",
"395 225 LINE",
"509 353 LINE",
"585 353 LINE",
"585 454 LINE",
"344 454 LINE",
"344 353 LINE",
"379 353 LINE",
"318 290 LINE",
"260 353 LINE",
"289 353 LINE",
"289 454 LINE",
"35 454 LINE",
"35 353 LINE",
"116 353 LINE",
"240 234 LINE",
"120 101 LINE",
"35 101 LINE",
"35 0 LINE"
);
}
);
width = 630;
}
);
leftKerningGroup = x;
rightKerningGroup = x;
unicode = 0078;
},
{
glyphname = y;
layers = (
{
anchors = (
{
name = bottom;
position = "{452, 0}";
},
{
name = top;
position = "{273, 429}";
}
);
background = {
paths = (
{
closed = 1;
nodes = (
"-9 367 LINE",
"62 367 LINE",
"242 -66 LINE",
"234 -89 LINE SMOOTH",
"212 -152 OFFCURVE",
"176 -162 OFFCURVE",
"154 -162 CURVE SMOOTH",
"135 -162 OFFCURVE",
"99 -153 OFFCURVE",
"99 -153 CURVE",
"86 -213 LINE SMOOTH",
"86 -214 OFFCURVE",
"121 -223 OFFCURVE",
"150 -223 CURVE SMOOTH",
"225 -223 OFFCURVE",
"266 -183 OFFCURVE",
"296 -99 CURVE SMOOTH",
"462 367 LINE",
"542 367 LINE",
"542 429 LINE",
"342 429 LINE",
"342 367 LINE",
"397 367 LINE",
"277 29 LINE",
"142 367 LINE",
"199 367 LINE",
"199 429 LINE",
"-9 429 LINE"
);
}
);
};
layerId = UUID0;
paths = (
{
closed = 1;
nodes = (
"226 -224 OFFCURVE",
"277 -175 OFFCURVE",
"307 -90 CURVE SMOOTH",
"470 367 LINE",
"542 367 LINE",
"542 429 LINE",
"342 429 LINE",
"342 367 LINE",
"397 367 LINE",
"255 -47 LINE SMOOTH",
"222 -144 OFFCURVE",
"202 -161 OFFCURVE",
"146 -161 CURVE SMOOTH",
"131 -161 OFFCURVE",
"115 -158 OFFCURVE",
"98 -153 CURVE",
"86 -213 LINE",
"110 -221 OFFCURVE",
"132 -224 OFFCURVE",
"152 -224 CURVE SMOOTH"
);
},
{
closed = 1;
nodes = (
"308 12 LINE",
"152 367 LINE",
"209 367 LINE",
"209 429 LINE",
"1 429 LINE",
"1 367 LINE",
"72 367 LINE",
"277 -70 LINE"
);
}
);
width = 543;
},
{
anchors = (
{
name = bottom;
position = "{480, 0}";
},
{
name = top;
position = "{314, 454}";
}
);
background = {
paths = (
{
closed = 1;
nodes = (
"20 367 LINE",
"91 367 LINE",
"271 -66 LINE",
"263 -89 LINE SMOOTH",
"241 -152 OFFCURVE",
"205 -162 OFFCURVE",
"183 -162 CURVE SMOOTH",
"164 -162 OFFCURVE",
"128 -153 OFFCURVE",
"128 -153 CURVE",
"115 -213 LINE",
"115 -214 OFFCURVE",
"150 -223 OFFCURVE",
"179 -223 CURVE SMOOTH",
"254 -223 OFFCURVE",
"303 -183 OFFCURVE",
"333 -99 CURVE SMOOTH",
"499 367 LINE",
"571 367 LINE",
"571 429 LINE",
"371 429 LINE",
"371 367 LINE",
"426 367 LINE",
"306 29 LINE",
"171 367 LINE",
"228 367 LINE",
"228 429 LINE",
"20 429 LINE"
);
}
);
};
layerId = "6E1B38A8-44EA-440A-BD04-FE41D2B0BC62";
paths = (
{
closed = 1;
nodes = (
"270 -249 OFFCURVE",
"334 -200 OFFCURVE",
"379 -71 CURVE SMOOTH",
"527 353 LINE",
"610 353 LINE",
"610 454 LINE",
"362 454 LINE",
"362 353 LINE",
"412 353 LINE",
"304 -8 LINE SMOOTH",
"274 -119 OFFCURVE",
"236 -144 OFFCURVE",
"190 -144 CURVE SMOOTH",
"165 -144 OFFCURVE",
"147 -139 OFFCURVE",
"120 -128 CURVE",
"96 -227 LINE",
"130 -242 OFFCURVE",
"162 -249 OFFCURVE",
"192 -249 CURVE SMOOTH"
);
},
{
closed = 1;
nodes = (
"350 71 LINE",
"209 353 LINE",
"263 353 LINE",
"263 454 LINE",
"6 454 LINE",
"6 353 LINE",
"85 353 LINE",
"312 -76 LINE"
);
}
);
width = 616;
}
);
leftKerningGroup = y;
rightKerningGroup = y;
unicode = 0079;
},
{
glyphname = yacute;
layers = (
{
background = {
paths = (
{
closed = 1;
nodes = (
"250 512 LINE",
"268 480 LINE",
"501 586 LINE",
"466 652 LINE"
);
}
);
};
components = (
{
name = y;
},
{
name = acutecomb;
transform = "{1, 0, 0, 1, 168, 0}";
}
);
layerId = UUID0;
width = 543;
},
{
components = (
{
name = y;
},
{
name = acutecomb;
transform = "{1, 0, 0, 1, 231, 0}";
}
);
layerId = "6E1B38A8-44EA-440A-BD04-FE41D2B0BC62";
width = 616;
}
);
leftKerningGroup = y;
rightKerningGroup = y;
unicode = 00FD;
},
{
glyphname = z;
layers = (
{
anchors = (
{
name = bottom;
position = "{225, 0}";
},
{
name = top;
position = "{225, 429}";
}
);
layerId = UUID0;
paths = (
{
closed = 1;
nodes = (
"398 0 LINE",
"419 110 LINE",
"352 122 LINE",
"342 62 LINE",
"130 62 LINE",
"400 379 LINE",
"400 429 LINE",
"49 429 LINE",
"30 325 LINE",
"95 311 LINE",
"106 367 LINE",
"310 367 LINE",
"42 53 LINE",
"42 0 LINE"
);
}
);
width = 452;
},
{
anchors = (
{
name = bottom;
position = "{257, 0}";
},
{
name = top;
position = "{257, 454}";
}
);
background = {
paths = (
{
closed = 1;
nodes = (
"119 311 LINE",
"130 367 LINE",
"322 367 LINE",
"58 53 LINE",
"58 0 LINE",
"414 0 LINE",
"435 110 LINE",
"368 122 LINE",
"358 62 LINE",
"148 62 LINE",
"413 379 LINE",
"413 429 LINE",
"74 429 LINE",
"55 325 LINE"
);
}
);
};
layerId = "6E1B38A8-44EA-440A-BD04-FE41D2B0BC62";
paths = (
{
closed = 1;
nodes = (
"452 0 LINE",
"482 143 LINE",
"369 164 LINE",
"356 101 LINE",
"202 101 LINE",
"448 371 LINE",
"448 454 LINE",
"63 454 LINE",
"35 317 LINE",
"148 295 LINE",
"160 353 LINE",
"295 353 LINE",
"53 86 LINE",
"53 0 LINE"
);
}
);
width = 513;
}
);
leftKerningGroup = z;
rightKerningGroup = z;
unicode = 007A;
},
{
glyphname = fl;
layers = (
{
layerId = UUID0;
paths = (
{
closed = 1;
nodes = (
"534 595 LINE",
"469 646 OFFCURVE",
"402 668 OFFCURVE",
"323 668 CURVE SMOOTH",
"204 668 OFFCURVE",
"120 591 OFFCURVE",
"120 489 CURVE SMOOTH",
"120 429 LINE",
"36 429 LINE",
"36 367 LINE",
"120 367 LINE",
"120 62 LINE",
"36 62 LINE",
"36 0 LINE",
"288 0 LINE",
"288 62 LINE",
"198 62 LINE",
"198 367 LINE",
"322 367 LINE",
"322 429 LINE",
"198 429 LINE",
"198 473 LINE SMOOTH",
"198 561 OFFCURVE",
"251 598 OFFCURVE",
"323 598 CURVE SMOOTH",
"373 598 OFFCURVE",
"416 582 OFFCURVE",
"456 556 CURVE",
"456 62 LINE",
"372 62 LINE",
"372 0 LINE",
"618 0 LINE",
"618 62 LINE",
"534 62 LINE"
);
}
);
width = 641;
},
{
layerId = "6E1B38A8-44EA-440A-BD04-FE41D2B0BC62";
paths = (
{
closed = 1;
nodes = (
"610 588 LINE",
"556 652 OFFCURVE",
"481 693 OFFCURVE",
"370 693 CURVE SMOOTH",
"227 693 OFFCURVE",
"126 607 OFFCURVE",
"126 490 CURVE SMOOTH",
"126 454 LINE",
"42 454 LINE",
"42 353 LINE",
"126 353 LINE",
"126 101 LINE",
"42 101 LINE",
"42 0 LINE",
"343 0 LINE",
"343 101 LINE",
"253 101 LINE",
"253 353 LINE",
"377 353 LINE",
"377 454 LINE",
"253 454 LINE",
"253 492 LINE SMOOTH",
"253 552 OFFCURVE",
"305 589 OFFCURVE",
"369 589 CURVE SMOOTH",
"416 589 OFFCURVE",
"448 573 OFFCURVE",
"483 545 CURVE",
"483 101 LINE",
"399 101 LINE",
"399 0 LINE",
"694 0 LINE",
"694 101 LINE",
"610 101 LINE"
);
}
);
width = 719;
}
);
leftKerningGroup = f;
leftMetricsKey = f;
rightKerningGroup = l;
rightMetricsKey = l;
unicode = FB02;
},
{
glyphname = ordfeminine;
layers = (
{
layerId = UUID0;
paths = (
{
closed = 1;
nodes = (
"323 206 LINE",
"279 222 LINE",
"279 325 LINE SMOOTH",
"279 376 OFFCURVE",
"276 444 OFFCURVE",
"163 444 CURVE SMOOTH",
"111 444 OFFCURVE",
"72 426 OFFCURVE",
"72 426 CURVE",
"61 365 LINE",
"108 356 LINE",
"116 390 LINE",
"126 393 OFFCURVE",
"144 397 OFFCURVE",
"165 397 CURVE SMOOTH",
"212 397 OFFCURVE",
"222 379 OFFCURVE",
"222 325 CURVE",
"148 326 LINE SMOOTH",
"91 326 OFFCURVE",
"44 303 OFFCURVE",
"45 244 CURVE SMOOTH",
"45 196 OFFCURVE",
"84 159 OFFCURVE",
"152 159 CURVE SMOOTH",
"187 159 OFFCURVE",
"213 170 OFFCURVE",
"244 186 CURVE",
"308 160 LINE"
);
},
{
closed = 1;
nodes = (
"126 205 OFFCURVE",
"103 218 OFFCURVE",
"103 244 CURVE SMOOTH",
"103 276 OFFCURVE",
"125 281 OFFCURVE",
"150 281 CURVE SMOOTH",
"222 281 LINE",
"222 230 LINE",
"210 220 OFFCURVE",
"187 205 OFFCURVE",
"155 205 CURVE SMOOTH"
);
}
);
width = 354;
},
{
background = {
paths = (
{
closed = 1;
nodes = (
"125 356 LINE",
"133 390 LINE",
"143 393 OFFCURVE",
"161 397 OFFCURVE",
"182 397 CURVE SMOOTH",
"240 397 OFFCURVE",
"239 360 OFFCURVE",
"239 333 CURVE SMOOTH",
"239 326 LINE",
"239 325 LINE",
"165 326 LINE SMOOTH",
"108 326 OFFCURVE",
"61 303 OFFCURVE",
"62 244 CURVE SMOOTH",
"62 196 OFFCURVE",
"101 159 OFFCURVE",
"169 159 CURVE SMOOTH",
"204 159 OFFCURVE",
"233 170 OFFCURVE",
"254 186 CURVE",
"340 157 LINE",
"355 203 LINE",
"337 209 OFFCURVE",
"315 216 OFFCURVE",
"296 222 CURVE",
"296 325 LINE SMOOTH",
"296 376 OFFCURVE",
"293 444 OFFCURVE",
"180 444 CURVE SMOOTH",
"128 444 OFFCURVE",
"89 426 OFFCURVE",
"89 426 CURVE",
"78 365 LINE"
);
},
{
closed = 1;
nodes = (
"143 205 OFFCURVE",
"120 218 OFFCURVE",
"120 244 CURVE SMOOTH",
"120 276 OFFCURVE",
"142 281 OFFCURVE",
"167 281 CURVE SMOOTH",
"239 281 LINE",
"239 230 LINE",
"227 220 OFFCURVE",
"204 205 OFFCURVE",
"172 205 CURVE SMOOTH"
);
}
);
};
layerId = "6E1B38A8-44EA-440A-BD04-FE41D2B0BC62";
paths = (
{
closed = 1;
nodes = (
"383 216 LINE",
"328 234 LINE",
"328 341 LINE SMOOTH",
"328 434 OFFCURVE",
"284 474 OFFCURVE",
"182 474 CURVE SMOOTH",
"150 474 OFFCURVE",
"105 465 OFFCURVE",
"68 451 CURVE",
"54 382 LINE",
"130 367 LINE",
"137 400 LINE",
"152 404 OFFCURVE",
"165 406 OFFCURVE",
"183 406 CURVE SMOOTH",
"222 406 OFFCURVE",
"240 385 OFFCURVE",
"240 338 CURVE",
"172 338 LINE SMOOTH",
"83 338 OFFCURVE",
"42 308 OFFCURVE",
"42 245 CURVE SMOOTH",
"42 182 OFFCURVE",
"94 143 OFFCURVE",
"176 143 CURVE SMOOTH",
"209 143 OFFCURVE",
"240 152 OFFCURVE",
"273 171 CURVE",
"358 142 LINE"
);
},
{
closed = 1;
nodes = (
"154 213 OFFCURVE",
"134 228 OFFCURVE",
"134 246 CURVE SMOOTH",
"134 265 OFFCURVE",
"148 275 OFFCURVE",
"173 275 CURVE SMOOTH",
"240 275 LINE",
"240 234 LINE",
"226 226 OFFCURVE",
"204 213 OFFCURVE",
"179 213 CURVE SMOOTH"
);
}
);
width = 408;
}
);
leftKerningGroup = ordfeminine;
rightKerningGroup = ordfeminine;
unicode = 00AA;
},
{
glyphname = ordmasculine;
layers = (
{
layerId = UUID0;
paths = (
{
closed = 1;
nodes = (
"100 444 OFFCURVE",
"44 392 OFFCURVE",
"44 302 CURVE SMOOTH",
"44 213 OFFCURVE",
"100 161 OFFCURVE",
"179 161 CURVE",
"261 161 OFFCURVE",
"316 213 OFFCURVE",
"316 302 CURVE SMOOTH",
"316 392 OFFCURVE",
"261 444 OFFCURVE",
"179 444 CURVE SMOOTH"
);
},
{
closed = 1;
nodes = (
"232 396 OFFCURVE",
"259 362 OFFCURVE",
"259 302 CURVE SMOOTH",
"259 243 OFFCURVE",
"232 209 OFFCURVE",
"180 209 CURVE SMOOTH",
"128 209 OFFCURVE",
"101 243 OFFCURVE",
"101 302 CURVE SMOOTH",
"101 362 OFFCURVE",
"128 396 OFFCURVE",
"180 396 CURVE"
);
}
);
width = 360;
},
{
background = {
paths = (
{
closed = 1;
nodes = (
"285 161 OFFCURVE",
"340 213 OFFCURVE",
"340 302 CURVE SMOOTH",
"340 392 OFFCURVE",
"285 444 OFFCURVE",
"203 444 CURVE SMOOTH",
"124 444 OFFCURVE",
"68 392 OFFCURVE",
"68 302 CURVE SMOOTH",
"68 213 OFFCURVE",
"124 161 OFFCURVE",
"203 161 CURVE"
);
},
{
closed = 1;
nodes = (
"256 396 OFFCURVE",
"283 362 OFFCURVE",
"283 302 CURVE SMOOTH",
"283 243 OFFCURVE",
"256 209 OFFCURVE",
"204 209 CURVE SMOOTH",
"152 209 OFFCURVE",
"125 243 OFFCURVE",
"125 302 CURVE SMOOTH",
"125 362 OFFCURVE",
"152 396 OFFCURVE",
"204 396 CURVE"
);
}
);
};
layerId = "6E1B38A8-44EA-440A-BD04-FE41D2B0BC62";
paths = (
{
closed = 1;
nodes = (
"112 474 OFFCURVE",
"47 415 OFFCURVE",
"47 311 CURVE SMOOTH",
"47 209 OFFCURVE",
"112 150 OFFCURVE",
"203 150 CURVE SMOOTH",
"302 150 OFFCURVE",
"360 219 OFFCURVE",
"360 311 CURVE SMOOTH",
"360 415 OFFCURVE",
"297 474 OFFCURVE",
"203 474 CURVE SMOOTH"
);
},
{
closed = 1;
nodes = (
"241 390 OFFCURVE",
"262 358 OFFCURVE",
"262 311 CURVE SMOOTH",
"262 265 OFFCURVE",
"241 233 OFFCURVE",
"204 233 CURVE SMOOTH",
"165 233 OFFCURVE",
"146 265 OFFCURVE",
"146 311 CURVE SMOOTH",
"146 358 OFFCURVE",
"165 390 OFFCURVE",
"204 390 CURVE SMOOTH"
);
}
);
width = 407;
}
);
leftKerningGroup = ordfeminine;
rightKerningGroup = ordfeminine;
unicode = 00BA;
},
{
color = 4;
glyphname = "EnLeftHook-cy";
layers = (
{
components = (
{
name = "hook-cy.case";
transform = "{1, 0, 0, 1, -54, 0}";
}
);
layerId = UUID0;
paths = (
{
closed = 1;
nodes = (
"436 589 LINE",
"436 520 LINE",
"500 520 LINE",
"501 336 LINE",
"213 336 LINE",
"212 520 LINE",
"276 520 LINE",
"276 589 LINE",
"37 589 LINE",
"37 520 LINE",
"132 520 LINE",
"135 0 LINE",
"213 0 LINE",
"213 267 LINE",
"501 267 LINE",
"502 69 LINE",
"438 69 LINE",
"438 0 LINE",
"677 0 LINE",
"677 69 LINE",
"581 69 LINE",
"580 520 LINE",
"676 520 LINE",
"676 589 LINE"
);
}
);
width = 714;
},
{
components = (
{
alignment = -1;
name = "hook-cy.case";
transform = "{1, 0, 0, 1, -128, 0}";
}
);
layerId = "6E1B38A8-44EA-440A-BD04-FE41D2B0BC62";
paths = (
{
closed = 1;
nodes = (
"392 588 LINE",
"392 477 LINE",
"447 477 LINE",
"447 353 LINE",
"208 353 LINE",
"208 477 LINE",
"263 477 LINE",
"263 589 LINE",
"-2 589 LINE",
"-2 477 LINE",
"79 477 LINE",
"79 0 LINE",
"208 0 LINE",
"208 241 LINE",
"447 241 LINE",
"447 112 LINE",
"394 112 LINE",
"394 0 LINE",
"657 0 LINE",
"657 112 LINE",
"576 112 LINE",
"576 477 LINE",
"657 477 LINE",
"657 589 LINE"
);
}
);
width = 700;
}
);
leftKerningGroup = "EnLeftHook-cy";
rightKerningGroup = "EnLeftHook-cy";
rightMetricsKey = "En-cy";
unicode = 0528;
},
{
glyphname = "A-cy";
layers = (
{
anchors = (
{
name = top;
position = "{323, 589}";
}
);
components = (
{
name = A;
}
);
layerId = UUID0;
width = 651;
},
{
anchors = (
{
name = top;
position = "{324, 589}";
}
);
background = {
paths = (
{
closed = 1;
nodes = (
"637 69 LINE",
"542 69 LINE",
"361 589 LINE",
"167 589 LINE",
"167 520 LINE",
"268 520 LINE",
"102 69 LINE",
"6 69 LINE",
"6 0 LINE",
"239 0 LINE",
"239 69 LINE",
"175 69 LINE",
"209 160 LINE",
"425 160 LINE",
"457 69 LINE",
"394 69 LINE",
"394 0 LINE",
"637 0 LINE"
);
},
{
closed = 1;
nodes = (
"322 488 LINE",
"401 229 LINE",
"234 229 LINE"
);
},
{
closed = 1;
nodes = (
"266 279 LINE",
"323 470 LINE",
"379 279 LINE"
);
},
{
closed = 1;
nodes = (
"391 589 LINE",
"151 589 LINE",
"151 477 LINE",
"229 477 LINE",
"103 112 LINE",
"4 112 LINE",
"4 0 LINE",
"270 0 LINE",
"270 112 LINE",
"215 112 LINE",
"241 197 LINE",
"403 197 LINE",
"428 112 LINE",
"379 112 LINE",
"379 0 LINE",
"644 0 LINE",
"644 112 LINE",
"556 112 LINE"
);
}
);
};
components = (
{
name = A;
}
);
layerId = "6E1B38A8-44EA-440A-BD04-FE41D2B0BC62";
width = 662;
}
);
leftKerningGroup = A;
rightKerningGroup = A;
unicode = 0410;
},
{
glyphname = "Be-cy";
layers = (
{
layerId = UUID0;
paths = (
{
closed = 1;
nodes = (
"218 332 LINE",
"218 520 LINE",
"417 520 LINE",
"439 426 LINE",
"512 442 LINE",
"481 589 LINE",
"45 589 LINE",
"45 520 LINE",
"140 520 LINE",
"140 69 LINE",
"45 69 LINE",
"45 0 LINE",
"360 0 LINE SMOOTH",
"475 0 OFFCURVE",
"537 64 OFFCURVE",
"537 184 CURVE SMOOTH",
"537 287 OFFCURVE",
"468 340 OFFCURVE",
"340 336 CURVE SMOOTH"
);
},
{
closed = 1;
nodes = (
"217 70 LINE",
"218 263 LINE",
"344 267 LINE SMOOTH",
"414 269 OFFCURVE",
"452 242 OFFCURVE",
"452 176 CURVE SMOOTH",
"452 102 OFFCURVE",
"411 70 OFFCURVE",
"336 70 CURVE SMOOTH"
);
}
);
width = 582;
},
{
background = {
paths = (
{
closed = 1;
nodes = (
"527 442 LINE",
"496 589 LINE",
"60 589 LINE",
"60 520 LINE",
"155 520 LINE",
"155 69 LINE",
"60 69 LINE",
"60 0 LINE",
"375 0 LINE SMOOTH",
"500 0 OFFCURVE",
"552 86 OFFCURVE",
"552 184 CURVE SMOOTH",
"552 311 OFFCURVE",
"452 339 OFFCURVE",
"355 336 CURVE SMOOTH",
"233 332 LINE",
"233 520 LINE",
"432 520 LINE",
"454 426 LINE"
);
},
{
closed = 1;
nodes = (
"359 267 LINE",
"431 269 OFFCURVE",
"467 247 OFFCURVE",
"467 184 CURVE SMOOTH",
"467 113 OFFCURVE",
"424 70 OFFCURVE",
"351 70 CURVE SMOOTH",
"232 70 LINE",
"233 263 LINE"
);
}
);
};
layerId = "6E1B38A8-44EA-440A-BD04-FE41D2B0BC62";
paths = (
{
closed = 1;
nodes = (
"261 355 LINE",
"261 477 LINE",
"421 477 LINE",
"447 400 LINE",
"553 436 LINE",
"501 589 LINE",
"51 589 LINE",
"51 477 LINE",
"132 477 LINE",
"132 112 LINE",
"51 112 LINE",
"51 0 LINE",
"378 0 LINE SMOOTH",
"509 0 OFFCURVE",
"579 62 OFFCURVE",
"579 176 CURVE SMOOTH",
"579 293 OFFCURVE",
"509 355 OFFCURVE",
"378 355 CURVE SMOOTH"
);
},
{
closed = 1;
nodes = (
"261 112 LINE",
"261 244 LINE",
"361 244 LINE SMOOTH",
"416 244 OFFCURVE",
"446 221 OFFCURVE",
"446 179 CURVE SMOOTH",
"446 135 OFFCURVE",
"414 112 OFFCURVE",
"355 112 CURVE SMOOTH"
);
}
);
width = 624;
}
);
leftKerningGroup = I;
rightKerningGroup = "Be-cy";
unicode = 0411;
},
{
glyphname = "Ve-cy";
layers = (
{
components = (
{
name = B;
}
);
layerId = UUID0;
width = 566;
},
{
background = {
paths = (
{
closed = 1;
nodes = (
"311 520 LINE",
"376 520 OFFCURVE",
"435 521 OFFCURVE",
"435 434 CURVE SMOOTH",
"435 345 OFFCURVE",
"373 328 OFFCURVE",
"345 328 CURVE SMOOTH",
"220 328 LINE",
"220 520 LINE"
);
},
{
closed = 1;
nodes = (
"344 268 LINE",
"416 268 OFFCURVE",
"454 237 OFFCURVE",
"454 174 CURVE SMOOTH",
"454 103 OFFCURVE",
"411 70 OFFCURVE",
"338 70 CURVE SMOOTH",
"219 70 LINE",
"220 268 LINE"
);
},
{
closed = 1;
nodes = (
"45 589 LINE",
"45 520 LINE",
"140 520 LINE",
"140 69 LINE",
"45 69 LINE",
"45 0 LINE",
"362 0 LINE SMOOTH",
"487 0 OFFCURVE",
"539 76 OFFCURVE",
"539 174 CURVE SMOOTH",
"539 229 OFFCURVE",
"503 283 OFFCURVE",
"449 304 CURVE",
"482 326 OFFCURVE",
"520 379 OFFCURVE",
"520 435 CURVE SMOOTH",
"520 547 OFFCURVE",
"451 589 OFFCURVE",
"300 589 CURVE SMOOTH"
);
},
{
closed = 1;
nodes = (
"317 477 LINE",
"391 477 OFFCURVE",
"417 458 OFFCURVE",
"417 410 CURVE SMOOTH",
"417 355 OFFCURVE",
"372 345 OFFCURVE",
"352 345 CURVE SMOOTH",
"251 345 LINE",
"251 477 LINE"
);
},
{
closed = 1;
nodes = (
"351 244 LINE",
"406 244 OFFCURVE",
"436 228 OFFCURVE",
"436 179 CURVE SMOOTH",
"436 120 OFFCURVE",
"403 112 OFFCURVE",
"345 112 CURVE SMOOTH",
"251 112 LINE",
"251 244 LINE"
);
},
{
closed = 1;
nodes = (
"41 589 LINE",
"41 477 LINE",
"122 477 LINE",
"122 112 LINE",
"41 112 LINE",
"41 0 LINE",
"368 0 LINE SMOOTH",
"505 0 OFFCURVE",
"569 64 OFFCURVE",
"569 165 CURVE SMOOTH",
"569 216 OFFCURVE",
"542 275 OFFCURVE",
"492 299 CURVE",
"536 338 OFFCURVE",
"551 378 OFFCURVE",
"551 416 CURVE SMOOTH",
"551 545 OFFCURVE",
"474 589 OFFCURVE",
"306 589 CURVE SMOOTH"
);
}
);
};
components = (
{
name = B;
}
);
layerId = "6E1B38A8-44EA-440A-BD04-FE41D2B0BC62";
width = 606;
}
);
leftKerningGroup = I;
rightKerningGroup = B;
unicode = 0412;
},
